<?xml version="1.0" encoding="utf-8"?>
<svg xmlns="http://www.w3.org/2000/svg" xmlns:xlink="http://www.w3.org/1999/xlink" width="600" height="400" viewBox="0 0 2400 1600">
<defs>
  <clipPath id="clip860">
    <rect x="0" y="0" width="2400" height="1600"/>
  </clipPath>
</defs>
<path clip-path="url(#clip860)" d="M0 1600 L2400 1600 L2400 0 L0 0  Z" fill="#ffffff" fill-rule="evenodd" fill-opacity="1"/>
<defs>
  <clipPath id="clip861">
    <rect x="480" y="0" width="1681" height="1600"/>
  </clipPath>
</defs>
<path clip-path="url(#clip860)" d="M186.274 1486.45 L2352.76 1486.45 L2352.76 127.244 L186.274 127.244  Z" fill="#ffffff" fill-rule="evenodd" fill-opacity="1"/>
<defs>
  <clipPath id="clip862">
    <rect x="186" y="127" width="2167" height="1360"/>
  </clipPath>
</defs>
<polyline clip-path="url(#clip862)" style="stroke:#000000; stroke-linecap:round; stroke-linejoin:round; stroke-width:2; stroke-opacity:0.1; fill:none" points="247.59,1486.45 247.59,127.244 "/>
<polyline clip-path="url(#clip862)" style="stroke:#000000; stroke-linecap:round; stroke-linejoin:round; stroke-width:2; stroke-opacity:0.1; fill:none" points="758.552,1486.45 758.552,127.244 "/>
<polyline clip-path="url(#clip862)" style="stroke:#000000; stroke-linecap:round; stroke-linejoin:round; stroke-width:2; stroke-opacity:0.1; fill:none" points="1269.51,1486.45 1269.51,127.244 "/>
<polyline clip-path="url(#clip862)" style="stroke:#000000; stroke-linecap:round; stroke-linejoin:round; stroke-width:2; stroke-opacity:0.1; fill:none" points="1780.48,1486.45 1780.48,127.244 "/>
<polyline clip-path="url(#clip862)" style="stroke:#000000; stroke-linecap:round; stroke-linejoin:round; stroke-width:2; stroke-opacity:0.1; fill:none" points="2291.44,1486.45 2291.44,127.244 "/>
<polyline clip-path="url(#clip862)" style="stroke:#000000; stroke-linecap:round; stroke-linejoin:round; stroke-width:2; stroke-opacity:0.1; fill:none" points="186.274,1447.98 2352.76,1447.98 "/>
<polyline clip-path="url(#clip862)" style="stroke:#000000; stroke-linecap:round; stroke-linejoin:round; stroke-width:2; stroke-opacity:0.1; fill:none" points="186.274,1127.41 2352.76,1127.41 "/>
<polyline clip-path="url(#clip862)" style="stroke:#000000; stroke-linecap:round; stroke-linejoin:round; stroke-width:2; stroke-opacity:0.1; fill:none" points="186.274,806.846 2352.76,806.846 "/>
<polyline clip-path="url(#clip862)" style="stroke:#000000; stroke-linecap:round; stroke-linejoin:round; stroke-width:2; stroke-opacity:0.1; fill:none" points="186.274,486.279 2352.76,486.279 "/>
<polyline clip-path="url(#clip862)" style="stroke:#000000; stroke-linecap:round; stroke-linejoin:round; stroke-width:2; stroke-opacity:0.1; fill:none" points="186.274,165.712 2352.76,165.712 "/>
<polyline clip-path="url(#clip860)" style="stroke:#000000; stroke-linecap:round; stroke-linejoin:round; stroke-width:4; stroke-opacity:1; fill:none" points="186.274,1486.45 2352.76,1486.45 "/>
<polyline clip-path="url(#clip860)" style="stroke:#000000; stroke-linecap:round; stroke-linejoin:round; stroke-width:4; stroke-opacity:1; fill:none" points="247.59,1486.45 247.59,1467.55 "/>
<polyline clip-path="url(#clip860)" style="stroke:#000000; stroke-linecap:round; stroke-linejoin:round; stroke-width:4; stroke-opacity:1; fill:none" points="758.552,1486.45 758.552,1467.55 "/>
<polyline clip-path="url(#clip860)" style="stroke:#000000; stroke-linecap:round; stroke-linejoin:round; stroke-width:4; stroke-opacity:1; fill:none" points="1269.51,1486.45 1269.51,1467.55 "/>
<polyline clip-path="url(#clip860)" style="stroke:#000000; stroke-linecap:round; stroke-linejoin:round; stroke-width:4; stroke-opacity:1; fill:none" points="1780.48,1486.45 1780.48,1467.55 "/>
<polyline clip-path="url(#clip860)" style="stroke:#000000; stroke-linecap:round; stroke-linejoin:round; stroke-width:4; stroke-opacity:1; fill:none" points="2291.44,1486.45 2291.44,1467.55 "/>
<path clip-path="url(#clip860)" d="M224.974 1517.37 Q221.363 1517.37 219.534 1520.93 Q217.729 1524.47 217.729 1531.6 Q217.729 1538.71 219.534 1542.27 Q221.363 1545.82 224.974 1545.82 Q228.608 1545.82 230.414 1542.27 Q232.242 1538.71 232.242 1531.6 Q232.242 1524.47 230.414 1520.93 Q228.608 1517.37 224.974 1517.37 M224.974 1513.66 Q230.784 1513.66 233.84 1518.27 Q236.918 1522.85 236.918 1531.6 Q236.918 1540.33 233.84 1544.94 Q230.784 1549.52 224.974 1549.52 Q219.164 1549.52 216.085 1544.94 Q213.03 1540.33 213.03 1531.6 Q213.03 1522.85 216.085 1518.27 Q219.164 1513.66 224.974 1513.66 Z" fill="#000000" fill-rule="nonzero" fill-opacity="1" /><path clip-path="url(#clip860)" d="M245.136 1542.97 L250.02 1542.97 L250.02 1548.85 L245.136 1548.85 L245.136 1542.97 Z" fill="#000000" fill-rule="nonzero" fill-opacity="1" /><path clip-path="url(#clip860)" d="M270.205 1517.37 Q266.594 1517.37 264.765 1520.93 Q262.96 1524.47 262.96 1531.6 Q262.96 1538.71 264.765 1542.27 Q266.594 1545.82 270.205 1545.82 Q273.839 1545.82 275.645 1542.27 Q277.474 1538.71 277.474 1531.6 Q277.474 1524.47 275.645 1520.93 Q273.839 1517.37 270.205 1517.37 M270.205 1513.66 Q276.015 1513.66 279.071 1518.27 Q282.15 1522.85 282.15 1531.6 Q282.15 1540.33 279.071 1544.94 Q276.015 1549.52 270.205 1549.52 Q264.395 1549.52 261.316 1544.94 Q258.261 1540.33 258.261 1531.6 Q258.261 1522.85 261.316 1518.27 Q264.395 1513.66 270.205 1513.66 Z" fill="#000000" fill-rule="nonzero" fill-opacity="1" /><path clip-path="url(#clip860)" d="M730.289 1544.91 L746.608 1544.91 L746.608 1548.85 L724.664 1548.85 L724.664 1544.91 Q727.326 1542.16 731.909 1537.53 Q736.515 1532.88 737.696 1531.53 Q739.941 1529.01 740.821 1527.27 Q741.724 1525.51 741.724 1523.82 Q741.724 1521.07 739.779 1519.33 Q737.858 1517.6 734.756 1517.6 Q732.557 1517.6 730.103 1518.36 Q727.673 1519.13 724.895 1520.68 L724.895 1515.95 Q727.719 1514.82 730.173 1514.24 Q732.626 1513.66 734.663 1513.66 Q740.034 1513.66 743.228 1516.35 Q746.423 1519.03 746.423 1523.52 Q746.423 1525.65 745.612 1527.57 Q744.825 1529.47 742.719 1532.07 Q742.14 1532.74 739.038 1535.95 Q735.937 1539.15 730.289 1544.91 Z" fill="#000000" fill-rule="nonzero" fill-opacity="1" /><path clip-path="url(#clip860)" d="M756.423 1542.97 L761.307 1542.97 L761.307 1548.85 L756.423 1548.85 L756.423 1542.97 Z" fill="#000000" fill-rule="nonzero" fill-opacity="1" /><path clip-path="url(#clip860)" d="M771.538 1514.29 L789.895 1514.29 L789.895 1518.22 L775.821 1518.22 L775.821 1526.7 Q776.839 1526.35 777.858 1526.19 Q778.876 1526 779.895 1526 Q785.682 1526 789.061 1529.17 Q792.441 1532.34 792.441 1537.76 Q792.441 1543.34 788.969 1546.44 Q785.497 1549.52 779.177 1549.52 Q777.001 1549.52 774.733 1549.15 Q772.487 1548.78 770.08 1548.04 L770.08 1543.34 Q772.163 1544.47 774.385 1545.03 Q776.608 1545.58 779.085 1545.58 Q783.089 1545.58 785.427 1543.48 Q787.765 1541.37 787.765 1537.76 Q787.765 1534.15 785.427 1532.04 Q783.089 1529.94 779.085 1529.94 Q777.21 1529.94 775.335 1530.35 Q773.483 1530.77 771.538 1531.65 L771.538 1514.29 Z" fill="#000000" fill-rule="nonzero" fill-opacity="1" /><path clip-path="url(#clip860)" d="M1236.68 1514.29 L1255.04 1514.29 L1255.04 1518.22 L1240.96 1518.22 L1240.96 1526.7 Q1241.98 1526.35 1243 1526.19 Q1244.02 1526 1245.04 1526 Q1250.82 1526 1254.2 1529.17 Q1257.58 1532.34 1257.58 1537.76 Q1257.58 1543.34 1254.11 1546.44 Q1250.64 1549.52 1244.32 1549.52 Q1242.14 1549.52 1239.87 1549.15 Q1237.63 1548.78 1235.22 1548.04 L1235.22 1543.34 Q1237.3 1544.47 1239.53 1545.03 Q1241.75 1545.58 1244.23 1545.58 Q1248.23 1545.58 1250.57 1543.48 Q1252.91 1541.37 1252.91 1537.76 Q1252.91 1534.15 1250.57 1532.04 Q1248.23 1529.94 1244.23 1529.94 Q1242.35 1529.94 1240.48 1530.35 Q1238.62 1530.77 1236.68 1531.65 L1236.68 1514.29 Z" fill="#000000" fill-rule="nonzero" fill-opacity="1" /><path clip-path="url(#clip860)" d="M1266.8 1542.97 L1271.68 1542.97 L1271.68 1548.85 L1266.8 1548.85 L1266.8 1542.97 Z" fill="#000000" fill-rule="nonzero" fill-opacity="1" /><path clip-path="url(#clip860)" d="M1291.86 1517.37 Q1288.25 1517.37 1286.42 1520.93 Q1284.62 1524.47 1284.62 1531.6 Q1284.62 1538.71 1286.42 1542.27 Q1288.25 1545.82 1291.86 1545.82 Q1295.5 1545.82 1297.3 1542.27 Q1299.13 1538.71 1299.13 1531.6 Q1299.13 1524.47 1297.3 1520.93 Q1295.5 1517.37 1291.86 1517.37 M1291.86 1513.66 Q1297.67 1513.66 1300.73 1518.27 Q1303.81 1522.85 1303.81 1531.6 Q1303.81 1540.33 1300.73 1544.94 Q1297.67 1549.52 1291.86 1549.52 Q1286.05 1549.52 1282.98 1544.94 Q1279.92 1540.33 1279.92 1531.6 Q1279.92 1522.85 1282.98 1518.27 Q1286.05 1513.66 1291.86 1513.66 Z" fill="#000000" fill-rule="nonzero" fill-opacity="1" /><path clip-path="url(#clip860)" d="M1746.8 1514.29 L1769.02 1514.29 L1769.02 1516.28 L1756.47 1548.85 L1751.59 1548.85 L1763.39 1518.22 L1746.8 1518.22 L1746.8 1514.29 Z" fill="#000000" fill-rule="nonzero" fill-opacity="1" /><path clip-path="url(#clip860)" d="M1778.14 1542.97 L1783.02 1542.97 L1783.02 1548.85 L1778.14 1548.85 L1778.14 1542.97 Z" fill="#000000" fill-rule="nonzero" fill-opacity="1" /><path clip-path="url(#clip860)" d="M1793.26 1514.29 L1811.61 1514.29 L1811.61 1518.22 L1797.54 1518.22 L1797.54 1526.7 Q1798.56 1526.35 1799.57 1526.19 Q1800.59 1526 1801.61 1526 Q1807.4 1526 1810.78 1529.17 Q1814.16 1532.34 1814.16 1537.76 Q1814.16 1543.34 1810.69 1546.44 Q1807.21 1549.52 1800.89 1549.52 Q1798.72 1549.52 1796.45 1549.15 Q1794.2 1548.78 1791.8 1548.04 L1791.8 1543.34 Q1793.88 1544.47 1796.1 1545.03 Q1798.32 1545.58 1800.8 1545.58 Q1804.81 1545.58 1807.14 1543.48 Q1809.48 1541.37 1809.48 1537.76 Q1809.48 1534.15 1807.14 1532.04 Q1804.81 1529.94 1800.8 1529.94 Q1798.93 1529.94 1797.05 1530.35 Q1795.2 1530.77 1793.26 1531.65 L1793.26 1514.29 Z" fill="#000000" fill-rule="nonzero" fill-opacity="1" /><path clip-path="url(#clip860)" d="M2243.51 1544.91 L2251.15 1544.91 L2251.15 1518.55 L2242.84 1520.21 L2242.84 1515.95 L2251.1 1514.29 L2255.78 1514.29 L2255.78 1544.91 L2263.42 1544.91 L2263.42 1548.85 L2243.51 1548.85 L2243.51 1544.91 Z" fill="#000000" fill-rule="nonzero" fill-opacity="1" /><path clip-path="url(#clip860)" d="M2282.86 1517.37 Q2279.25 1517.37 2277.42 1520.93 Q2275.62 1524.47 2275.62 1531.6 Q2275.62 1538.71 2277.42 1542.27 Q2279.25 1545.82 2282.86 1545.82 Q2286.5 1545.82 2288.3 1542.27 Q2290.13 1538.71 2290.13 1531.6 Q2290.13 1524.47 2288.3 1520.93 Q2286.5 1517.37 2282.86 1517.37 M2282.86 1513.66 Q2288.67 1513.66 2291.73 1518.27 Q2294.81 1522.85 2294.81 1531.6 Q2294.81 1540.33 2291.73 1544.94 Q2288.67 1549.52 2282.86 1549.52 Q2277.05 1549.52 2273.98 1544.94 Q2270.92 1540.33 2270.92 1531.6 Q2270.92 1522.85 2273.98 1518.27 Q2277.05 1513.66 2282.86 1513.66 Z" fill="#000000" fill-rule="nonzero" fill-opacity="1" /><path clip-path="url(#clip860)" d="M2303.03 1542.97 L2307.91 1542.97 L2307.91 1548.85 L2303.03 1548.85 L2303.03 1542.97 Z" fill="#000000" fill-rule="nonzero" fill-opacity="1" /><path clip-path="url(#clip860)" d="M2328.1 1517.37 Q2324.48 1517.37 2322.66 1520.93 Q2320.85 1524.47 2320.85 1531.6 Q2320.85 1538.71 2322.66 1542.27 Q2324.48 1545.82 2328.1 1545.82 Q2331.73 1545.82 2333.54 1542.27 Q2335.36 1538.71 2335.36 1531.6 Q2335.36 1524.47 2333.54 1520.93 Q2331.73 1517.37 2328.1 1517.37 M2328.1 1513.66 Q2333.91 1513.66 2336.96 1518.27 Q2340.04 1522.85 2340.04 1531.6 Q2340.04 1540.33 2336.96 1544.94 Q2333.91 1549.52 2328.1 1549.52 Q2322.29 1549.52 2319.21 1544.94 Q2316.15 1540.33 2316.15 1531.6 Q2316.15 1522.85 2319.21 1518.27 Q2322.29 1513.66 2328.1 1513.66 Z" fill="#000000" fill-rule="nonzero" fill-opacity="1" /><polyline clip-path="url(#clip860)" style="stroke:#000000; stroke-linecap:round; stroke-linejoin:round; stroke-width:4; stroke-opacity:1; fill:none" points="186.274,1486.45 186.274,127.244 "/>
<polyline clip-path="url(#clip860)" style="stroke:#000000; stroke-linecap:round; stroke-linejoin:round; stroke-width:4; stroke-opacity:1; fill:none" points="186.274,1447.98 205.172,1447.98 "/>
<polyline clip-path="url(#clip860)" style="stroke:#000000; stroke-linecap:round; stroke-linejoin:round; stroke-width:4; stroke-opacity:1; fill:none" points="186.274,1127.41 205.172,1127.41 "/>
<polyline clip-path="url(#clip860)" style="stroke:#000000; stroke-linecap:round; stroke-linejoin:round; stroke-width:4; stroke-opacity:1; fill:none" points="186.274,806.846 205.172,806.846 "/>
<polyline clip-path="url(#clip860)" style="stroke:#000000; stroke-linecap:round; stroke-linejoin:round; stroke-width:4; stroke-opacity:1; fill:none" points="186.274,486.279 205.172,486.279 "/>
<polyline clip-path="url(#clip860)" style="stroke:#000000; stroke-linecap:round; stroke-linejoin:round; stroke-width:4; stroke-opacity:1; fill:none" points="186.274,165.712 205.172,165.712 "/>
<path clip-path="url(#clip860)" d="M62.9365 1433.78 Q59.3254 1433.78 57.4967 1437.34 Q55.6912 1440.88 55.6912 1448.01 Q55.6912 1455.12 57.4967 1458.69 Q59.3254 1462.23 62.9365 1462.23 Q66.5707 1462.23 68.3763 1458.69 Q70.205 1455.12 70.205 1448.01 Q70.205 1440.88 68.3763 1437.34 Q66.5707 1433.78 62.9365 1433.78 M62.9365 1430.07 Q68.7467 1430.07 71.8022 1434.68 Q74.8809 1439.26 74.8809 1448.01 Q74.8809 1456.74 71.8022 1461.35 Q68.7467 1465.93 62.9365 1465.93 Q57.1264 1465.93 54.0477 1461.35 Q50.9921 1456.74 50.9921 1448.01 Q50.9921 1439.26 54.0477 1434.68 Q57.1264 1430.07 62.9365 1430.07 Z" fill="#000000" fill-rule="nonzero" fill-opacity="1" /><path clip-path="url(#clip860)" d="M83.0984 1459.38 L87.9827 1459.38 L87.9827 1465.26 L83.0984 1465.26 L83.0984 1459.38 Z" fill="#000000" fill-rule="nonzero" fill-opacity="1" /><path clip-path="url(#clip860)" d="M108.168 1433.78 Q104.557 1433.78 102.728 1437.34 Q100.922 1440.88 100.922 1448.01 Q100.922 1455.12 102.728 1458.69 Q104.557 1462.23 108.168 1462.23 Q111.802 1462.23 113.608 1458.69 Q115.436 1455.12 115.436 1448.01 Q115.436 1440.88 113.608 1437.34 Q111.802 1433.78 108.168 1433.78 M108.168 1430.07 Q113.978 1430.07 117.033 1434.68 Q120.112 1439.26 120.112 1448.01 Q120.112 1456.74 117.033 1461.35 Q113.978 1465.93 108.168 1465.93 Q102.358 1465.93 99.2789 1461.35 Q96.2234 1456.74 96.2234 1448.01 Q96.2234 1439.26 99.2789 1434.68 Q102.358 1430.07 108.168 1430.07 Z" fill="#000000" fill-rule="nonzero" fill-opacity="1" /><path clip-path="url(#clip860)" d="M138.33 1433.78 Q134.719 1433.78 132.89 1437.34 Q131.084 1440.88 131.084 1448.01 Q131.084 1455.12 132.89 1458.69 Q134.719 1462.23 138.33 1462.23 Q141.964 1462.23 143.769 1458.69 Q145.598 1455.12 145.598 1448.01 Q145.598 1440.88 143.769 1437.34 Q141.964 1433.78 138.33 1433.78 M138.33 1430.07 Q144.14 1430.07 147.195 1434.68 Q150.274 1439.26 150.274 1448.01 Q150.274 1456.74 147.195 1461.35 Q144.14 1465.93 138.33 1465.93 Q132.519 1465.93 129.441 1461.35 Q126.385 1456.74 126.385 1448.01 Q126.385 1439.26 129.441 1434.68 Q132.519 1430.07 138.33 1430.07 Z" fill="#000000" fill-rule="nonzero" fill-opacity="1" /><path clip-path="url(#clip860)" d="M63.9319 1113.21 Q60.3208 1113.21 58.4921 1116.78 Q56.6865 1120.32 56.6865 1127.45 Q56.6865 1134.55 58.4921 1138.12 Q60.3208 1141.66 63.9319 1141.66 Q67.5661 1141.66 69.3717 1138.12 Q71.2004 1134.55 71.2004 1127.45 Q71.2004 1120.32 69.3717 1116.78 Q67.5661 1113.21 63.9319 1113.21 M63.9319 1109.51 Q69.742 1109.51 72.7976 1114.11 Q75.8763 1118.7 75.8763 1127.45 Q75.8763 1136.17 72.7976 1140.78 Q69.742 1145.36 63.9319 1145.36 Q58.1217 1145.36 55.043 1140.78 Q51.9875 1136.17 51.9875 1127.45 Q51.9875 1118.7 55.043 1114.11 Q58.1217 1109.51 63.9319 1109.51 Z" fill="#000000" fill-rule="nonzero" fill-opacity="1" /><path clip-path="url(#clip860)" d="M84.0938 1138.81 L88.978 1138.81 L88.978 1144.69 L84.0938 1144.69 L84.0938 1138.81 Z" fill="#000000" fill-rule="nonzero" fill-opacity="1" /><path clip-path="url(#clip860)" d="M103.191 1140.76 L119.51 1140.76 L119.51 1144.69 L97.566 1144.69 L97.566 1140.76 Q100.228 1138 104.811 1133.37 Q109.418 1128.72 110.598 1127.38 Q112.844 1124.86 113.723 1123.12 Q114.626 1121.36 114.626 1119.67 Q114.626 1116.92 112.682 1115.18 Q110.76 1113.44 107.658 1113.44 Q105.459 1113.44 103.006 1114.21 Q100.575 1114.97 97.7974 1116.52 L97.7974 1111.8 Q100.621 1110.67 103.075 1110.09 Q105.529 1109.51 107.566 1109.51 Q112.936 1109.51 116.131 1112.19 Q119.325 1114.88 119.325 1119.37 Q119.325 1121.5 118.515 1123.42 Q117.728 1125.32 115.621 1127.91 Q115.043 1128.58 111.941 1131.8 Q108.839 1134.99 103.191 1140.76 Z" fill="#000000" fill-rule="nonzero" fill-opacity="1" /><path clip-path="url(#clip860)" d="M129.371 1110.13 L147.728 1110.13 L147.728 1114.07 L133.654 1114.07 L133.654 1122.54 Q134.672 1122.19 135.691 1122.03 Q136.709 1121.85 137.728 1121.85 Q143.515 1121.85 146.894 1125.02 Q150.274 1128.19 150.274 1133.61 Q150.274 1139.18 146.802 1142.29 Q143.33 1145.36 137.01 1145.36 Q134.834 1145.36 132.566 1144.99 Q130.32 1144.62 127.913 1143.88 L127.913 1139.18 Q129.996 1140.32 132.219 1140.87 Q134.441 1141.43 136.918 1141.43 Q140.922 1141.43 143.26 1139.32 Q145.598 1137.22 145.598 1133.61 Q145.598 1129.99 143.26 1127.89 Q140.922 1125.78 136.918 1125.78 Q135.043 1125.78 133.168 1126.2 Q131.316 1126.61 129.371 1127.49 L129.371 1110.13 Z" fill="#000000" fill-rule="nonzero" fill-opacity="1" /><path clip-path="url(#clip860)" d="M62.9365 792.645 Q59.3254 792.645 57.4967 796.209 Q55.6912 799.751 55.6912 806.881 Q55.6912 813.987 57.4967 817.552 Q59.3254 821.094 62.9365 821.094 Q66.5707 821.094 68.3763 817.552 Q70.205 813.987 70.205 806.881 Q70.205 799.751 68.3763 796.209 Q66.5707 792.645 62.9365 792.645 M62.9365 788.941 Q68.7467 788.941 71.8022 793.547 Q74.8809 798.131 74.8809 806.881 Q74.8809 815.608 71.8022 820.214 Q68.7467 824.797 62.9365 824.797 Q57.1264 824.797 54.0477 820.214 Q50.9921 815.608 50.9921 806.881 Q50.9921 798.131 54.0477 793.547 Q57.1264 788.941 62.9365 788.941 Z" fill="#000000" fill-rule="nonzero" fill-opacity="1" /><path clip-path="url(#clip860)" d="M83.0984 818.246 L87.9827 818.246 L87.9827 824.126 L83.0984 824.126 L83.0984 818.246 Z" fill="#000000" fill-rule="nonzero" fill-opacity="1" /><path clip-path="url(#clip860)" d="M98.2141 789.566 L116.57 789.566 L116.57 793.501 L102.496 793.501 L102.496 801.973 Q103.515 801.626 104.534 801.464 Q105.552 801.279 106.571 801.279 Q112.358 801.279 115.737 804.45 Q119.117 807.621 119.117 813.038 Q119.117 818.617 115.645 821.719 Q112.172 824.797 105.853 824.797 Q103.677 824.797 101.409 824.427 Q99.1632 824.057 96.7558 823.316 L96.7558 818.617 Q98.8391 819.751 101.061 820.307 Q103.284 820.862 105.76 820.862 Q109.765 820.862 112.103 818.756 Q114.441 816.649 114.441 813.038 Q114.441 809.427 112.103 807.321 Q109.765 805.214 105.76 805.214 Q103.885 805.214 102.01 805.631 Q100.159 806.047 98.2141 806.927 L98.2141 789.566 Z" fill="#000000" fill-rule="nonzero" fill-opacity="1" /><path clip-path="url(#clip860)" d="M138.33 792.645 Q134.719 792.645 132.89 796.209 Q131.084 799.751 131.084 806.881 Q131.084 813.987 132.89 817.552 Q134.719 821.094 138.33 821.094 Q141.964 821.094 143.769 817.552 Q145.598 813.987 145.598 806.881 Q145.598 799.751 143.769 796.209 Q141.964 792.645 138.33 792.645 M138.33 788.941 Q144.14 788.941 147.195 793.547 Q150.274 798.131 150.274 806.881 Q150.274 815.608 147.195 820.214 Q144.14 824.797 138.33 824.797 Q132.519 824.797 129.441 820.214 Q126.385 815.608 126.385 806.881 Q126.385 798.131 129.441 793.547 Q132.519 788.941 138.33 788.941 Z" fill="#000000" fill-rule="nonzero" fill-opacity="1" /><path clip-path="url(#clip860)" d="M63.9319 472.078 Q60.3208 472.078 58.4921 475.643 Q56.6865 479.184 56.6865 486.314 Q56.6865 493.42 58.4921 496.985 Q60.3208 500.527 63.9319 500.527 Q67.5661 500.527 69.3717 496.985 Q71.2004 493.42 71.2004 486.314 Q71.2004 479.184 69.3717 475.643 Q67.5661 472.078 63.9319 472.078 M63.9319 468.374 Q69.742 468.374 72.7976 472.981 Q75.8763 477.564 75.8763 486.314 Q75.8763 495.041 72.7976 499.647 Q69.742 504.23 63.9319 504.23 Q58.1217 504.23 55.043 499.647 Q51.9875 495.041 51.9875 486.314 Q51.9875 477.564 55.043 472.981 Q58.1217 468.374 63.9319 468.374 Z" fill="#000000" fill-rule="nonzero" fill-opacity="1" /><path clip-path="url(#clip860)" d="M84.0938 497.679 L88.978 497.679 L88.978 503.559 L84.0938 503.559 L84.0938 497.679 Z" fill="#000000" fill-rule="nonzero" fill-opacity="1" /><path clip-path="url(#clip860)" d="M97.9826 468.999 L120.205 468.999 L120.205 470.99 L107.658 503.559 L102.774 503.559 L114.58 472.934 L97.9826 472.934 L97.9826 468.999 Z" fill="#000000" fill-rule="nonzero" fill-opacity="1" /><path clip-path="url(#clip860)" d="M129.371 468.999 L147.728 468.999 L147.728 472.934 L133.654 472.934 L133.654 481.406 Q134.672 481.059 135.691 480.897 Q136.709 480.712 137.728 480.712 Q143.515 480.712 146.894 483.883 Q150.274 487.055 150.274 492.471 Q150.274 498.05 146.802 501.152 Q143.33 504.23 137.01 504.23 Q134.834 504.23 132.566 503.86 Q130.32 503.49 127.913 502.749 L127.913 498.05 Q129.996 499.184 132.219 499.74 Q134.441 500.295 136.918 500.295 Q140.922 500.295 143.26 498.189 Q145.598 496.082 145.598 492.471 Q145.598 488.86 143.26 486.754 Q140.922 484.647 136.918 484.647 Q135.043 484.647 133.168 485.064 Q131.316 485.48 129.371 486.36 L129.371 468.999 Z" fill="#000000" fill-rule="nonzero" fill-opacity="1" /><path clip-path="url(#clip860)" d="M53.7467 179.057 L61.3856 179.057 L61.3856 152.691 L53.0754 154.358 L53.0754 150.099 L61.3393 148.432 L66.0152 148.432 L66.0152 179.057 L73.654 179.057 L73.654 182.992 L53.7467 182.992 L53.7467 179.057 Z" fill="#000000" fill-rule="nonzero" fill-opacity="1" /><path clip-path="url(#clip860)" d="M83.0984 177.113 L87.9827 177.113 L87.9827 182.992 L83.0984 182.992 L83.0984 177.113 Z" fill="#000000" fill-rule="nonzero" fill-opacity="1" /><path clip-path="url(#clip860)" d="M108.168 151.511 Q104.557 151.511 102.728 155.076 Q100.922 158.617 100.922 165.747 Q100.922 172.853 102.728 176.418 Q104.557 179.96 108.168 179.96 Q111.802 179.96 113.608 176.418 Q115.436 172.853 115.436 165.747 Q115.436 158.617 113.608 155.076 Q111.802 151.511 108.168 151.511 M108.168 147.807 Q113.978 147.807 117.033 152.414 Q120.112 156.997 120.112 165.747 Q120.112 174.474 117.033 179.08 Q113.978 183.663 108.168 183.663 Q102.358 183.663 99.2789 179.08 Q96.2234 174.474 96.2234 165.747 Q96.2234 156.997 99.2789 152.414 Q102.358 147.807 108.168 147.807 Z" fill="#000000" fill-rule="nonzero" fill-opacity="1" /><path clip-path="url(#clip860)" d="M138.33 151.511 Q134.719 151.511 132.89 155.076 Q131.084 158.617 131.084 165.747 Q131.084 172.853 132.89 176.418 Q134.719 179.96 138.33 179.96 Q141.964 179.96 143.769 176.418 Q145.598 172.853 145.598 165.747 Q145.598 158.617 143.769 155.076 Q141.964 151.511 138.33 151.511 M138.33 147.807 Q144.14 147.807 147.195 152.414 Q150.274 156.997 150.274 165.747 Q150.274 174.474 147.195 179.08 Q144.14 183.663 138.33 183.663 Q132.519 183.663 129.441 179.08 Q126.385 174.474 126.385 165.747 Q126.385 156.997 129.441 152.414 Q132.519 147.807 138.33 147.807 Z" fill="#000000" fill-rule="nonzero" fill-opacity="1" /><polyline clip-path="url(#clip862)" style="stroke:#009af9; stroke-linecap:round; stroke-linejoin:round; stroke-width:4; stroke-opacity:1; fill:none" points="247.59,165.712 250.916,165.788 254.243,166.014 257.569,166.391 260.896,166.919 276.276,171.313 291.656,178.89 307.036,189.592 322.415,203.341 337.795,220.033 353.175,239.547 368.555,261.74 383.935,286.452 393.177,302.442 402.42,319.238 411.663,336.799 420.905,355.08 439.391,393.624 457.876,434.499 473.505,470.597 489.134,507.855 504.763,546.039 520.392,584.919 554.347,670.702 588.302,756.493 619.606,833.881 650.909,908.264 667.69,946.512 684.47,983.444 701.25,1018.94 718.031,1052.91 737.472,1090.27 756.914,1125.39 776.356,1158.23 795.798,1188.77 813.075,1213.99 830.353,1237.43 847.63,1259.12 864.908,1279.11 880.058,1295.29 895.209,1310.26 910.36,1324.06 925.511,1336.75 942.029,1349.39 958.548,1360.84 975.066,1371.19 991.585,1380.5 1008.2,1388.91 1024.82,1396.42 1041.43,1403.1 1058.05,1409.04 1094.79,1419.81 1131.54,1427.9 1166.5,1433.62 1201.46,1437.84 1274.16,1443.27 1335.36,1445.61 1410.08,1447.01 1478.52,1447.57 1541.74,1447.81 1605.77,1447.91 1677.54,1447.96 1742.57,1447.97 1817.03,1447.98 1885.97,1447.98 1953.93,1447.98 2019.92,1447.98 2087.57,1447.98 2161.69,1447.98 2269.35,1447.98 2291.44,1447.98 "/>
<polyline clip-path="url(#clip862)" style="stroke:#e26f46; stroke-linecap:round; stroke-linejoin:round; stroke-width:4; stroke-opacity:1; fill:none" points="247.59,1443.02 254.243,1442.65 260.896,1442.26 322.415,1437.13 383.935,1428.21 420.905,1420.17 457.876,1409.43 489.134,1397.75 520.392,1383.2 537.37,1373.92 554.347,1363.58 571.325,1352.09 588.302,1339.37 603.954,1326.48 619.606,1312.42 635.258,1297.12 650.909,1280.53 667.69,1261.26 684.47,1240.39 701.25,1217.88 718.031,1193.69 737.472,1163.54 756.914,1131.08 776.356,1096.34 795.798,1059.36 813.075,1024.68 830.353,988.358 847.63,950.505 864.908,911.243 895.209,839.437 925.511,764.734 958.548,681.38 991.585,597.788 1008.2,556.281 1024.82,515.49 1041.43,475.694 1058.05,437.174 1076.42,396.407 1094.79,357.919 1113.17,322.071 1131.54,289.214 1140.28,274.728 1149.02,261.025 1157.76,248.138 1166.5,236.097 1175.24,224.929 1183.98,214.661 1192.72,205.317 1201.46,196.919 1210.55,189.213 1219.63,182.572 1228.72,177.013 1237.81,172.55 1246.9,169.197 1255.99,166.96 1265.07,165.847 1274.16,165.859 1289.46,168.423 1304.76,174.158 1312.41,178.203 1320.06,183.022 1327.71,188.607 1335.36,194.949 1344.7,203.698 1354.04,213.532 1363.38,224.425 1372.72,236.347 1382.06,249.266 1391.4,263.147 1400.74,277.953 1410.08,293.647 1427.19,324.563 1444.3,358.052 1461.41,393.832 1478.52,431.609 1494.33,468.01 1510.13,505.616 1525.94,544.183 1541.74,583.472 1573.76,664.32 1605.77,745.314 1641.66,834.187 1677.54,919.114 1693.8,955.846 1710.06,991.312 1726.31,1025.41 1742.57,1058.07 1761.18,1093.59 1779.8,1127.06 1798.41,1158.44 1817.03,1187.72 1834.26,1212.95 1851.5,1236.4 1868.73,1258.12 1885.97,1278.15 1902.96,1296.29 1919.95,1312.91 1936.94,1328.08 1953.93,1341.87 1970.43,1354.02 1986.93,1365.01 2003.43,1374.94 2019.92,1383.86 2053.75,1399.33 2087.57,1411.52 2124.63,1421.76 2161.69,1429.4 2215.52,1437 2269.35,1441.69 2280.4,1442.39 2291.44,1443.02 "/>
<polyline clip-path="url(#clip862)" style="stroke:#3da44d; stroke-linecap:round; stroke-linejoin:round; stroke-width:4; stroke-opacity:1; fill:none" points="247.59,1447.98 260.896,1447.98 383.935,1447.98 457.876,1447.98 520.392,1447.98 588.302,1447.98 650.909,1447.98 718.031,1447.98 795.798,1447.97 864.908,1447.95 925.511,1447.92 991.585,1447.82 1058.05,1447.59 1131.54,1446.98 1201.46,1445.67 1274.16,1442.77 1335.36,1438.07 1372.72,1433.59 1410.08,1427.41 1444.3,1419.8 1478.52,1409.85 1510.13,1398.13 1541.74,1383.5 1557.75,1374.81 1573.76,1365.19 1589.77,1354.55 1605.77,1342.83 1623.72,1328.33 1641.66,1312.3 1659.6,1294.65 1677.54,1275.29 1693.8,1256.21 1710.06,1235.62 1726.31,1213.49 1742.57,1189.77 1761.18,1160.65 1779.8,1129.42 1798.41,1096.1 1817.03,1060.72 1834.26,1026.19 1851.5,990.034 1868.73,952.344 1885.97,913.243 1902.96,873.457 1919.95,832.603 1936.94,790.866 1953.93,748.45 1986.93,665.007 2019.92,581.703 2036.83,539.712 2053.75,498.58 2070.66,458.601 2087.57,420.071 2106.1,379.87 2124.63,342.143 2133.89,324.323 2143.16,307.258 2152.42,290.991 2161.69,275.563 2175.14,254.727 2188.6,235.859 2202.06,219.063 2215.52,204.433 2228.98,192.052 2242.44,181.989 2255.89,174.302 2269.35,169.036 2274.87,167.583 2280.4,166.544 2285.92,165.92 2291.44,165.712 "/>
<path clip-path="url(#clip860)" d="M258.49 379.911 L686.318 379.911 L686.318 172.551 L258.49 172.551  Z" fill="#ffffff" fill-rule="evenodd" fill-opacity="1"/>
<polyline clip-path="url(#clip860)" style="stroke:#000000; stroke-linecap:round; stroke-linejoin:round; stroke-width:4; stroke-opacity:1; fill:none" points="258.49,379.911 686.318,379.911 686.318,172.551 258.49,172.551 258.49,379.911 "/>
<polyline clip-path="url(#clip860)" style="stroke:#009af9; stroke-linecap:round; stroke-linejoin:round; stroke-width:4; stroke-opacity:1; fill:none" points="282.562,224.391 426.994,224.391 "/>
<path clip-path="url(#clip860)" d="M455.349 237.782 L455.349 251.532 L451.066 251.532 L451.066 215.745 L455.349 215.745 L455.349 219.68 Q456.691 217.365 458.728 216.254 Q460.788 215.12 463.636 215.12 Q468.358 215.12 471.298 218.87 Q474.261 222.62 474.261 228.731 Q474.261 234.842 471.298 238.592 Q468.358 242.342 463.636 242.342 Q460.788 242.342 458.728 241.231 Q456.691 240.097 455.349 237.782 M469.839 228.731 Q469.839 224.032 467.895 221.37 Q465.974 218.685 462.594 218.685 Q459.214 218.685 457.27 221.37 Q455.349 224.032 455.349 228.731 Q455.349 233.43 457.27 236.115 Q459.214 238.777 462.594 238.777 Q465.974 238.777 467.895 236.115 Q469.839 233.43 469.839 228.731 Z" fill="#000000" fill-rule="nonzero" fill-opacity="1" /><path clip-path="url(#clip860)" d="M491.367 218.731 Q487.941 218.731 485.95 221.416 Q483.96 224.078 483.96 228.731 Q483.96 233.384 485.927 236.069 Q487.918 238.731 491.367 238.731 Q494.77 238.731 496.76 236.046 Q498.751 233.361 498.751 228.731 Q498.751 224.125 496.76 221.44 Q494.77 218.731 491.367 218.731 M491.367 215.12 Q496.922 215.12 500.094 218.731 Q503.265 222.342 503.265 228.731 Q503.265 235.097 500.094 238.731 Q496.922 242.342 491.367 242.342 Q485.788 242.342 482.617 238.731 Q479.469 235.097 479.469 228.731 Q479.469 222.342 482.617 218.731 Q485.788 215.12 491.367 215.12 Z" fill="#000000" fill-rule="nonzero" fill-opacity="1" /><path clip-path="url(#clip860)" d="M520.371 218.731 Q516.946 218.731 514.955 221.416 Q512.964 224.078 512.964 228.731 Q512.964 233.384 514.932 236.069 Q516.922 238.731 520.371 238.731 Q523.774 238.731 525.765 236.046 Q527.756 233.361 527.756 228.731 Q527.756 224.125 525.765 221.44 Q523.774 218.731 520.371 218.731 M520.371 215.12 Q525.927 215.12 529.098 218.731 Q532.27 222.342 532.27 228.731 Q532.27 235.097 529.098 238.731 Q525.927 242.342 520.371 242.342 Q514.793 242.342 511.621 238.731 Q508.473 235.097 508.473 228.731 Q508.473 222.342 511.621 218.731 Q514.793 215.12 520.371 215.12 Z" fill="#000000" fill-rule="nonzero" fill-opacity="1" /><path clip-path="url(#clip860)" d="M554.353 219.727 Q553.635 219.31 552.779 219.125 Q551.945 218.916 550.927 218.916 Q547.316 218.916 545.371 221.277 Q543.45 223.615 543.45 228.014 L543.45 241.671 L539.168 241.671 L539.168 215.745 L543.45 215.745 L543.45 219.773 Q544.793 217.412 546.945 216.278 Q549.098 215.12 552.177 215.12 Q552.617 215.12 553.149 215.19 Q553.681 215.236 554.33 215.352 L554.353 219.727 Z" fill="#000000" fill-rule="nonzero" fill-opacity="1" /><polyline clip-path="url(#clip860)" style="stroke:#e26f46; stroke-linecap:round; stroke-linejoin:round; stroke-width:4; stroke-opacity:1; fill:none" points="282.562,276.231 426.994,276.231 "/>
<path clip-path="url(#clip860)" d="M469.978 280.247 Q469.978 275.617 468.057 273.071 Q466.159 270.525 462.71 270.525 Q459.284 270.525 457.362 273.071 Q455.464 275.617 455.464 280.247 Q455.464 284.854 457.362 287.4 Q459.284 289.946 462.71 289.946 Q466.159 289.946 468.057 287.4 Q469.978 284.854 469.978 280.247 M474.237 290.293 Q474.237 296.914 471.298 300.131 Q468.358 303.372 462.293 303.372 Q460.048 303.372 458.057 303.025 Q456.066 302.701 454.191 302.006 L454.191 297.863 Q456.066 298.881 457.895 299.367 Q459.724 299.853 461.622 299.853 Q465.812 299.853 467.895 297.654 Q469.978 295.478 469.978 291.057 L469.978 288.951 Q468.659 291.242 466.599 292.377 Q464.538 293.511 461.668 293.511 Q456.9 293.511 453.983 289.877 Q451.066 286.242 451.066 280.247 Q451.066 274.229 453.983 270.594 Q456.9 266.96 461.668 266.96 Q464.538 266.96 466.599 268.094 Q468.659 269.229 469.978 271.52 L469.978 267.585 L474.237 267.585 L474.237 290.293 Z" fill="#000000" fill-rule="nonzero" fill-opacity="1" /><path clip-path="url(#clip860)" d="M493.057 270.571 Q489.631 270.571 487.64 273.256 Q485.649 275.918 485.649 280.571 Q485.649 285.224 487.617 287.909 Q489.608 290.571 493.057 290.571 Q496.46 290.571 498.45 287.886 Q500.441 285.201 500.441 280.571 Q500.441 275.965 498.45 273.28 Q496.46 270.571 493.057 270.571 M493.057 266.96 Q498.612 266.96 501.784 270.571 Q504.955 274.182 504.955 280.571 Q504.955 286.937 501.784 290.571 Q498.612 294.182 493.057 294.182 Q487.478 294.182 484.307 290.571 Q481.159 286.937 481.159 280.571 Q481.159 274.182 484.307 270.571 Q487.478 266.96 493.057 266.96 Z" fill="#000000" fill-rule="nonzero" fill-opacity="1" /><path clip-path="url(#clip860)" d="M522.061 270.571 Q518.635 270.571 516.645 273.256 Q514.654 275.918 514.654 280.571 Q514.654 285.224 516.621 287.909 Q518.612 290.571 522.061 290.571 Q525.464 290.571 527.455 287.886 Q529.445 285.201 529.445 280.571 Q529.445 275.965 527.455 273.28 Q525.464 270.571 522.061 270.571 M522.061 266.96 Q527.617 266.96 530.788 270.571 Q533.959 274.182 533.959 280.571 Q533.959 286.937 530.788 290.571 Q527.617 294.182 522.061 294.182 Q516.483 294.182 513.311 290.571 Q510.163 286.937 510.163 280.571 Q510.163 274.182 513.311 270.571 Q516.483 266.96 522.061 266.96 Z" fill="#000000" fill-rule="nonzero" fill-opacity="1" /><path clip-path="url(#clip860)" d="M558.08 271.52 L558.08 257.493 L562.339 257.493 L562.339 293.511 L558.08 293.511 L558.08 289.622 Q556.737 291.937 554.677 293.071 Q552.64 294.182 549.769 294.182 Q545.07 294.182 542.107 290.432 Q539.168 286.682 539.168 280.571 Q539.168 274.46 542.107 270.71 Q545.07 266.96 549.769 266.96 Q552.64 266.96 554.677 268.094 Q556.737 269.205 558.08 271.52 M543.566 280.571 Q543.566 285.27 545.487 287.955 Q547.431 290.617 550.811 290.617 Q554.191 290.617 556.135 287.955 Q558.08 285.27 558.08 280.571 Q558.08 275.872 556.135 273.21 Q554.191 270.525 550.811 270.525 Q547.431 270.525 545.487 273.21 Q543.566 275.872 543.566 280.571 Z" fill="#000000" fill-rule="nonzero" fill-opacity="1" /><polyline clip-path="url(#clip860)" style="stroke:#3da44d; stroke-linecap:round; stroke-linejoin:round; stroke-width:4; stroke-opacity:1; fill:none" points="282.562,328.071 426.994,328.071 "/>
<path clip-path="url(#clip860)" d="M475.094 331.323 L475.094 333.407 L455.511 333.407 Q455.788 337.805 458.15 340.119 Q460.534 342.411 464.77 342.411 Q467.224 342.411 469.515 341.809 Q471.83 341.207 474.099 340.004 L474.099 344.031 Q471.807 345.004 469.399 345.513 Q466.992 346.022 464.515 346.022 Q458.312 346.022 454.677 342.411 Q451.066 338.8 451.066 332.643 Q451.066 326.277 454.492 322.55 Q457.941 318.8 463.774 318.8 Q469.006 318.8 472.038 322.18 Q475.094 325.536 475.094 331.323 M470.835 330.073 Q470.788 326.578 468.867 324.495 Q466.969 322.411 463.821 322.411 Q460.256 322.411 458.103 324.425 Q455.974 326.439 455.65 330.096 L470.835 330.073 Z" fill="#000000" fill-rule="nonzero" fill-opacity="1" /><path clip-path="url(#clip860)" d="M502.802 319.425 L493.427 332.041 L503.288 345.351 L498.265 345.351 L490.719 335.166 L483.173 345.351 L478.149 345.351 L488.219 331.786 L479.006 319.425 L484.029 319.425 L490.904 328.661 L497.779 319.425 L502.802 319.425 Z" fill="#000000" fill-rule="nonzero" fill-opacity="1" /><path clip-path="url(#clip860)" d="M527.131 320.42 L527.131 324.402 Q525.325 323.407 523.496 322.92 Q521.691 322.411 519.839 322.411 Q515.696 322.411 513.404 325.05 Q511.112 327.666 511.112 332.411 Q511.112 337.156 513.404 339.795 Q515.696 342.411 519.839 342.411 Q521.691 342.411 523.496 341.925 Q525.325 341.416 527.131 340.42 L527.131 344.356 Q525.348 345.189 523.427 345.606 Q521.529 346.022 519.376 346.022 Q513.52 346.022 510.071 342.342 Q506.621 338.661 506.621 332.411 Q506.621 326.069 510.094 322.434 Q513.589 318.8 519.654 318.8 Q521.621 318.8 523.496 319.217 Q525.371 319.61 527.131 320.42 Z" fill="#000000" fill-rule="nonzero" fill-opacity="1" /><path clip-path="url(#clip860)" d="M556.714 331.323 L556.714 333.407 L537.131 333.407 Q537.408 337.805 539.769 340.119 Q542.154 342.411 546.39 342.411 Q548.843 342.411 551.135 341.809 Q553.45 341.207 555.718 340.004 L555.718 344.031 Q553.427 345.004 551.019 345.513 Q548.612 346.022 546.135 346.022 Q539.931 346.022 536.297 342.411 Q532.686 338.8 532.686 332.643 Q532.686 326.277 536.112 322.55 Q539.561 318.8 545.394 318.8 Q550.626 318.8 553.658 322.18 Q556.714 325.536 556.714 331.323 M552.455 330.073 Q552.408 326.578 550.487 324.495 Q548.589 322.411 545.441 322.411 Q541.876 322.411 539.723 324.425 Q537.594 326.439 537.269 330.096 L552.455 330.073 Z" fill="#000000" fill-rule="nonzero" fill-opacity="1" /><path clip-path="url(#clip860)" d="M563.705 309.333 L567.964 309.333 L567.964 345.351 L563.705 345.351 L563.705 309.333 Z" fill="#000000" fill-rule="nonzero" fill-opacity="1" /><path clip-path="url(#clip860)" d="M576.876 309.333 L581.135 309.333 L581.135 345.351 L576.876 345.351 L576.876 309.333 Z" fill="#000000" fill-rule="nonzero" fill-opacity="1" /><path clip-path="url(#clip860)" d="M612.223 331.323 L612.223 333.407 L592.64 333.407 Q592.917 337.805 595.278 340.119 Q597.663 342.411 601.899 342.411 Q604.352 342.411 606.644 341.809 Q608.959 341.207 611.227 340.004 L611.227 344.031 Q608.936 345.004 606.528 345.513 Q604.121 346.022 601.644 346.022 Q595.44 346.022 591.806 342.411 Q588.195 338.8 588.195 332.643 Q588.195 326.277 591.621 322.55 Q595.07 318.8 600.903 318.8 Q606.135 318.8 609.167 322.18 Q612.223 325.536 612.223 331.323 M607.964 330.073 Q607.917 326.578 605.996 324.495 Q604.098 322.411 600.95 322.411 Q597.385 322.411 595.232 324.425 Q593.103 326.439 592.778 330.096 L607.964 330.073 Z" fill="#000000" fill-rule="nonzero" fill-opacity="1" /><path clip-path="url(#clip860)" d="M640.764 329.703 L640.764 345.351 L636.505 345.351 L636.505 329.842 Q636.505 326.161 635.07 324.332 Q633.635 322.504 630.764 322.504 Q627.315 322.504 625.325 324.703 Q623.334 326.902 623.334 330.698 L623.334 345.351 L619.051 345.351 L619.051 319.425 L623.334 319.425 L623.334 323.453 Q624.862 321.115 626.922 319.958 Q629.005 318.8 631.713 318.8 Q636.181 318.8 638.473 321.578 Q640.764 324.332 640.764 329.703 Z" fill="#000000" fill-rule="nonzero" fill-opacity="1" /><path clip-path="url(#clip860)" d="M653.473 312.064 L653.473 319.425 L662.246 319.425 L662.246 322.735 L653.473 322.735 L653.473 336.809 Q653.473 339.981 654.329 340.883 Q655.209 341.786 657.871 341.786 L662.246 341.786 L662.246 345.351 L657.871 345.351 Q652.94 345.351 651.065 343.522 Q649.19 341.67 649.19 336.809 L649.19 322.735 L646.065 322.735 L646.065 319.425 L649.19 319.425 L649.19 312.064 L653.473 312.064 Z" fill="#000000" fill-rule="nonzero" fill-opacity="1" /><path clip-path="url(#clip860)" d="M186.274 80 L2352.76 80 L2352.76 0 L186.274 0  Z" fill="#ffffff" fill-rule="evenodd" fill-opacity="1"/>
<defs>
  <clipPath id="clip863">
    <rect x="186" y="0" width="2167" height="81"/>
  </clipPath>
</defs>
<path clip-path="url(#clip860)" d="M1141.65 32.6202 L1141.65 40.6757 Q1138.03 38.8239 1134.15 37.8979 Q1130.26 36.972 1126.09 36.972 Q1119.75 36.972 1116.55 38.9165 Q1113.4 40.8609 1113.4 44.7498 Q1113.4 47.7127 1115.67 49.4257 Q1117.94 51.0923 1124.79 52.6201 L1127.71 53.2682 Q1136.78 55.2127 1140.58 58.7775 Q1144.42 62.296 1144.42 68.6385 Q1144.42 75.8607 1138.68 80.0736 Q1132.99 84.2866 1122.99 84.2866 Q1118.82 84.2866 1114.28 83.4533 Q1109.79 82.6662 1104.79 81.0459 L1104.79 72.2496 Q1109.52 74.7033 1114.1 75.9533 Q1118.68 77.157 1123.17 77.157 Q1129.19 77.157 1132.43 75.12 Q1135.67 73.0366 1135.67 69.2867 Q1135.67 65.8145 1133.31 63.9626 Q1131 62.1108 1123.08 60.3978 L1120.12 59.7034 Q1112.2 58.0367 1108.68 54.6108 Q1105.16 51.1386 1105.16 45.1201 Q1105.16 37.8054 1110.35 33.8239 Q1115.53 29.8424 1125.07 29.8424 Q1129.79 29.8424 1133.96 30.5369 Q1138.13 31.2313 1141.65 32.6202 Z" fill="#000000" fill-rule="nonzero" fill-opacity="1" /><path clip-path="url(#clip860)" d="M1202.34 54.8886 L1202.34 59.0552 L1163.17 59.0552 Q1163.73 67.8515 1168.45 72.4811 Q1173.22 77.0644 1181.69 77.0644 Q1186.6 77.0644 1191.18 75.8607 Q1195.81 74.657 1200.35 72.2496 L1200.35 80.3051 Q1195.77 82.2496 1190.95 83.2681 Q1186.14 84.2866 1181.18 84.2866 Q1168.77 84.2866 1161.51 77.0644 Q1154.28 69.8422 1154.28 57.5275 Q1154.28 44.7961 1161.14 37.3424 Q1168.03 29.8424 1179.7 29.8424 Q1190.16 29.8424 1196.23 36.6017 Q1202.34 43.3146 1202.34 54.8886 M1193.82 52.3886 Q1193.73 45.3979 1189.89 41.2313 Q1186.09 37.0646 1179.79 37.0646 Q1172.66 37.0646 1168.36 41.0924 Q1164.1 45.1201 1163.45 52.4349 L1193.82 52.3886 Z" fill="#000000" fill-rule="nonzero" fill-opacity="1" /><path clip-path="url(#clip860)" d="M1246.37 39.0553 Q1244.93 38.222 1243.22 37.8516 Q1241.55 37.435 1239.52 37.435 Q1232.29 37.435 1228.4 42.1572 Q1224.56 46.8331 1224.56 55.6293 L1224.56 82.944 L1216 82.944 L1216 31.0924 L1224.56 31.0924 L1224.56 39.1479 Q1227.25 34.4257 1231.55 32.1572 Q1235.86 29.8424 1242.02 29.8424 Q1242.89 29.8424 1243.96 29.9813 Q1245.02 30.0739 1246.32 30.3054 L1246.37 39.0553 Z" fill="#000000" fill-rule="nonzero" fill-opacity="1" /><path clip-path="url(#clip860)" d="M1249.19 31.0924 L1258.22 31.0924 L1274.42 74.6107 L1290.63 31.0924 L1299.65 31.0924 L1280.21 82.944 L1268.64 82.944 L1249.19 31.0924 Z" fill="#000000" fill-rule="nonzero" fill-opacity="1" /><path clip-path="url(#clip860)" d="M1311.41 31.0924 L1319.93 31.0924 L1319.93 82.944 L1311.41 82.944 L1311.41 31.0924 M1311.41 10.9073 L1319.93 10.9073 L1319.93 21.6943 L1311.41 21.6943 L1311.41 10.9073 Z" fill="#000000" fill-rule="nonzero" fill-opacity="1" /><path clip-path="url(#clip860)" d="M1375.07 33.0832 L1375.07 41.0461 Q1371.46 39.0553 1367.8 38.0831 Q1364.19 37.0646 1360.49 37.0646 Q1352.2 37.0646 1347.62 42.3424 Q1343.03 47.5738 1343.03 57.0645 Q1343.03 66.5552 1347.62 71.8329 Q1352.2 77.0644 1360.49 77.0644 Q1364.19 77.0644 1367.8 76.0922 Q1371.46 75.0737 1375.07 73.0829 L1375.07 80.9533 Q1371.51 82.6199 1367.66 83.4533 Q1363.87 84.2866 1359.56 84.2866 Q1347.85 84.2866 1340.95 76.9255 Q1334.05 69.5644 1334.05 57.0645 Q1334.05 44.3794 1341 37.1109 Q1347.99 29.8424 1360.12 29.8424 Q1364.05 29.8424 1367.8 30.6758 Q1371.55 31.4628 1375.07 33.0832 Z" fill="#000000" fill-rule="nonzero" fill-opacity="1" /><path clip-path="url(#clip860)" d="M1434.24 54.8886 L1434.24 59.0552 L1395.07 59.0552 Q1395.63 67.8515 1400.35 72.4811 Q1405.12 77.0644 1413.59 77.0644 Q1418.5 77.0644 1423.08 75.8607 Q1427.71 74.657 1432.25 72.2496 L1432.25 80.3051 Q1427.66 82.2496 1422.85 83.2681 Q1418.03 84.2866 1413.08 84.2866 Q1400.67 84.2866 1393.4 77.0644 Q1386.18 69.8422 1386.18 57.5275 Q1386.18 44.7961 1393.03 37.3424 Q1399.93 29.8424 1411.6 29.8424 Q1422.06 29.8424 1428.13 36.6017 Q1434.24 43.3146 1434.24 54.8886 M1425.72 52.3886 Q1425.63 45.3979 1421.78 41.2313 Q1417.99 37.0646 1411.69 37.0646 Q1404.56 37.0646 1400.25 41.0924 Q1396 45.1201 1395.35 52.4349 L1425.72 52.3886 Z" fill="#000000" fill-rule="nonzero" fill-opacity="1" /></svg>
