<?xml version="1.0" encoding="utf-8"?>
<svg xmlns="http://www.w3.org/2000/svg" xmlns:xlink="http://www.w3.org/1999/xlink" width="600" height="400" viewBox="0 0 2400 1600">
<defs>
  <clipPath id="clip560">
    <rect x="0" y="0" width="2400" height="1600"/>
  </clipPath>
</defs>
<path clip-path="url(#clip560)" d="M0 1600 L2400 1600 L2400 0 L0 0  Z" fill="#ffffff" fill-rule="evenodd" fill-opacity="1"/>
<defs>
  <clipPath id="clip561">
    <rect x="480" y="0" width="1681" height="1600"/>
  </clipPath>
</defs>
<path clip-path="url(#clip560)" d="M186.274 1486.45 L2352.76 1486.45 L2352.76 47.2441 L186.274 47.2441  Z" fill="#ffffff" fill-rule="evenodd" fill-opacity="1"/>
<defs>
  <clipPath id="clip562">
    <rect x="186" y="47" width="2167" height="1440"/>
  </clipPath>
</defs>
<polyline clip-path="url(#clip562)" style="stroke:#000000; stroke-linecap:round; stroke-linejoin:round; stroke-width:2; stroke-opacity:0.1; fill:none" points="247.59,1486.45 247.59,47.2441 "/>
<polyline clip-path="url(#clip562)" style="stroke:#000000; stroke-linecap:round; stroke-linejoin:round; stroke-width:2; stroke-opacity:0.1; fill:none" points="758.552,1486.45 758.552,47.2441 "/>
<polyline clip-path="url(#clip562)" style="stroke:#000000; stroke-linecap:round; stroke-linejoin:round; stroke-width:2; stroke-opacity:0.1; fill:none" points="1269.51,1486.45 1269.51,47.2441 "/>
<polyline clip-path="url(#clip562)" style="stroke:#000000; stroke-linecap:round; stroke-linejoin:round; stroke-width:2; stroke-opacity:0.1; fill:none" points="1780.48,1486.45 1780.48,47.2441 "/>
<polyline clip-path="url(#clip562)" style="stroke:#000000; stroke-linecap:round; stroke-linejoin:round; stroke-width:2; stroke-opacity:0.1; fill:none" points="2291.44,1486.45 2291.44,47.2441 "/>
<polyline clip-path="url(#clip562)" style="stroke:#000000; stroke-linecap:round; stroke-linejoin:round; stroke-width:2; stroke-opacity:0.1; fill:none" points="186.274,1445.72 2352.76,1445.72 "/>
<polyline clip-path="url(#clip562)" style="stroke:#000000; stroke-linecap:round; stroke-linejoin:round; stroke-width:2; stroke-opacity:0.1; fill:none" points="186.274,1106.24 2352.76,1106.24 "/>
<polyline clip-path="url(#clip562)" style="stroke:#000000; stroke-linecap:round; stroke-linejoin:round; stroke-width:2; stroke-opacity:0.1; fill:none" points="186.274,766.761 2352.76,766.761 "/>
<polyline clip-path="url(#clip562)" style="stroke:#000000; stroke-linecap:round; stroke-linejoin:round; stroke-width:2; stroke-opacity:0.1; fill:none" points="186.274,427.284 2352.76,427.284 "/>
<polyline clip-path="url(#clip562)" style="stroke:#000000; stroke-linecap:round; stroke-linejoin:round; stroke-width:2; stroke-opacity:0.1; fill:none" points="186.274,87.8062 2352.76,87.8062 "/>
<polyline clip-path="url(#clip560)" style="stroke:#000000; stroke-linecap:round; stroke-linejoin:round; stroke-width:4; stroke-opacity:1; fill:none" points="186.274,1486.45 2352.76,1486.45 "/>
<polyline clip-path="url(#clip560)" style="stroke:#000000; stroke-linecap:round; stroke-linejoin:round; stroke-width:4; stroke-opacity:1; fill:none" points="247.59,1486.45 247.59,1467.55 "/>
<polyline clip-path="url(#clip560)" style="stroke:#000000; stroke-linecap:round; stroke-linejoin:round; stroke-width:4; stroke-opacity:1; fill:none" points="758.552,1486.45 758.552,1467.55 "/>
<polyline clip-path="url(#clip560)" style="stroke:#000000; stroke-linecap:round; stroke-linejoin:round; stroke-width:4; stroke-opacity:1; fill:none" points="1269.51,1486.45 1269.51,1467.55 "/>
<polyline clip-path="url(#clip560)" style="stroke:#000000; stroke-linecap:round; stroke-linejoin:round; stroke-width:4; stroke-opacity:1; fill:none" points="1780.48,1486.45 1780.48,1467.55 "/>
<polyline clip-path="url(#clip560)" style="stroke:#000000; stroke-linecap:round; stroke-linejoin:round; stroke-width:4; stroke-opacity:1; fill:none" points="2291.44,1486.45 2291.44,1467.55 "/>
<path clip-path="url(#clip560)" d="M224.974 1517.37 Q221.363 1517.37 219.534 1520.93 Q217.729 1524.47 217.729 1531.6 Q217.729 1538.71 219.534 1542.27 Q221.363 1545.82 224.974 1545.82 Q228.608 1545.82 230.414 1542.27 Q232.242 1538.71 232.242 1531.6 Q232.242 1524.47 230.414 1520.93 Q228.608 1517.37 224.974 1517.37 M224.974 1513.66 Q230.784 1513.66 233.84 1518.27 Q236.918 1522.85 236.918 1531.6 Q236.918 1540.33 233.84 1544.94 Q230.784 1549.52 224.974 1549.52 Q219.164 1549.52 216.085 1544.94 Q213.03 1540.33 213.03 1531.6 Q213.03 1522.85 216.085 1518.27 Q219.164 1513.66 224.974 1513.66 Z" fill="#000000" fill-rule="nonzero" fill-opacity="1" /><path clip-path="url(#clip560)" d="M245.136 1542.97 L250.02 1542.97 L250.02 1548.85 L245.136 1548.85 L245.136 1542.97 Z" fill="#000000" fill-rule="nonzero" fill-opacity="1" /><path clip-path="url(#clip560)" d="M270.205 1517.37 Q266.594 1517.37 264.765 1520.93 Q262.96 1524.47 262.96 1531.6 Q262.96 1538.71 264.765 1542.27 Q266.594 1545.82 270.205 1545.82 Q273.839 1545.82 275.645 1542.27 Q277.474 1538.71 277.474 1531.6 Q277.474 1524.47 275.645 1520.93 Q273.839 1517.37 270.205 1517.37 M270.205 1513.66 Q276.015 1513.66 279.071 1518.27 Q282.15 1522.85 282.15 1531.6 Q282.15 1540.33 279.071 1544.94 Q276.015 1549.52 270.205 1549.52 Q264.395 1549.52 261.316 1544.94 Q258.261 1540.33 258.261 1531.6 Q258.261 1522.85 261.316 1518.27 Q264.395 1513.66 270.205 1513.66 Z" fill="#000000" fill-rule="nonzero" fill-opacity="1" /><path clip-path="url(#clip560)" d="M730.289 1544.91 L746.608 1544.91 L746.608 1548.85 L724.664 1548.85 L724.664 1544.91 Q727.326 1542.16 731.909 1537.53 Q736.515 1532.88 737.696 1531.53 Q739.941 1529.01 740.821 1527.27 Q741.724 1525.51 741.724 1523.82 Q741.724 1521.07 739.779 1519.33 Q737.858 1517.6 734.756 1517.6 Q732.557 1517.6 730.103 1518.36 Q727.673 1519.13 724.895 1520.68 L724.895 1515.95 Q727.719 1514.82 730.173 1514.24 Q732.626 1513.66 734.663 1513.66 Q740.034 1513.66 743.228 1516.35 Q746.423 1519.03 746.423 1523.52 Q746.423 1525.65 745.612 1527.57 Q744.825 1529.47 742.719 1532.07 Q742.14 1532.74 739.038 1535.95 Q735.937 1539.15 730.289 1544.91 Z" fill="#000000" fill-rule="nonzero" fill-opacity="1" /><path clip-path="url(#clip560)" d="M756.423 1542.97 L761.307 1542.97 L761.307 1548.85 L756.423 1548.85 L756.423 1542.97 Z" fill="#000000" fill-rule="nonzero" fill-opacity="1" /><path clip-path="url(#clip560)" d="M771.538 1514.29 L789.895 1514.29 L789.895 1518.22 L775.821 1518.22 L775.821 1526.7 Q776.839 1526.35 777.858 1526.19 Q778.876 1526 779.895 1526 Q785.682 1526 789.061 1529.17 Q792.441 1532.34 792.441 1537.76 Q792.441 1543.34 788.969 1546.44 Q785.497 1549.52 779.177 1549.52 Q777.001 1549.52 774.733 1549.15 Q772.487 1548.78 770.08 1548.04 L770.08 1543.34 Q772.163 1544.47 774.385 1545.03 Q776.608 1545.58 779.085 1545.58 Q783.089 1545.58 785.427 1543.48 Q787.765 1541.37 787.765 1537.76 Q787.765 1534.15 785.427 1532.04 Q783.089 1529.94 779.085 1529.94 Q777.21 1529.94 775.335 1530.35 Q773.483 1530.77 771.538 1531.65 L771.538 1514.29 Z" fill="#000000" fill-rule="nonzero" fill-opacity="1" /><path clip-path="url(#clip560)" d="M1236.68 1514.29 L1255.04 1514.29 L1255.04 1518.22 L1240.96 1518.22 L1240.96 1526.7 Q1241.98 1526.35 1243 1526.19 Q1244.02 1526 1245.04 1526 Q1250.82 1526 1254.2 1529.17 Q1257.58 1532.34 1257.58 1537.76 Q1257.58 1543.34 1254.11 1546.44 Q1250.64 1549.52 1244.32 1549.52 Q1242.14 1549.52 1239.87 1549.15 Q1237.63 1548.78 1235.22 1548.04 L1235.22 1543.34 Q1237.3 1544.47 1239.53 1545.03 Q1241.75 1545.58 1244.23 1545.58 Q1248.23 1545.58 1250.57 1543.48 Q1252.91 1541.37 1252.91 1537.76 Q1252.91 1534.15 1250.57 1532.04 Q1248.23 1529.94 1244.23 1529.94 Q1242.35 1529.94 1240.48 1530.35 Q1238.62 1530.77 1236.68 1531.65 L1236.68 1514.29 Z" fill="#000000" fill-rule="nonzero" fill-opacity="1" /><path clip-path="url(#clip560)" d="M1266.8 1542.97 L1271.68 1542.97 L1271.68 1548.85 L1266.8 1548.85 L1266.8 1542.97 Z" fill="#000000" fill-rule="nonzero" fill-opacity="1" /><path clip-path="url(#clip560)" d="M1291.86 1517.37 Q1288.25 1517.37 1286.42 1520.93 Q1284.62 1524.47 1284.62 1531.6 Q1284.62 1538.71 1286.42 1542.27 Q1288.25 1545.82 1291.86 1545.82 Q1295.5 1545.82 1297.3 1542.27 Q1299.13 1538.71 1299.13 1531.6 Q1299.13 1524.47 1297.3 1520.93 Q1295.5 1517.37 1291.86 1517.37 M1291.86 1513.66 Q1297.67 1513.66 1300.73 1518.27 Q1303.81 1522.85 1303.81 1531.6 Q1303.81 1540.33 1300.73 1544.94 Q1297.67 1549.52 1291.86 1549.52 Q1286.05 1549.52 1282.98 1544.94 Q1279.92 1540.33 1279.92 1531.6 Q1279.92 1522.85 1282.98 1518.27 Q1286.05 1513.66 1291.86 1513.66 Z" fill="#000000" fill-rule="nonzero" fill-opacity="1" /><path clip-path="url(#clip560)" d="M1746.8 1514.29 L1769.02 1514.29 L1769.02 1516.28 L1756.47 1548.85 L1751.59 1548.85 L1763.39 1518.22 L1746.8 1518.22 L1746.8 1514.29 Z" fill="#000000" fill-rule="nonzero" fill-opacity="1" /><path clip-path="url(#clip560)" d="M1778.14 1542.97 L1783.02 1542.97 L1783.02 1548.85 L1778.14 1548.85 L1778.14 1542.97 Z" fill="#000000" fill-rule="nonzero" fill-opacity="1" /><path clip-path="url(#clip560)" d="M1793.26 1514.29 L1811.61 1514.29 L1811.61 1518.22 L1797.54 1518.22 L1797.54 1526.7 Q1798.56 1526.35 1799.57 1526.19 Q1800.59 1526 1801.61 1526 Q1807.4 1526 1810.78 1529.17 Q1814.16 1532.34 1814.16 1537.76 Q1814.16 1543.34 1810.69 1546.44 Q1807.21 1549.52 1800.89 1549.52 Q1798.72 1549.52 1796.45 1549.15 Q1794.2 1548.78 1791.8 1548.04 L1791.8 1543.34 Q1793.88 1544.47 1796.1 1545.03 Q1798.32 1545.58 1800.8 1545.58 Q1804.81 1545.58 1807.14 1543.48 Q1809.48 1541.37 1809.48 1537.76 Q1809.48 1534.15 1807.14 1532.04 Q1804.81 1529.94 1800.8 1529.94 Q1798.93 1529.94 1797.05 1530.35 Q1795.2 1530.77 1793.26 1531.65 L1793.26 1514.29 Z" fill="#000000" fill-rule="nonzero" fill-opacity="1" /><path clip-path="url(#clip560)" d="M2243.51 1544.91 L2251.15 1544.91 L2251.15 1518.55 L2242.84 1520.21 L2242.84 1515.95 L2251.1 1514.29 L2255.78 1514.29 L2255.78 1544.91 L2263.42 1544.91 L2263.42 1548.85 L2243.51 1548.85 L2243.51 1544.91 Z" fill="#000000" fill-rule="nonzero" fill-opacity="1" /><path clip-path="url(#clip560)" d="M2282.86 1517.37 Q2279.25 1517.37 2277.42 1520.93 Q2275.62 1524.47 2275.62 1531.6 Q2275.62 1538.71 2277.42 1542.27 Q2279.25 1545.82 2282.86 1545.82 Q2286.5 1545.82 2288.3 1542.27 Q2290.13 1538.71 2290.13 1531.6 Q2290.13 1524.47 2288.3 1520.93 Q2286.5 1517.37 2282.86 1517.37 M2282.86 1513.66 Q2288.67 1513.66 2291.73 1518.27 Q2294.81 1522.85 2294.81 1531.6 Q2294.81 1540.33 2291.73 1544.94 Q2288.67 1549.52 2282.86 1549.52 Q2277.05 1549.52 2273.98 1544.94 Q2270.92 1540.33 2270.92 1531.6 Q2270.92 1522.85 2273.98 1518.27 Q2277.05 1513.66 2282.86 1513.66 Z" fill="#000000" fill-rule="nonzero" fill-opacity="1" /><path clip-path="url(#clip560)" d="M2303.03 1542.97 L2307.91 1542.97 L2307.91 1548.85 L2303.03 1548.85 L2303.03 1542.97 Z" fill="#000000" fill-rule="nonzero" fill-opacity="1" /><path clip-path="url(#clip560)" d="M2328.1 1517.37 Q2324.48 1517.37 2322.66 1520.93 Q2320.85 1524.47 2320.85 1531.6 Q2320.85 1538.71 2322.66 1542.27 Q2324.48 1545.82 2328.1 1545.82 Q2331.73 1545.82 2333.54 1542.27 Q2335.36 1538.71 2335.36 1531.6 Q2335.36 1524.47 2333.54 1520.93 Q2331.73 1517.37 2328.1 1517.37 M2328.1 1513.66 Q2333.91 1513.66 2336.96 1518.27 Q2340.04 1522.85 2340.04 1531.6 Q2340.04 1540.33 2336.96 1544.94 Q2333.91 1549.52 2328.1 1549.52 Q2322.29 1549.52 2319.21 1544.94 Q2316.15 1540.33 2316.15 1531.6 Q2316.15 1522.85 2319.21 1518.27 Q2322.29 1513.66 2328.1 1513.66 Z" fill="#000000" fill-rule="nonzero" fill-opacity="1" /><polyline clip-path="url(#clip560)" style="stroke:#000000; stroke-linecap:round; stroke-linejoin:round; stroke-width:4; stroke-opacity:1; fill:none" points="186.274,1486.45 186.274,47.2441 "/>
<polyline clip-path="url(#clip560)" style="stroke:#000000; stroke-linecap:round; stroke-linejoin:round; stroke-width:4; stroke-opacity:1; fill:none" points="186.274,1445.72 205.172,1445.72 "/>
<polyline clip-path="url(#clip560)" style="stroke:#000000; stroke-linecap:round; stroke-linejoin:round; stroke-width:4; stroke-opacity:1; fill:none" points="186.274,1106.24 205.172,1106.24 "/>
<polyline clip-path="url(#clip560)" style="stroke:#000000; stroke-linecap:round; stroke-linejoin:round; stroke-width:4; stroke-opacity:1; fill:none" points="186.274,766.761 205.172,766.761 "/>
<polyline clip-path="url(#clip560)" style="stroke:#000000; stroke-linecap:round; stroke-linejoin:round; stroke-width:4; stroke-opacity:1; fill:none" points="186.274,427.284 205.172,427.284 "/>
<polyline clip-path="url(#clip560)" style="stroke:#000000; stroke-linecap:round; stroke-linejoin:round; stroke-width:4; stroke-opacity:1; fill:none" points="186.274,87.8062 205.172,87.8062 "/>
<path clip-path="url(#clip560)" d="M62.9365 1431.51 Q59.3254 1431.51 57.4967 1435.08 Q55.6912 1438.62 55.6912 1445.75 Q55.6912 1452.86 57.4967 1456.42 Q59.3254 1459.96 62.9365 1459.96 Q66.5707 1459.96 68.3763 1456.42 Q70.205 1452.86 70.205 1445.75 Q70.205 1438.62 68.3763 1435.08 Q66.5707 1431.51 62.9365 1431.51 M62.9365 1427.81 Q68.7467 1427.81 71.8022 1432.42 Q74.8809 1437 74.8809 1445.75 Q74.8809 1454.48 71.8022 1459.08 Q68.7467 1463.67 62.9365 1463.67 Q57.1264 1463.67 54.0477 1459.08 Q50.9921 1454.48 50.9921 1445.75 Q50.9921 1437 54.0477 1432.42 Q57.1264 1427.81 62.9365 1427.81 Z" fill="#000000" fill-rule="nonzero" fill-opacity="1" /><path clip-path="url(#clip560)" d="M83.0984 1457.12 L87.9827 1457.12 L87.9827 1463 L83.0984 1463 L83.0984 1457.12 Z" fill="#000000" fill-rule="nonzero" fill-opacity="1" /><path clip-path="url(#clip560)" d="M108.168 1431.51 Q104.557 1431.51 102.728 1435.08 Q100.922 1438.62 100.922 1445.75 Q100.922 1452.86 102.728 1456.42 Q104.557 1459.96 108.168 1459.96 Q111.802 1459.96 113.608 1456.42 Q115.436 1452.86 115.436 1445.75 Q115.436 1438.62 113.608 1435.08 Q111.802 1431.51 108.168 1431.51 M108.168 1427.81 Q113.978 1427.81 117.033 1432.42 Q120.112 1437 120.112 1445.75 Q120.112 1454.48 117.033 1459.08 Q113.978 1463.67 108.168 1463.67 Q102.358 1463.67 99.2789 1459.08 Q96.2234 1454.48 96.2234 1445.75 Q96.2234 1437 99.2789 1432.42 Q102.358 1427.81 108.168 1427.81 Z" fill="#000000" fill-rule="nonzero" fill-opacity="1" /><path clip-path="url(#clip560)" d="M138.33 1431.51 Q134.719 1431.51 132.89 1435.08 Q131.084 1438.62 131.084 1445.75 Q131.084 1452.86 132.89 1456.42 Q134.719 1459.96 138.33 1459.96 Q141.964 1459.96 143.769 1456.42 Q145.598 1452.86 145.598 1445.75 Q145.598 1438.62 143.769 1435.08 Q141.964 1431.51 138.33 1431.51 M138.33 1427.81 Q144.14 1427.81 147.195 1432.42 Q150.274 1437 150.274 1445.75 Q150.274 1454.48 147.195 1459.08 Q144.14 1463.67 138.33 1463.67 Q132.519 1463.67 129.441 1459.08 Q126.385 1454.48 126.385 1445.75 Q126.385 1437 129.441 1432.42 Q132.519 1427.81 138.33 1427.81 Z" fill="#000000" fill-rule="nonzero" fill-opacity="1" /><path clip-path="url(#clip560)" d="M63.9319 1092.04 Q60.3208 1092.04 58.4921 1095.6 Q56.6865 1099.14 56.6865 1106.27 Q56.6865 1113.38 58.4921 1116.94 Q60.3208 1120.49 63.9319 1120.49 Q67.5661 1120.49 69.3717 1116.94 Q71.2004 1113.38 71.2004 1106.27 Q71.2004 1099.14 69.3717 1095.6 Q67.5661 1092.04 63.9319 1092.04 M63.9319 1088.33 Q69.742 1088.33 72.7976 1092.94 Q75.8763 1097.52 75.8763 1106.27 Q75.8763 1115 72.7976 1119.61 Q69.742 1124.19 63.9319 1124.19 Q58.1217 1124.19 55.043 1119.61 Q51.9875 1115 51.9875 1106.27 Q51.9875 1097.52 55.043 1092.94 Q58.1217 1088.33 63.9319 1088.33 Z" fill="#000000" fill-rule="nonzero" fill-opacity="1" /><path clip-path="url(#clip560)" d="M84.0938 1117.64 L88.978 1117.64 L88.978 1123.52 L84.0938 1123.52 L84.0938 1117.64 Z" fill="#000000" fill-rule="nonzero" fill-opacity="1" /><path clip-path="url(#clip560)" d="M103.191 1119.58 L119.51 1119.58 L119.51 1123.52 L97.566 1123.52 L97.566 1119.58 Q100.228 1116.83 104.811 1112.2 Q109.418 1107.55 110.598 1106.2 Q112.844 1103.68 113.723 1101.94 Q114.626 1100.19 114.626 1098.5 Q114.626 1095.74 112.682 1094 Q110.76 1092.27 107.658 1092.27 Q105.459 1092.27 103.006 1093.03 Q100.575 1093.8 97.7974 1095.35 L97.7974 1090.62 Q100.621 1089.49 103.075 1088.91 Q105.529 1088.33 107.566 1088.33 Q112.936 1088.33 116.131 1091.02 Q119.325 1093.7 119.325 1098.19 Q119.325 1100.32 118.515 1102.25 Q117.728 1104.14 115.621 1106.74 Q115.043 1107.41 111.941 1110.62 Q108.839 1113.82 103.191 1119.58 Z" fill="#000000" fill-rule="nonzero" fill-opacity="1" /><path clip-path="url(#clip560)" d="M129.371 1088.96 L147.728 1088.96 L147.728 1092.89 L133.654 1092.89 L133.654 1101.37 Q134.672 1101.02 135.691 1100.86 Q136.709 1100.67 137.728 1100.67 Q143.515 1100.67 146.894 1103.84 Q150.274 1107.01 150.274 1112.43 Q150.274 1118.01 146.802 1121.11 Q143.33 1124.19 137.01 1124.19 Q134.834 1124.19 132.566 1123.82 Q130.32 1123.45 127.913 1122.71 L127.913 1118.01 Q129.996 1119.14 132.219 1119.7 Q134.441 1120.25 136.918 1120.25 Q140.922 1120.25 143.26 1118.15 Q145.598 1116.04 145.598 1112.43 Q145.598 1108.82 143.26 1106.71 Q140.922 1104.61 136.918 1104.61 Q135.043 1104.61 133.168 1105.02 Q131.316 1105.44 129.371 1106.32 L129.371 1088.96 Z" fill="#000000" fill-rule="nonzero" fill-opacity="1" /><path clip-path="url(#clip560)" d="M62.9365 752.56 Q59.3254 752.56 57.4967 756.124 Q55.6912 759.666 55.6912 766.796 Q55.6912 773.902 57.4967 777.467 Q59.3254 781.009 62.9365 781.009 Q66.5707 781.009 68.3763 777.467 Q70.205 773.902 70.205 766.796 Q70.205 759.666 68.3763 756.124 Q66.5707 752.56 62.9365 752.56 M62.9365 748.856 Q68.7467 748.856 71.8022 753.462 Q74.8809 758.046 74.8809 766.796 Q74.8809 775.522 71.8022 780.129 Q68.7467 784.712 62.9365 784.712 Q57.1264 784.712 54.0477 780.129 Q50.9921 775.522 50.9921 766.796 Q50.9921 758.046 54.0477 753.462 Q57.1264 748.856 62.9365 748.856 Z" fill="#000000" fill-rule="nonzero" fill-opacity="1" /><path clip-path="url(#clip560)" d="M83.0984 778.161 L87.9827 778.161 L87.9827 784.041 L83.0984 784.041 L83.0984 778.161 Z" fill="#000000" fill-rule="nonzero" fill-opacity="1" /><path clip-path="url(#clip560)" d="M98.2141 749.481 L116.57 749.481 L116.57 753.416 L102.496 753.416 L102.496 761.888 Q103.515 761.541 104.534 761.379 Q105.552 761.194 106.571 761.194 Q112.358 761.194 115.737 764.365 Q119.117 767.536 119.117 772.953 Q119.117 778.532 115.645 781.634 Q112.172 784.712 105.853 784.712 Q103.677 784.712 101.409 784.342 Q99.1632 783.971 96.7558 783.231 L96.7558 778.532 Q98.8391 779.666 101.061 780.222 Q103.284 780.777 105.76 780.777 Q109.765 780.777 112.103 778.671 Q114.441 776.564 114.441 772.953 Q114.441 769.342 112.103 767.235 Q109.765 765.129 105.76 765.129 Q103.885 765.129 102.01 765.546 Q100.159 765.962 98.2141 766.842 L98.2141 749.481 Z" fill="#000000" fill-rule="nonzero" fill-opacity="1" /><path clip-path="url(#clip560)" d="M138.33 752.56 Q134.719 752.56 132.89 756.124 Q131.084 759.666 131.084 766.796 Q131.084 773.902 132.89 777.467 Q134.719 781.009 138.33 781.009 Q141.964 781.009 143.769 777.467 Q145.598 773.902 145.598 766.796 Q145.598 759.666 143.769 756.124 Q141.964 752.56 138.33 752.56 M138.33 748.856 Q144.14 748.856 147.195 753.462 Q150.274 758.046 150.274 766.796 Q150.274 775.522 147.195 780.129 Q144.14 784.712 138.33 784.712 Q132.519 784.712 129.441 780.129 Q126.385 775.522 126.385 766.796 Q126.385 758.046 129.441 753.462 Q132.519 748.856 138.33 748.856 Z" fill="#000000" fill-rule="nonzero" fill-opacity="1" /><path clip-path="url(#clip560)" d="M63.9319 413.082 Q60.3208 413.082 58.4921 416.647 Q56.6865 420.189 56.6865 427.318 Q56.6865 434.425 58.4921 437.99 Q60.3208 441.531 63.9319 441.531 Q67.5661 441.531 69.3717 437.99 Q71.2004 434.425 71.2004 427.318 Q71.2004 420.189 69.3717 416.647 Q67.5661 413.082 63.9319 413.082 M63.9319 409.379 Q69.742 409.379 72.7976 413.985 Q75.8763 418.568 75.8763 427.318 Q75.8763 436.045 72.7976 440.652 Q69.742 445.235 63.9319 445.235 Q58.1217 445.235 55.043 440.652 Q51.9875 436.045 51.9875 427.318 Q51.9875 418.568 55.043 413.985 Q58.1217 409.379 63.9319 409.379 Z" fill="#000000" fill-rule="nonzero" fill-opacity="1" /><path clip-path="url(#clip560)" d="M84.0938 438.684 L88.978 438.684 L88.978 444.564 L84.0938 444.564 L84.0938 438.684 Z" fill="#000000" fill-rule="nonzero" fill-opacity="1" /><path clip-path="url(#clip560)" d="M97.9826 410.004 L120.205 410.004 L120.205 411.994 L107.658 444.564 L102.774 444.564 L114.58 413.939 L97.9826 413.939 L97.9826 410.004 Z" fill="#000000" fill-rule="nonzero" fill-opacity="1" /><path clip-path="url(#clip560)" d="M129.371 410.004 L147.728 410.004 L147.728 413.939 L133.654 413.939 L133.654 422.411 Q134.672 422.064 135.691 421.902 Q136.709 421.716 137.728 421.716 Q143.515 421.716 146.894 424.888 Q150.274 428.059 150.274 433.476 Q150.274 439.054 146.802 442.156 Q143.33 445.235 137.01 445.235 Q134.834 445.235 132.566 444.864 Q130.32 444.494 127.913 443.753 L127.913 439.054 Q129.996 440.189 132.219 440.744 Q134.441 441.3 136.918 441.3 Q140.922 441.3 143.26 439.193 Q145.598 437.087 145.598 433.476 Q145.598 429.865 143.26 427.758 Q140.922 425.652 136.918 425.652 Q135.043 425.652 133.168 426.068 Q131.316 426.485 129.371 427.365 L129.371 410.004 Z" fill="#000000" fill-rule="nonzero" fill-opacity="1" /><path clip-path="url(#clip560)" d="M53.7467 101.151 L61.3856 101.151 L61.3856 74.7854 L53.0754 76.4521 L53.0754 72.1928 L61.3393 70.5262 L66.0152 70.5262 L66.0152 101.151 L73.654 101.151 L73.654 105.086 L53.7467 105.086 L53.7467 101.151 Z" fill="#000000" fill-rule="nonzero" fill-opacity="1" /><path clip-path="url(#clip560)" d="M83.0984 99.2066 L87.9827 99.2066 L87.9827 105.086 L83.0984 105.086 L83.0984 99.2066 Z" fill="#000000" fill-rule="nonzero" fill-opacity="1" /><path clip-path="url(#clip560)" d="M108.168 73.6049 Q104.557 73.6049 102.728 77.1697 Q100.922 80.7113 100.922 87.8409 Q100.922 94.9473 102.728 98.5121 Q104.557 102.054 108.168 102.054 Q111.802 102.054 113.608 98.5121 Q115.436 94.9473 115.436 87.8409 Q115.436 80.7113 113.608 77.1697 Q111.802 73.6049 108.168 73.6049 M108.168 69.9012 Q113.978 69.9012 117.033 74.5076 Q120.112 79.0909 120.112 87.8409 Q120.112 96.5677 117.033 101.174 Q113.978 105.757 108.168 105.757 Q102.358 105.757 99.2789 101.174 Q96.2234 96.5677 96.2234 87.8409 Q96.2234 79.0909 99.2789 74.5076 Q102.358 69.9012 108.168 69.9012 Z" fill="#000000" fill-rule="nonzero" fill-opacity="1" /><path clip-path="url(#clip560)" d="M138.33 73.6049 Q134.719 73.6049 132.89 77.1697 Q131.084 80.7113 131.084 87.8409 Q131.084 94.9473 132.89 98.5121 Q134.719 102.054 138.33 102.054 Q141.964 102.054 143.769 98.5121 Q145.598 94.9473 145.598 87.8409 Q145.598 80.7113 143.769 77.1697 Q141.964 73.6049 138.33 73.6049 M138.33 69.9012 Q144.14 69.9012 147.195 74.5076 Q150.274 79.0909 150.274 87.8409 Q150.274 96.5677 147.195 101.174 Q144.14 105.757 138.33 105.757 Q132.519 105.757 129.441 101.174 Q126.385 96.5677 126.385 87.8409 Q126.385 79.0909 129.441 74.5076 Q132.519 69.9012 138.33 69.9012 Z" fill="#000000" fill-rule="nonzero" fill-opacity="1" /><path clip-path="url(#clip562)" d="M247.59 1445.72 L260.896 1445.72 L383.935 1445.72 L457.876 1445.72 L520.392 1445.72 L588.302 1445.72 L650.909 1445.72 L684.47 1445.72 L718.031 1445.72 L756.914 1445.72 L795.798 1445.72 L813.075 1445.72 L830.353 1445.72 L838.991 1445.72 L847.63 1445.72 L851.949 1445.72 L856.269 1445.72 L858.429 1445.72 L860.588 1445.72 L862.748 1441.06 L864.908 1436.04 L868.695 1427.23 L872.483 1418.42 L876.271 1409.61 L880.058 1400.8 L887.634 1383.19 L895.209 1365.57 L910.36 1330.34 L925.511 1295.11 L991.585 1141.47 L1058.05 986.908 L1094.79 901.466 L1131.54 816.024 L1166.5 734.728 L1201.46 653.432 L1219.63 611.168 L1237.81 568.904 L1246.9 547.771 L1255.99 526.639 L1260.53 516.073 L1265.07 505.507 L1266.21 502.865 L1267.35 500.224 L1268.48 497.582 L1269.62 495.417 L1270.75 498.059 L1271.89 500.7 L1273.03 503.342 L1274.16 505.983 L1277.99 514.878 L1281.81 523.772 L1285.64 532.667 L1289.46 541.561 L1297.11 559.35 L1304.76 577.139 L1320.06 612.716 L1335.36 648.294 L1410.08 822.039 L1478.52 981.2 L1541.74 1128.2 L1605.77 1277.1 L1623.72 1318.82 L1641.66 1360.54 L1650.63 1381.4 L1659.6 1402.26 L1664.08 1412.69 L1668.57 1423.12 L1673.05 1433.55 L1677.54 1443.98 L1679.57 1445.72 L1681.6 1445.72 L1683.64 1445.72 L1685.67 1445.72 L1689.73 1445.72 L1693.8 1445.72 L1701.93 1445.72 L1710.06 1445.72 L1726.31 1445.72 L1742.57 1445.72 L1817.03 1445.72 L1885.97 1445.72 L1953.93 1445.72 L2019.92 1445.72 L2087.57 1445.72 L2161.69 1445.72 L2269.35 1445.72 L2291.44 1445.72 L2291.44 1445.72 L2269.35 1445.72 L2161.69 1445.72 L2087.57 1445.72 L2019.92 1334.21 L1953.93 1224.6 L1885.97 1111.71 L1817.03 997.207 L1742.57 873.538 L1726.31 846.534 L1710.06 819.53 L1701.93 806.029 L1693.8 792.527 L1689.73 785.776 L1685.67 779.025 L1683.64 775.649 L1681.6 772.274 L1679.57 768.899 L1677.54 765.523 L1673.05 758.073 L1668.57 750.623 L1664.08 743.173 L1659.6 735.723 L1650.63 720.823 L1641.66 705.923 L1623.72 676.123 L1605.77 646.323 L1541.74 539.963 L1478.52 434.964 L1410.08 321.278 L1335.36 197.174 L1320.06 171.761 L1304.76 146.349 L1297.11 133.642 L1289.46 120.936 L1285.64 114.583 L1281.81 108.23 L1277.99 101.877 L1274.16 95.5235 L1273.03 93.6367 L1271.89 91.7499 L1270.75 89.8631 L1269.62 87.9763 L1268.48 89.5229 L1267.35 91.4097 L1266.21 93.2965 L1265.07 95.1833 L1260.53 102.731 L1255.99 110.278 L1246.9 125.372 L1237.81 140.467 L1219.63 170.655 L1201.46 200.844 L1166.5 258.913 L1131.54 316.981 L1094.79 378.011 L1058.05 439.041 L991.585 549.44 L925.511 659.187 L910.36 684.352 L895.209 709.517 L887.634 722.099 L880.058 734.682 L876.271 740.973 L872.483 747.264 L868.695 753.555 L864.908 759.847 L862.748 763.434 L860.588 767.021 L858.429 770.608 L856.269 774.195 L851.949 781.37 L847.63 788.544 L838.991 802.893 L830.353 817.241 L813.075 845.939 L795.798 874.636 L756.914 939.22 L718.031 1003.8 L684.47 1059.55 L650.909 1115.29 L588.302 1219.28 L520.392 1332.08 L457.876 1435.91 L383.935 1445.72 L260.896 1445.72 L247.59 1445.72  Z" fill="#009af9" fill-rule="evenodd" fill-opacity="0.5"/>
<polyline clip-path="url(#clip562)" style="stroke:#009af9; stroke-linecap:round; stroke-linejoin:round; stroke-width:8; stroke-opacity:1; fill:none" points="247.59,1445.72 260.896,1445.72 383.935,1445.72 457.876,1445.72 520.392,1445.72 588.302,1445.72 650.909,1445.72 684.47,1445.72 718.031,1445.72 756.914,1445.72 795.798,1445.72 813.075,1445.72 830.353,1445.72 838.991,1445.72 847.63,1445.72 851.949,1445.72 856.269,1445.72 858.429,1445.72 860.588,1445.72 862.748,1441.06 864.908,1436.04 868.695,1427.23 872.483,1418.42 876.271,1409.61 880.058,1400.8 887.634,1383.19 895.209,1365.57 910.36,1330.34 925.511,1295.11 991.585,1141.47 1058.05,986.908 1094.79,901.466 1131.54,816.024 1166.5,734.728 1201.46,653.432 1219.63,611.168 1237.81,568.904 1246.9,547.771 1255.99,526.639 1260.53,516.073 1265.07,505.507 1266.21,502.865 1267.35,500.224 1268.48,497.582 1269.62,495.417 1270.75,498.059 1271.89,500.7 1273.03,503.342 1274.16,505.983 1277.99,514.878 1281.81,523.772 1285.64,532.667 1289.46,541.561 1297.11,559.35 1304.76,577.139 1320.06,612.716 1335.36,648.294 1410.08,822.039 1478.52,981.2 1541.74,1128.2 1605.77,1277.1 1623.72,1318.82 1641.66,1360.54 1650.63,1381.4 1659.6,1402.26 1664.08,1412.69 1668.57,1423.12 1673.05,1433.55 1677.54,1443.98 1679.57,1445.72 1681.6,1445.72 1683.64,1445.72 1685.67,1445.72 1689.73,1445.72 1693.8,1445.72 1701.93,1445.72 1710.06,1445.72 1726.31,1445.72 1742.57,1445.72 1817.03,1445.72 1885.97,1445.72 1953.93,1445.72 2019.92,1445.72 2087.57,1445.72 2161.69,1445.72 2269.35,1445.72 2291.44,1445.72 "/>
<polyline clip-path="url(#clip562)" style="stroke:#009af9; stroke-linecap:round; stroke-linejoin:round; stroke-width:8; stroke-opacity:1; fill:none" points="247.59,1445.72 254.243,1445.72 260.896,1445.72 322.415,1445.72 383.935,1445.72 402.42,1445.72 420.905,1445.72 430.148,1445.72 439.391,1445.72 444.012,1445.72 448.633,1445.72 453.254,1443.59 457.876,1435.91 465.69,1422.93 473.505,1409.95 481.319,1396.97 489.134,1384 504.763,1358.04 520.392,1332.08 588.302,1219.28 650.909,1115.29 718.031,1003.8 795.798,874.636 864.908,759.847 925.511,659.187 991.585,549.44 1058.05,439.041 1094.79,378.011 1131.54,316.981 1166.5,258.913 1201.46,200.844 1219.63,170.655 1237.81,140.467 1246.9,125.372 1255.99,110.278 1260.53,102.731 1265.07,95.1833 1267.35,91.4097 1269.62,87.9763 1271.89,91.7499 1274.16,95.5235 1277.99,101.877 1281.81,108.23 1285.64,114.583 1289.46,120.936 1297.11,133.642 1304.76,146.349 1320.06,171.761 1335.36,197.174 1410.08,321.278 1478.52,434.964 1541.74,539.963 1605.77,646.323 1677.54,765.523 1742.57,873.538 1817.03,997.207 1885.97,1111.71 1953.93,1224.6 2019.92,1334.21 2036.83,1362.3 2053.75,1390.39 2062.2,1404.44 2070.66,1418.48 2074.89,1425.5 2079.11,1432.53 2083.34,1439.55 2087.57,1445.72 2092.2,1445.72 2096.83,1445.72 2101.47,1445.72 2106.1,1445.72 2115.36,1445.72 2124.63,1445.72 2143.16,1445.72 2161.69,1445.72 2215.52,1445.72 2269.35,1445.72 2280.4,1445.72 2291.44,1445.72 "/>
</svg>
