<?xml version="1.0" encoding="utf-8"?>
<svg xmlns="http://www.w3.org/2000/svg" xmlns:xlink="http://www.w3.org/1999/xlink" width="600" height="400" viewBox="0 0 2400 1600">
<defs>
  <clipPath id="clip140">
    <rect x="0" y="0" width="2400" height="1600"/>
  </clipPath>
</defs>
<path clip-path="url(#clip140)" d="M0 1600 L2400 1600 L2400 0 L0 0  Z" fill="#ffffff" fill-rule="evenodd" fill-opacity="1"/>
<defs>
  <clipPath id="clip141">
    <rect x="480" y="0" width="1681" height="1600"/>
  </clipPath>
</defs>
<path clip-path="url(#clip140)" d="M186.274 1486.45 L2352.76 1486.45 L2352.76 47.2441 L186.274 47.2441  Z" fill="#ffffff" fill-rule="evenodd" fill-opacity="1"/>
<defs>
  <clipPath id="clip142">
    <rect x="186" y="47" width="2167" height="1440"/>
  </clipPath>
</defs>
<polyline clip-path="url(#clip142)" style="stroke:#000000; stroke-linecap:round; stroke-linejoin:round; stroke-width:2; stroke-opacity:0.1; fill:none" points="247.59,1486.45 247.59,47.2441 "/>
<polyline clip-path="url(#clip142)" style="stroke:#000000; stroke-linecap:round; stroke-linejoin:round; stroke-width:2; stroke-opacity:0.1; fill:none" points="758.552,1486.45 758.552,47.2441 "/>
<polyline clip-path="url(#clip142)" style="stroke:#000000; stroke-linecap:round; stroke-linejoin:round; stroke-width:2; stroke-opacity:0.1; fill:none" points="1269.51,1486.45 1269.51,47.2441 "/>
<polyline clip-path="url(#clip142)" style="stroke:#000000; stroke-linecap:round; stroke-linejoin:round; stroke-width:2; stroke-opacity:0.1; fill:none" points="1780.48,1486.45 1780.48,47.2441 "/>
<polyline clip-path="url(#clip142)" style="stroke:#000000; stroke-linecap:round; stroke-linejoin:round; stroke-width:2; stroke-opacity:0.1; fill:none" points="2291.44,1486.45 2291.44,47.2441 "/>
<polyline clip-path="url(#clip142)" style="stroke:#000000; stroke-linecap:round; stroke-linejoin:round; stroke-width:2; stroke-opacity:0.1; fill:none" points="186.274,1445.78 2352.76,1445.78 "/>
<polyline clip-path="url(#clip142)" style="stroke:#000000; stroke-linecap:round; stroke-linejoin:round; stroke-width:2; stroke-opacity:0.1; fill:none" points="186.274,1105.81 2352.76,1105.81 "/>
<polyline clip-path="url(#clip142)" style="stroke:#000000; stroke-linecap:round; stroke-linejoin:round; stroke-width:2; stroke-opacity:0.1; fill:none" points="186.274,765.848 2352.76,765.848 "/>
<polyline clip-path="url(#clip142)" style="stroke:#000000; stroke-linecap:round; stroke-linejoin:round; stroke-width:2; stroke-opacity:0.1; fill:none" points="186.274,425.884 2352.76,425.884 "/>
<polyline clip-path="url(#clip142)" style="stroke:#000000; stroke-linecap:round; stroke-linejoin:round; stroke-width:2; stroke-opacity:0.1; fill:none" points="186.274,85.9189 2352.76,85.9189 "/>
<polyline clip-path="url(#clip140)" style="stroke:#000000; stroke-linecap:round; stroke-linejoin:round; stroke-width:4; stroke-opacity:1; fill:none" points="186.274,1486.45 2352.76,1486.45 "/>
<polyline clip-path="url(#clip140)" style="stroke:#000000; stroke-linecap:round; stroke-linejoin:round; stroke-width:4; stroke-opacity:1; fill:none" points="247.59,1486.45 247.59,1467.55 "/>
<polyline clip-path="url(#clip140)" style="stroke:#000000; stroke-linecap:round; stroke-linejoin:round; stroke-width:4; stroke-opacity:1; fill:none" points="758.552,1486.45 758.552,1467.55 "/>
<polyline clip-path="url(#clip140)" style="stroke:#000000; stroke-linecap:round; stroke-linejoin:round; stroke-width:4; stroke-opacity:1; fill:none" points="1269.51,1486.45 1269.51,1467.55 "/>
<polyline clip-path="url(#clip140)" style="stroke:#000000; stroke-linecap:round; stroke-linejoin:round; stroke-width:4; stroke-opacity:1; fill:none" points="1780.48,1486.45 1780.48,1467.55 "/>
<polyline clip-path="url(#clip140)" style="stroke:#000000; stroke-linecap:round; stroke-linejoin:round; stroke-width:4; stroke-opacity:1; fill:none" points="2291.44,1486.45 2291.44,1467.55 "/>
<path clip-path="url(#clip140)" d="M224.974 1517.37 Q221.363 1517.37 219.534 1520.93 Q217.729 1524.47 217.729 1531.6 Q217.729 1538.71 219.534 1542.27 Q221.363 1545.82 224.974 1545.82 Q228.608 1545.82 230.414 1542.27 Q232.242 1538.71 232.242 1531.6 Q232.242 1524.47 230.414 1520.93 Q228.608 1517.37 224.974 1517.37 M224.974 1513.66 Q230.784 1513.66 233.84 1518.27 Q236.918 1522.85 236.918 1531.6 Q236.918 1540.33 233.84 1544.94 Q230.784 1549.52 224.974 1549.52 Q219.164 1549.52 216.085 1544.94 Q213.03 1540.33 213.03 1531.6 Q213.03 1522.85 216.085 1518.27 Q219.164 1513.66 224.974 1513.66 Z" fill="#000000" fill-rule="nonzero" fill-opacity="1" /><path clip-path="url(#clip140)" d="M245.136 1542.97 L250.02 1542.97 L250.02 1548.85 L245.136 1548.85 L245.136 1542.97 Z" fill="#000000" fill-rule="nonzero" fill-opacity="1" /><path clip-path="url(#clip140)" d="M270.205 1517.37 Q266.594 1517.37 264.765 1520.93 Q262.96 1524.47 262.96 1531.6 Q262.96 1538.71 264.765 1542.27 Q266.594 1545.82 270.205 1545.82 Q273.839 1545.82 275.645 1542.27 Q277.474 1538.71 277.474 1531.6 Q277.474 1524.47 275.645 1520.93 Q273.839 1517.37 270.205 1517.37 M270.205 1513.66 Q276.015 1513.66 279.071 1518.27 Q282.15 1522.85 282.15 1531.6 Q282.15 1540.33 279.071 1544.94 Q276.015 1549.52 270.205 1549.52 Q264.395 1549.52 261.316 1544.94 Q258.261 1540.33 258.261 1531.6 Q258.261 1522.85 261.316 1518.27 Q264.395 1513.66 270.205 1513.66 Z" fill="#000000" fill-rule="nonzero" fill-opacity="1" /><path clip-path="url(#clip140)" d="M730.289 1544.91 L746.608 1544.91 L746.608 1548.85 L724.664 1548.85 L724.664 1544.91 Q727.326 1542.16 731.909 1537.53 Q736.515 1532.88 737.696 1531.53 Q739.941 1529.01 740.821 1527.27 Q741.724 1525.51 741.724 1523.82 Q741.724 1521.07 739.779 1519.33 Q737.858 1517.6 734.756 1517.6 Q732.557 1517.6 730.103 1518.36 Q727.673 1519.13 724.895 1520.68 L724.895 1515.95 Q727.719 1514.82 730.173 1514.24 Q732.626 1513.66 734.663 1513.66 Q740.034 1513.66 743.228 1516.35 Q746.423 1519.03 746.423 1523.52 Q746.423 1525.65 745.612 1527.57 Q744.825 1529.47 742.719 1532.07 Q742.14 1532.74 739.038 1535.95 Q735.937 1539.15 730.289 1544.91 Z" fill="#000000" fill-rule="nonzero" fill-opacity="1" /><path clip-path="url(#clip140)" d="M756.423 1542.97 L761.307 1542.97 L761.307 1548.85 L756.423 1548.85 L756.423 1542.97 Z" fill="#000000" fill-rule="nonzero" fill-opacity="1" /><path clip-path="url(#clip140)" d="M771.538 1514.29 L789.895 1514.29 L789.895 1518.22 L775.821 1518.22 L775.821 1526.7 Q776.839 1526.35 777.858 1526.19 Q778.876 1526 779.895 1526 Q785.682 1526 789.061 1529.17 Q792.441 1532.34 792.441 1537.76 Q792.441 1543.34 788.969 1546.44 Q785.497 1549.52 779.177 1549.52 Q777.001 1549.52 774.733 1549.15 Q772.487 1548.78 770.08 1548.04 L770.08 1543.34 Q772.163 1544.47 774.385 1545.03 Q776.608 1545.58 779.085 1545.58 Q783.089 1545.58 785.427 1543.48 Q787.765 1541.37 787.765 1537.76 Q787.765 1534.15 785.427 1532.04 Q783.089 1529.94 779.085 1529.94 Q777.21 1529.94 775.335 1530.35 Q773.483 1530.77 771.538 1531.65 L771.538 1514.29 Z" fill="#000000" fill-rule="nonzero" fill-opacity="1" /><path clip-path="url(#clip140)" d="M1236.68 1514.29 L1255.04 1514.29 L1255.04 1518.22 L1240.96 1518.22 L1240.96 1526.7 Q1241.98 1526.35 1243 1526.19 Q1244.02 1526 1245.04 1526 Q1250.82 1526 1254.2 1529.17 Q1257.58 1532.34 1257.58 1537.76 Q1257.58 1543.34 1254.11 1546.44 Q1250.64 1549.52 1244.32 1549.52 Q1242.14 1549.52 1239.87 1549.15 Q1237.63 1548.78 1235.22 1548.04 L1235.22 1543.34 Q1237.3 1544.47 1239.53 1545.03 Q1241.75 1545.58 1244.23 1545.58 Q1248.23 1545.58 1250.57 1543.48 Q1252.91 1541.37 1252.91 1537.76 Q1252.91 1534.15 1250.57 1532.04 Q1248.23 1529.94 1244.23 1529.94 Q1242.35 1529.94 1240.48 1530.35 Q1238.62 1530.77 1236.68 1531.65 L1236.68 1514.29 Z" fill="#000000" fill-rule="nonzero" fill-opacity="1" /><path clip-path="url(#clip140)" d="M1266.8 1542.97 L1271.68 1542.97 L1271.68 1548.85 L1266.8 1548.85 L1266.8 1542.97 Z" fill="#000000" fill-rule="nonzero" fill-opacity="1" /><path clip-path="url(#clip140)" d="M1291.86 1517.37 Q1288.25 1517.37 1286.42 1520.93 Q1284.62 1524.47 1284.62 1531.6 Q1284.62 1538.71 1286.42 1542.27 Q1288.25 1545.82 1291.86 1545.82 Q1295.5 1545.82 1297.3 1542.27 Q1299.13 1538.71 1299.13 1531.6 Q1299.13 1524.47 1297.3 1520.93 Q1295.5 1517.37 1291.86 1517.37 M1291.86 1513.66 Q1297.67 1513.66 1300.73 1518.27 Q1303.81 1522.85 1303.81 1531.6 Q1303.81 1540.33 1300.73 1544.94 Q1297.67 1549.52 1291.86 1549.52 Q1286.05 1549.52 1282.98 1544.94 Q1279.92 1540.33 1279.92 1531.6 Q1279.92 1522.85 1282.98 1518.27 Q1286.05 1513.66 1291.86 1513.66 Z" fill="#000000" fill-rule="nonzero" fill-opacity="1" /><path clip-path="url(#clip140)" d="M1746.8 1514.29 L1769.02 1514.29 L1769.02 1516.28 L1756.47 1548.85 L1751.59 1548.85 L1763.39 1518.22 L1746.8 1518.22 L1746.8 1514.29 Z" fill="#000000" fill-rule="nonzero" fill-opacity="1" /><path clip-path="url(#clip140)" d="M1778.14 1542.97 L1783.02 1542.97 L1783.02 1548.85 L1778.14 1548.85 L1778.14 1542.97 Z" fill="#000000" fill-rule="nonzero" fill-opacity="1" /><path clip-path="url(#clip140)" d="M1793.26 1514.29 L1811.61 1514.29 L1811.61 1518.22 L1797.54 1518.22 L1797.54 1526.7 Q1798.56 1526.35 1799.57 1526.19 Q1800.59 1526 1801.61 1526 Q1807.4 1526 1810.78 1529.17 Q1814.16 1532.34 1814.16 1537.76 Q1814.16 1543.34 1810.69 1546.44 Q1807.21 1549.52 1800.89 1549.52 Q1798.72 1549.52 1796.45 1549.15 Q1794.2 1548.78 1791.8 1548.04 L1791.8 1543.34 Q1793.88 1544.47 1796.1 1545.03 Q1798.32 1545.58 1800.8 1545.58 Q1804.81 1545.58 1807.14 1543.48 Q1809.48 1541.37 1809.48 1537.76 Q1809.48 1534.15 1807.14 1532.04 Q1804.81 1529.94 1800.8 1529.94 Q1798.93 1529.94 1797.05 1530.35 Q1795.2 1530.77 1793.26 1531.65 L1793.26 1514.29 Z" fill="#000000" fill-rule="nonzero" fill-opacity="1" /><path clip-path="url(#clip140)" d="M2243.51 1544.91 L2251.15 1544.91 L2251.15 1518.55 L2242.84 1520.21 L2242.84 1515.95 L2251.1 1514.29 L2255.78 1514.29 L2255.78 1544.91 L2263.42 1544.91 L2263.42 1548.85 L2243.51 1548.85 L2243.51 1544.91 Z" fill="#000000" fill-rule="nonzero" fill-opacity="1" /><path clip-path="url(#clip140)" d="M2282.86 1517.37 Q2279.25 1517.37 2277.42 1520.93 Q2275.62 1524.47 2275.62 1531.6 Q2275.62 1538.71 2277.42 1542.27 Q2279.25 1545.82 2282.86 1545.82 Q2286.5 1545.82 2288.3 1542.27 Q2290.13 1538.71 2290.13 1531.6 Q2290.13 1524.47 2288.3 1520.93 Q2286.5 1517.37 2282.86 1517.37 M2282.86 1513.66 Q2288.67 1513.66 2291.73 1518.27 Q2294.81 1522.85 2294.81 1531.6 Q2294.81 1540.33 2291.73 1544.94 Q2288.67 1549.52 2282.86 1549.52 Q2277.05 1549.52 2273.98 1544.94 Q2270.92 1540.33 2270.92 1531.6 Q2270.92 1522.85 2273.98 1518.27 Q2277.05 1513.66 2282.86 1513.66 Z" fill="#000000" fill-rule="nonzero" fill-opacity="1" /><path clip-path="url(#clip140)" d="M2303.03 1542.97 L2307.91 1542.97 L2307.91 1548.85 L2303.03 1548.85 L2303.03 1542.97 Z" fill="#000000" fill-rule="nonzero" fill-opacity="1" /><path clip-path="url(#clip140)" d="M2328.1 1517.37 Q2324.48 1517.37 2322.66 1520.93 Q2320.85 1524.47 2320.85 1531.6 Q2320.85 1538.71 2322.66 1542.27 Q2324.48 1545.82 2328.1 1545.82 Q2331.73 1545.82 2333.54 1542.27 Q2335.36 1538.71 2335.36 1531.6 Q2335.36 1524.47 2333.54 1520.93 Q2331.73 1517.37 2328.1 1517.37 M2328.1 1513.66 Q2333.91 1513.66 2336.96 1518.27 Q2340.04 1522.85 2340.04 1531.6 Q2340.04 1540.33 2336.96 1544.94 Q2333.91 1549.52 2328.1 1549.52 Q2322.29 1549.52 2319.21 1544.94 Q2316.15 1540.33 2316.15 1531.6 Q2316.15 1522.85 2319.21 1518.27 Q2322.29 1513.66 2328.1 1513.66 Z" fill="#000000" fill-rule="nonzero" fill-opacity="1" /><polyline clip-path="url(#clip140)" style="stroke:#000000; stroke-linecap:round; stroke-linejoin:round; stroke-width:4; stroke-opacity:1; fill:none" points="186.274,1486.45 186.274,47.2441 "/>
<polyline clip-path="url(#clip140)" style="stroke:#000000; stroke-linecap:round; stroke-linejoin:round; stroke-width:4; stroke-opacity:1; fill:none" points="186.274,1445.78 205.172,1445.78 "/>
<polyline clip-path="url(#clip140)" style="stroke:#000000; stroke-linecap:round; stroke-linejoin:round; stroke-width:4; stroke-opacity:1; fill:none" points="186.274,1105.81 205.172,1105.81 "/>
<polyline clip-path="url(#clip140)" style="stroke:#000000; stroke-linecap:round; stroke-linejoin:round; stroke-width:4; stroke-opacity:1; fill:none" points="186.274,765.848 205.172,765.848 "/>
<polyline clip-path="url(#clip140)" style="stroke:#000000; stroke-linecap:round; stroke-linejoin:round; stroke-width:4; stroke-opacity:1; fill:none" points="186.274,425.884 205.172,425.884 "/>
<polyline clip-path="url(#clip140)" style="stroke:#000000; stroke-linecap:round; stroke-linejoin:round; stroke-width:4; stroke-opacity:1; fill:none" points="186.274,85.9189 205.172,85.9189 "/>
<path clip-path="url(#clip140)" d="M62.9365 1431.58 Q59.3254 1431.58 57.4967 1435.14 Q55.6912 1438.68 55.6912 1445.81 Q55.6912 1452.92 57.4967 1456.48 Q59.3254 1460.03 62.9365 1460.03 Q66.5707 1460.03 68.3763 1456.48 Q70.205 1452.92 70.205 1445.81 Q70.205 1438.68 68.3763 1435.14 Q66.5707 1431.58 62.9365 1431.58 M62.9365 1427.87 Q68.7467 1427.87 71.8022 1432.48 Q74.8809 1437.06 74.8809 1445.81 Q74.8809 1454.54 71.8022 1459.15 Q68.7467 1463.73 62.9365 1463.73 Q57.1264 1463.73 54.0477 1459.15 Q50.9921 1454.54 50.9921 1445.81 Q50.9921 1437.06 54.0477 1432.48 Q57.1264 1427.87 62.9365 1427.87 Z" fill="#000000" fill-rule="nonzero" fill-opacity="1" /><path clip-path="url(#clip140)" d="M83.0984 1457.18 L87.9827 1457.18 L87.9827 1463.06 L83.0984 1463.06 L83.0984 1457.18 Z" fill="#000000" fill-rule="nonzero" fill-opacity="1" /><path clip-path="url(#clip140)" d="M108.168 1431.58 Q104.557 1431.58 102.728 1435.14 Q100.922 1438.68 100.922 1445.81 Q100.922 1452.92 102.728 1456.48 Q104.557 1460.03 108.168 1460.03 Q111.802 1460.03 113.608 1456.48 Q115.436 1452.92 115.436 1445.81 Q115.436 1438.68 113.608 1435.14 Q111.802 1431.58 108.168 1431.58 M108.168 1427.87 Q113.978 1427.87 117.033 1432.48 Q120.112 1437.06 120.112 1445.81 Q120.112 1454.54 117.033 1459.15 Q113.978 1463.73 108.168 1463.73 Q102.358 1463.73 99.2789 1459.15 Q96.2234 1454.54 96.2234 1445.81 Q96.2234 1437.06 99.2789 1432.48 Q102.358 1427.87 108.168 1427.87 Z" fill="#000000" fill-rule="nonzero" fill-opacity="1" /><path clip-path="url(#clip140)" d="M138.33 1431.58 Q134.719 1431.58 132.89 1435.14 Q131.084 1438.68 131.084 1445.81 Q131.084 1452.92 132.89 1456.48 Q134.719 1460.03 138.33 1460.03 Q141.964 1460.03 143.769 1456.48 Q145.598 1452.92 145.598 1445.81 Q145.598 1438.68 143.769 1435.14 Q141.964 1431.58 138.33 1431.58 M138.33 1427.87 Q144.14 1427.87 147.195 1432.48 Q150.274 1437.06 150.274 1445.81 Q150.274 1454.54 147.195 1459.15 Q144.14 1463.73 138.33 1463.73 Q132.519 1463.73 129.441 1459.15 Q126.385 1454.54 126.385 1445.81 Q126.385 1437.06 129.441 1432.48 Q132.519 1427.87 138.33 1427.87 Z" fill="#000000" fill-rule="nonzero" fill-opacity="1" /><path clip-path="url(#clip140)" d="M63.9319 1091.61 Q60.3208 1091.61 58.4921 1095.18 Q56.6865 1098.72 56.6865 1105.85 Q56.6865 1112.95 58.4921 1116.52 Q60.3208 1120.06 63.9319 1120.06 Q67.5661 1120.06 69.3717 1116.52 Q71.2004 1112.95 71.2004 1105.85 Q71.2004 1098.72 69.3717 1095.18 Q67.5661 1091.61 63.9319 1091.61 M63.9319 1087.91 Q69.742 1087.91 72.7976 1092.51 Q75.8763 1097.1 75.8763 1105.85 Q75.8763 1114.57 72.7976 1119.18 Q69.742 1123.76 63.9319 1123.76 Q58.1217 1123.76 55.043 1119.18 Q51.9875 1114.57 51.9875 1105.85 Q51.9875 1097.1 55.043 1092.51 Q58.1217 1087.91 63.9319 1087.91 Z" fill="#000000" fill-rule="nonzero" fill-opacity="1" /><path clip-path="url(#clip140)" d="M84.0938 1117.21 L88.978 1117.21 L88.978 1123.09 L84.0938 1123.09 L84.0938 1117.21 Z" fill="#000000" fill-rule="nonzero" fill-opacity="1" /><path clip-path="url(#clip140)" d="M103.191 1119.16 L119.51 1119.16 L119.51 1123.09 L97.566 1123.09 L97.566 1119.16 Q100.228 1116.4 104.811 1111.77 Q109.418 1107.12 110.598 1105.78 Q112.844 1103.25 113.723 1101.52 Q114.626 1099.76 114.626 1098.07 Q114.626 1095.32 112.682 1093.58 Q110.76 1091.84 107.658 1091.84 Q105.459 1091.84 103.006 1092.61 Q100.575 1093.37 97.7974 1094.92 L97.7974 1090.2 Q100.621 1089.07 103.075 1088.49 Q105.529 1087.91 107.566 1087.91 Q112.936 1087.91 116.131 1090.59 Q119.325 1093.28 119.325 1097.77 Q119.325 1099.9 118.515 1101.82 Q117.728 1103.72 115.621 1106.31 Q115.043 1106.98 111.941 1110.2 Q108.839 1113.39 103.191 1119.16 Z" fill="#000000" fill-rule="nonzero" fill-opacity="1" /><path clip-path="url(#clip140)" d="M129.371 1088.53 L147.728 1088.53 L147.728 1092.47 L133.654 1092.47 L133.654 1100.94 Q134.672 1100.59 135.691 1100.43 Q136.709 1100.25 137.728 1100.25 Q143.515 1100.25 146.894 1103.42 Q150.274 1106.59 150.274 1112 Q150.274 1117.58 146.802 1120.69 Q143.33 1123.76 137.01 1123.76 Q134.834 1123.76 132.566 1123.39 Q130.32 1123.02 127.913 1122.28 L127.913 1117.58 Q129.996 1118.72 132.219 1119.27 Q134.441 1119.83 136.918 1119.83 Q140.922 1119.83 143.26 1117.72 Q145.598 1115.62 145.598 1112 Q145.598 1108.39 143.26 1106.29 Q140.922 1104.18 136.918 1104.18 Q135.043 1104.18 133.168 1104.6 Q131.316 1105.01 129.371 1105.89 L129.371 1088.53 Z" fill="#000000" fill-rule="nonzero" fill-opacity="1" /><path clip-path="url(#clip140)" d="M62.9365 751.647 Q59.3254 751.647 57.4967 755.212 Q55.6912 758.753 55.6912 765.883 Q55.6912 772.989 57.4967 776.554 Q59.3254 780.096 62.9365 780.096 Q66.5707 780.096 68.3763 776.554 Q70.205 772.989 70.205 765.883 Q70.205 758.753 68.3763 755.212 Q66.5707 751.647 62.9365 751.647 M62.9365 747.943 Q68.7467 747.943 71.8022 752.55 Q74.8809 757.133 74.8809 765.883 Q74.8809 774.61 71.8022 779.216 Q68.7467 783.799 62.9365 783.799 Q57.1264 783.799 54.0477 779.216 Q50.9921 774.61 50.9921 765.883 Q50.9921 757.133 54.0477 752.55 Q57.1264 747.943 62.9365 747.943 Z" fill="#000000" fill-rule="nonzero" fill-opacity="1" /><path clip-path="url(#clip140)" d="M83.0984 777.249 L87.9827 777.249 L87.9827 783.128 L83.0984 783.128 L83.0984 777.249 Z" fill="#000000" fill-rule="nonzero" fill-opacity="1" /><path clip-path="url(#clip140)" d="M98.2141 748.568 L116.57 748.568 L116.57 752.503 L102.496 752.503 L102.496 760.976 Q103.515 760.628 104.534 760.466 Q105.552 760.281 106.571 760.281 Q112.358 760.281 115.737 763.452 Q119.117 766.624 119.117 772.04 Q119.117 777.619 115.645 780.721 Q112.172 783.799 105.853 783.799 Q103.677 783.799 101.409 783.429 Q99.1632 783.059 96.7558 782.318 L96.7558 777.619 Q98.8391 778.753 101.061 779.309 Q103.284 779.864 105.76 779.864 Q109.765 779.864 112.103 777.758 Q114.441 775.651 114.441 772.04 Q114.441 768.429 112.103 766.323 Q109.765 764.216 105.76 764.216 Q103.885 764.216 102.01 764.633 Q100.159 765.05 98.2141 765.929 L98.2141 748.568 Z" fill="#000000" fill-rule="nonzero" fill-opacity="1" /><path clip-path="url(#clip140)" d="M138.33 751.647 Q134.719 751.647 132.89 755.212 Q131.084 758.753 131.084 765.883 Q131.084 772.989 132.89 776.554 Q134.719 780.096 138.33 780.096 Q141.964 780.096 143.769 776.554 Q145.598 772.989 145.598 765.883 Q145.598 758.753 143.769 755.212 Q141.964 751.647 138.33 751.647 M138.33 747.943 Q144.14 747.943 147.195 752.55 Q150.274 757.133 150.274 765.883 Q150.274 774.61 147.195 779.216 Q144.14 783.799 138.33 783.799 Q132.519 783.799 129.441 779.216 Q126.385 774.61 126.385 765.883 Q126.385 757.133 129.441 752.55 Q132.519 747.943 138.33 747.943 Z" fill="#000000" fill-rule="nonzero" fill-opacity="1" /><path clip-path="url(#clip140)" d="M63.9319 411.682 Q60.3208 411.682 58.4921 415.247 Q56.6865 418.789 56.6865 425.918 Q56.6865 433.025 58.4921 436.59 Q60.3208 440.131 63.9319 440.131 Q67.5661 440.131 69.3717 436.59 Q71.2004 433.025 71.2004 425.918 Q71.2004 418.789 69.3717 415.247 Q67.5661 411.682 63.9319 411.682 M63.9319 407.979 Q69.742 407.979 72.7976 412.585 Q75.8763 417.168 75.8763 425.918 Q75.8763 434.645 72.7976 439.252 Q69.742 443.835 63.9319 443.835 Q58.1217 443.835 55.043 439.252 Q51.9875 434.645 51.9875 425.918 Q51.9875 417.168 55.043 412.585 Q58.1217 407.979 63.9319 407.979 Z" fill="#000000" fill-rule="nonzero" fill-opacity="1" /><path clip-path="url(#clip140)" d="M84.0938 437.284 L88.978 437.284 L88.978 443.164 L84.0938 443.164 L84.0938 437.284 Z" fill="#000000" fill-rule="nonzero" fill-opacity="1" /><path clip-path="url(#clip140)" d="M97.9826 408.604 L120.205 408.604 L120.205 410.594 L107.658 443.164 L102.774 443.164 L114.58 412.539 L97.9826 412.539 L97.9826 408.604 Z" fill="#000000" fill-rule="nonzero" fill-opacity="1" /><path clip-path="url(#clip140)" d="M129.371 408.604 L147.728 408.604 L147.728 412.539 L133.654 412.539 L133.654 421.011 Q134.672 420.664 135.691 420.502 Q136.709 420.316 137.728 420.316 Q143.515 420.316 146.894 423.488 Q150.274 426.659 150.274 432.076 Q150.274 437.654 146.802 440.756 Q143.33 443.835 137.01 443.835 Q134.834 443.835 132.566 443.464 Q130.32 443.094 127.913 442.353 L127.913 437.654 Q129.996 438.789 132.219 439.344 Q134.441 439.9 136.918 439.9 Q140.922 439.9 143.26 437.793 Q145.598 435.687 145.598 432.076 Q145.598 428.465 143.26 426.358 Q140.922 424.252 136.918 424.252 Q135.043 424.252 133.168 424.668 Q131.316 425.085 129.371 425.965 L129.371 408.604 Z" fill="#000000" fill-rule="nonzero" fill-opacity="1" /><path clip-path="url(#clip140)" d="M53.7467 99.2637 L61.3856 99.2637 L61.3856 72.8981 L53.0754 74.5648 L53.0754 70.3056 L61.3393 68.6389 L66.0152 68.6389 L66.0152 99.2637 L73.654 99.2637 L73.654 103.199 L53.7467 103.199 L53.7467 99.2637 Z" fill="#000000" fill-rule="nonzero" fill-opacity="1" /><path clip-path="url(#clip140)" d="M83.0984 97.3193 L87.9827 97.3193 L87.9827 103.199 L83.0984 103.199 L83.0984 97.3193 Z" fill="#000000" fill-rule="nonzero" fill-opacity="1" /><path clip-path="url(#clip140)" d="M108.168 71.7176 Q104.557 71.7176 102.728 75.2824 Q100.922 78.824 100.922 85.9536 Q100.922 93.0601 102.728 96.6249 Q104.557 100.167 108.168 100.167 Q111.802 100.167 113.608 96.6249 Q115.436 93.0601 115.436 85.9536 Q115.436 78.824 113.608 75.2824 Q111.802 71.7176 108.168 71.7176 M108.168 68.0139 Q113.978 68.0139 117.033 72.6204 Q120.112 77.2037 120.112 85.9536 Q120.112 94.6804 117.033 99.2869 Q113.978 103.87 108.168 103.87 Q102.358 103.87 99.2789 99.2869 Q96.2234 94.6804 96.2234 85.9536 Q96.2234 77.2037 99.2789 72.6204 Q102.358 68.0139 108.168 68.0139 Z" fill="#000000" fill-rule="nonzero" fill-opacity="1" /><path clip-path="url(#clip140)" d="M138.33 71.7176 Q134.719 71.7176 132.89 75.2824 Q131.084 78.824 131.084 85.9536 Q131.084 93.0601 132.89 96.6249 Q134.719 100.167 138.33 100.167 Q141.964 100.167 143.769 96.6249 Q145.598 93.0601 145.598 85.9536 Q145.598 78.824 143.769 75.2824 Q141.964 71.7176 138.33 71.7176 M138.33 68.0139 Q144.14 68.0139 147.195 72.6204 Q150.274 77.2037 150.274 85.9536 Q150.274 94.6804 147.195 99.2869 Q144.14 103.87 138.33 103.87 Q132.519 103.87 129.441 99.2869 Q126.385 94.6804 126.385 85.9536 Q126.385 77.2037 129.441 72.6204 Q132.519 68.0139 138.33 68.0139 Z" fill="#000000" fill-rule="nonzero" fill-opacity="1" /><polyline clip-path="url(#clip142)" style="stroke:#009af9; stroke-linecap:round; stroke-linejoin:round; stroke-width:4; stroke-opacity:1; fill:none" points="247.59,1442.42 254.243,1442.19 260.896,1441.95 322.415,1438.8 383.935,1433.1 420.905,1427.65 457.876,1419.89 489.134,1410.87 520.392,1398.81 537.37,1390.66 554.347,1381.18 571.325,1370.15 588.302,1357.37 603.954,1343.84 619.606,1328.42 635.258,1310.92 650.909,1291.14 667.69,1267.17 684.47,1240.12 692.86,1225.37 701.25,1209.78 709.641,1193.34 718.031,1176.02 727.752,1154.86 737.472,1132.52 747.193,1109 756.914,1084.32 766.635,1058.53 776.356,1031.65 786.077,1003.76 795.798,974.918 813.075,921.617 830.353,866.215 847.63,809.417 864.908,752.002 880.058,701.788 895.209,652.27 910.36,603.96 925.511,557.324 942.029,508.848 958.548,463.239 975.066,420.791 991.585,381.681 999.893,363.297 1008.2,345.778 1016.51,329.116 1024.82,313.301 1041.43,284.152 1058.05,258.172 1076.42,232.892 1094.79,210.932 1113.17,191.966 1131.54,175.668 1149.02,162.351 1166.5,150.908 1183.98,141.105 1201.46,132.727 1237.81,119.058 1274.16,109.31 1304.76,103.335 1335.36,98.8728 1410.08,92.1972 1478.52,89.2019 1541.74,87.9763 1605.77,88.3976 1641.66,90.2994 1677.54,95.3132 1693.8,99.5679 1710.06,105.893 1718.18,110.113 1726.31,115.233 1734.44,121.432 1742.57,128.925 1751.88,139.41 1761.18,152.348 1765.84,159.891 1770.49,168.242 1775.15,177.472 1779.8,187.66 1784.45,198.884 1789.11,211.226 1793.76,224.771 1798.41,239.601 1803.07,255.798 1807.72,273.439 1812.37,292.596 1817.03,313.333 1821.34,333.989 1825.64,356.075 1829.95,379.609 1834.26,404.595 1838.57,431.021 1842.88,458.854 1847.19,488.043 1851.5,518.517 1855.81,550.182 1860.11,582.922 1864.42,616.605 1868.73,651.075 1877.35,721.69 1885.97,793.276 1894.46,863.269 1902.96,931.216 1907.21,964.01 1911.45,995.826 1915.7,1026.54 1919.95,1056.06 1924.2,1084.3 1928.45,1111.2 1932.69,1136.72 1936.94,1160.83 1941.19,1183.53 1945.44,1204.83 1949.68,1224.75 1953.93,1243.31 1958.06,1260.09 1962.18,1275.68 1966.31,1290.14 1970.43,1303.51 1974.55,1315.86 1978.68,1327.24 1982.8,1337.72 1986.93,1347.34 1995.18,1364.25 2003.43,1378.41 2011.67,1390.21 2019.92,1400.03 2028.38,1408.34 2036.83,1415.18 2045.29,1420.79 2053.75,1425.39 2070.66,1432.23 2087.57,1436.79 2124.63,1442.13 2161.69,1444.3 2215.52,1445.38 2269.35,1445.67 2280.4,1445.7 2291.44,1445.72 "/>
</svg>
