<?xml version="1.0" encoding="utf-8"?>
<svg xmlns="http://www.w3.org/2000/svg" xmlns:xlink="http://www.w3.org/1999/xlink" width="600" height="400" viewBox="0 0 2400 1600">
<defs>
  <clipPath id="clip840">
    <rect x="0" y="0" width="2400" height="1600"/>
  </clipPath>
</defs>
<path clip-path="url(#clip840)" d="M0 1600 L2400 1600 L2400 0 L0 0  Z" fill="#ffffff" fill-rule="evenodd" fill-opacity="1"/>
<defs>
  <clipPath id="clip841">
    <rect x="480" y="0" width="1681" height="1600"/>
  </clipPath>
</defs>
<path clip-path="url(#clip840)" d="M186.274 1486.45 L2352.76 1486.45 L2352.76 47.2441 L186.274 47.2441  Z" fill="#ffffff" fill-rule="evenodd" fill-opacity="1"/>
<defs>
  <clipPath id="clip842">
    <rect x="186" y="47" width="2167" height="1440"/>
  </clipPath>
</defs>
<polyline clip-path="url(#clip842)" style="stroke:#000000; stroke-linecap:round; stroke-linejoin:round; stroke-width:2; stroke-opacity:0.1; fill:none" points="247.59,1486.45 247.59,47.2441 "/>
<polyline clip-path="url(#clip842)" style="stroke:#000000; stroke-linecap:round; stroke-linejoin:round; stroke-width:2; stroke-opacity:0.1; fill:none" points="758.552,1486.45 758.552,47.2441 "/>
<polyline clip-path="url(#clip842)" style="stroke:#000000; stroke-linecap:round; stroke-linejoin:round; stroke-width:2; stroke-opacity:0.1; fill:none" points="1269.51,1486.45 1269.51,47.2441 "/>
<polyline clip-path="url(#clip842)" style="stroke:#000000; stroke-linecap:round; stroke-linejoin:round; stroke-width:2; stroke-opacity:0.1; fill:none" points="1780.48,1486.45 1780.48,47.2441 "/>
<polyline clip-path="url(#clip842)" style="stroke:#000000; stroke-linecap:round; stroke-linejoin:round; stroke-width:2; stroke-opacity:0.1; fill:none" points="2291.44,1486.45 2291.44,47.2441 "/>
<polyline clip-path="url(#clip842)" style="stroke:#000000; stroke-linecap:round; stroke-linejoin:round; stroke-width:2; stroke-opacity:0.1; fill:none" points="186.274,1450.99 2352.76,1450.99 "/>
<polyline clip-path="url(#clip842)" style="stroke:#000000; stroke-linecap:round; stroke-linejoin:round; stroke-width:2; stroke-opacity:0.1; fill:none" points="186.274,1110.2 2352.76,1110.2 "/>
<polyline clip-path="url(#clip842)" style="stroke:#000000; stroke-linecap:round; stroke-linejoin:round; stroke-width:2; stroke-opacity:0.1; fill:none" points="186.274,769.409 2352.76,769.409 "/>
<polyline clip-path="url(#clip842)" style="stroke:#000000; stroke-linecap:round; stroke-linejoin:round; stroke-width:2; stroke-opacity:0.1; fill:none" points="186.274,428.621 2352.76,428.621 "/>
<polyline clip-path="url(#clip842)" style="stroke:#000000; stroke-linecap:round; stroke-linejoin:round; stroke-width:2; stroke-opacity:0.1; fill:none" points="186.274,87.8332 2352.76,87.8332 "/>
<polyline clip-path="url(#clip840)" style="stroke:#000000; stroke-linecap:round; stroke-linejoin:round; stroke-width:4; stroke-opacity:1; fill:none" points="186.274,1486.45 2352.76,1486.45 "/>
<polyline clip-path="url(#clip840)" style="stroke:#000000; stroke-linecap:round; stroke-linejoin:round; stroke-width:4; stroke-opacity:1; fill:none" points="247.59,1486.45 247.59,1467.55 "/>
<polyline clip-path="url(#clip840)" style="stroke:#000000; stroke-linecap:round; stroke-linejoin:round; stroke-width:4; stroke-opacity:1; fill:none" points="758.552,1486.45 758.552,1467.55 "/>
<polyline clip-path="url(#clip840)" style="stroke:#000000; stroke-linecap:round; stroke-linejoin:round; stroke-width:4; stroke-opacity:1; fill:none" points="1269.51,1486.45 1269.51,1467.55 "/>
<polyline clip-path="url(#clip840)" style="stroke:#000000; stroke-linecap:round; stroke-linejoin:round; stroke-width:4; stroke-opacity:1; fill:none" points="1780.48,1486.45 1780.48,1467.55 "/>
<polyline clip-path="url(#clip840)" style="stroke:#000000; stroke-linecap:round; stroke-linejoin:round; stroke-width:4; stroke-opacity:1; fill:none" points="2291.44,1486.45 2291.44,1467.55 "/>
<path clip-path="url(#clip840)" d="M224.974 1517.37 Q221.363 1517.37 219.534 1520.93 Q217.729 1524.47 217.729 1531.6 Q217.729 1538.71 219.534 1542.27 Q221.363 1545.82 224.974 1545.82 Q228.608 1545.82 230.414 1542.27 Q232.242 1538.71 232.242 1531.6 Q232.242 1524.47 230.414 1520.93 Q228.608 1517.37 224.974 1517.37 M224.974 1513.66 Q230.784 1513.66 233.84 1518.27 Q236.918 1522.85 236.918 1531.6 Q236.918 1540.33 233.84 1544.94 Q230.784 1549.52 224.974 1549.52 Q219.164 1549.52 216.085 1544.94 Q213.03 1540.33 213.03 1531.6 Q213.03 1522.85 216.085 1518.27 Q219.164 1513.66 224.974 1513.66 Z" fill="#000000" fill-rule="nonzero" fill-opacity="1" /><path clip-path="url(#clip840)" d="M245.136 1542.97 L250.02 1542.97 L250.02 1548.85 L245.136 1548.85 L245.136 1542.97 Z" fill="#000000" fill-rule="nonzero" fill-opacity="1" /><path clip-path="url(#clip840)" d="M270.205 1517.37 Q266.594 1517.37 264.765 1520.93 Q262.96 1524.47 262.96 1531.6 Q262.96 1538.71 264.765 1542.27 Q266.594 1545.82 270.205 1545.82 Q273.839 1545.82 275.645 1542.27 Q277.474 1538.71 277.474 1531.6 Q277.474 1524.47 275.645 1520.93 Q273.839 1517.37 270.205 1517.37 M270.205 1513.66 Q276.015 1513.66 279.071 1518.27 Q282.15 1522.85 282.15 1531.6 Q282.15 1540.33 279.071 1544.94 Q276.015 1549.52 270.205 1549.52 Q264.395 1549.52 261.316 1544.94 Q258.261 1540.33 258.261 1531.6 Q258.261 1522.85 261.316 1518.27 Q264.395 1513.66 270.205 1513.66 Z" fill="#000000" fill-rule="nonzero" fill-opacity="1" /><path clip-path="url(#clip840)" d="M730.289 1544.91 L746.608 1544.91 L746.608 1548.85 L724.664 1548.85 L724.664 1544.91 Q727.326 1542.16 731.909 1537.53 Q736.515 1532.88 737.696 1531.53 Q739.941 1529.01 740.821 1527.27 Q741.724 1525.51 741.724 1523.82 Q741.724 1521.07 739.779 1519.33 Q737.858 1517.6 734.756 1517.6 Q732.557 1517.6 730.103 1518.36 Q727.673 1519.13 724.895 1520.68 L724.895 1515.95 Q727.719 1514.82 730.173 1514.24 Q732.626 1513.66 734.663 1513.66 Q740.034 1513.66 743.228 1516.35 Q746.423 1519.03 746.423 1523.52 Q746.423 1525.65 745.612 1527.57 Q744.825 1529.47 742.719 1532.07 Q742.14 1532.74 739.038 1535.95 Q735.937 1539.15 730.289 1544.91 Z" fill="#000000" fill-rule="nonzero" fill-opacity="1" /><path clip-path="url(#clip840)" d="M756.423 1542.97 L761.307 1542.97 L761.307 1548.85 L756.423 1548.85 L756.423 1542.97 Z" fill="#000000" fill-rule="nonzero" fill-opacity="1" /><path clip-path="url(#clip840)" d="M771.538 1514.29 L789.895 1514.29 L789.895 1518.22 L775.821 1518.22 L775.821 1526.7 Q776.839 1526.35 777.858 1526.19 Q778.876 1526 779.895 1526 Q785.682 1526 789.061 1529.17 Q792.441 1532.34 792.441 1537.76 Q792.441 1543.34 788.969 1546.44 Q785.497 1549.52 779.177 1549.52 Q777.001 1549.52 774.733 1549.15 Q772.487 1548.78 770.08 1548.04 L770.08 1543.34 Q772.163 1544.47 774.385 1545.03 Q776.608 1545.58 779.085 1545.58 Q783.089 1545.58 785.427 1543.48 Q787.765 1541.37 787.765 1537.76 Q787.765 1534.15 785.427 1532.04 Q783.089 1529.94 779.085 1529.94 Q777.21 1529.94 775.335 1530.35 Q773.483 1530.77 771.538 1531.65 L771.538 1514.29 Z" fill="#000000" fill-rule="nonzero" fill-opacity="1" /><path clip-path="url(#clip840)" d="M1236.68 1514.29 L1255.04 1514.29 L1255.04 1518.22 L1240.96 1518.22 L1240.96 1526.7 Q1241.98 1526.35 1243 1526.19 Q1244.02 1526 1245.04 1526 Q1250.82 1526 1254.2 1529.17 Q1257.58 1532.34 1257.58 1537.76 Q1257.58 1543.34 1254.11 1546.44 Q1250.64 1549.52 1244.32 1549.52 Q1242.14 1549.52 1239.87 1549.15 Q1237.63 1548.78 1235.22 1548.04 L1235.22 1543.34 Q1237.3 1544.47 1239.53 1545.03 Q1241.75 1545.58 1244.23 1545.58 Q1248.23 1545.58 1250.57 1543.48 Q1252.91 1541.37 1252.91 1537.76 Q1252.91 1534.15 1250.57 1532.04 Q1248.23 1529.94 1244.23 1529.94 Q1242.35 1529.94 1240.48 1530.35 Q1238.62 1530.77 1236.68 1531.65 L1236.68 1514.29 Z" fill="#000000" fill-rule="nonzero" fill-opacity="1" /><path clip-path="url(#clip840)" d="M1266.8 1542.97 L1271.68 1542.97 L1271.68 1548.85 L1266.8 1548.85 L1266.8 1542.97 Z" fill="#000000" fill-rule="nonzero" fill-opacity="1" /><path clip-path="url(#clip840)" d="M1291.86 1517.37 Q1288.25 1517.37 1286.42 1520.93 Q1284.62 1524.47 1284.62 1531.6 Q1284.62 1538.71 1286.42 1542.27 Q1288.25 1545.82 1291.86 1545.82 Q1295.5 1545.82 1297.3 1542.27 Q1299.13 1538.71 1299.13 1531.6 Q1299.13 1524.47 1297.3 1520.93 Q1295.5 1517.37 1291.86 1517.37 M1291.86 1513.66 Q1297.67 1513.66 1300.73 1518.27 Q1303.81 1522.85 1303.81 1531.6 Q1303.81 1540.33 1300.73 1544.94 Q1297.67 1549.52 1291.86 1549.52 Q1286.05 1549.52 1282.98 1544.94 Q1279.92 1540.33 1279.92 1531.6 Q1279.92 1522.85 1282.98 1518.27 Q1286.05 1513.66 1291.86 1513.66 Z" fill="#000000" fill-rule="nonzero" fill-opacity="1" /><path clip-path="url(#clip840)" d="M1746.8 1514.29 L1769.02 1514.29 L1769.02 1516.28 L1756.47 1548.85 L1751.59 1548.85 L1763.39 1518.22 L1746.8 1518.22 L1746.8 1514.29 Z" fill="#000000" fill-rule="nonzero" fill-opacity="1" /><path clip-path="url(#clip840)" d="M1778.14 1542.97 L1783.02 1542.97 L1783.02 1548.85 L1778.14 1548.85 L1778.14 1542.97 Z" fill="#000000" fill-rule="nonzero" fill-opacity="1" /><path clip-path="url(#clip840)" d="M1793.26 1514.29 L1811.61 1514.29 L1811.61 1518.22 L1797.54 1518.22 L1797.54 1526.7 Q1798.56 1526.35 1799.57 1526.19 Q1800.59 1526 1801.61 1526 Q1807.4 1526 1810.78 1529.17 Q1814.16 1532.34 1814.16 1537.76 Q1814.16 1543.34 1810.69 1546.44 Q1807.21 1549.52 1800.89 1549.52 Q1798.72 1549.52 1796.45 1549.15 Q1794.2 1548.78 1791.8 1548.04 L1791.8 1543.34 Q1793.88 1544.47 1796.1 1545.03 Q1798.32 1545.58 1800.8 1545.58 Q1804.81 1545.58 1807.14 1543.48 Q1809.48 1541.37 1809.48 1537.76 Q1809.48 1534.15 1807.14 1532.04 Q1804.81 1529.94 1800.8 1529.94 Q1798.93 1529.94 1797.05 1530.35 Q1795.2 1530.77 1793.26 1531.65 L1793.26 1514.29 Z" fill="#000000" fill-rule="nonzero" fill-opacity="1" /><path clip-path="url(#clip840)" d="M2243.51 1544.91 L2251.15 1544.91 L2251.15 1518.55 L2242.84 1520.21 L2242.84 1515.95 L2251.1 1514.29 L2255.78 1514.29 L2255.78 1544.91 L2263.42 1544.91 L2263.42 1548.85 L2243.51 1548.85 L2243.51 1544.91 Z" fill="#000000" fill-rule="nonzero" fill-opacity="1" /><path clip-path="url(#clip840)" d="M2282.86 1517.37 Q2279.25 1517.37 2277.42 1520.93 Q2275.62 1524.47 2275.62 1531.6 Q2275.62 1538.71 2277.42 1542.27 Q2279.25 1545.82 2282.86 1545.82 Q2286.5 1545.82 2288.3 1542.27 Q2290.13 1538.71 2290.13 1531.6 Q2290.13 1524.47 2288.3 1520.93 Q2286.5 1517.37 2282.86 1517.37 M2282.86 1513.66 Q2288.67 1513.66 2291.73 1518.27 Q2294.81 1522.85 2294.81 1531.6 Q2294.81 1540.33 2291.73 1544.94 Q2288.67 1549.52 2282.86 1549.52 Q2277.05 1549.52 2273.98 1544.94 Q2270.92 1540.33 2270.92 1531.6 Q2270.92 1522.85 2273.98 1518.27 Q2277.05 1513.66 2282.86 1513.66 Z" fill="#000000" fill-rule="nonzero" fill-opacity="1" /><path clip-path="url(#clip840)" d="M2303.03 1542.97 L2307.91 1542.97 L2307.91 1548.85 L2303.03 1548.85 L2303.03 1542.97 Z" fill="#000000" fill-rule="nonzero" fill-opacity="1" /><path clip-path="url(#clip840)" d="M2328.1 1517.37 Q2324.48 1517.37 2322.66 1520.93 Q2320.85 1524.47 2320.85 1531.6 Q2320.85 1538.71 2322.66 1542.27 Q2324.48 1545.82 2328.1 1545.82 Q2331.73 1545.82 2333.54 1542.27 Q2335.36 1538.71 2335.36 1531.6 Q2335.36 1524.47 2333.54 1520.93 Q2331.73 1517.37 2328.1 1517.37 M2328.1 1513.66 Q2333.91 1513.66 2336.96 1518.27 Q2340.04 1522.85 2340.04 1531.6 Q2340.04 1540.33 2336.96 1544.94 Q2333.91 1549.52 2328.1 1549.52 Q2322.29 1549.52 2319.21 1544.94 Q2316.15 1540.33 2316.15 1531.6 Q2316.15 1522.85 2319.21 1518.27 Q2322.29 1513.66 2328.1 1513.66 Z" fill="#000000" fill-rule="nonzero" fill-opacity="1" /><polyline clip-path="url(#clip840)" style="stroke:#000000; stroke-linecap:round; stroke-linejoin:round; stroke-width:4; stroke-opacity:1; fill:none" points="186.274,1486.45 186.274,47.2441 "/>
<polyline clip-path="url(#clip840)" style="stroke:#000000; stroke-linecap:round; stroke-linejoin:round; stroke-width:4; stroke-opacity:1; fill:none" points="186.274,1450.99 205.172,1450.99 "/>
<polyline clip-path="url(#clip840)" style="stroke:#000000; stroke-linecap:round; stroke-linejoin:round; stroke-width:4; stroke-opacity:1; fill:none" points="186.274,1110.2 205.172,1110.2 "/>
<polyline clip-path="url(#clip840)" style="stroke:#000000; stroke-linecap:round; stroke-linejoin:round; stroke-width:4; stroke-opacity:1; fill:none" points="186.274,769.409 205.172,769.409 "/>
<polyline clip-path="url(#clip840)" style="stroke:#000000; stroke-linecap:round; stroke-linejoin:round; stroke-width:4; stroke-opacity:1; fill:none" points="186.274,428.621 205.172,428.621 "/>
<polyline clip-path="url(#clip840)" style="stroke:#000000; stroke-linecap:round; stroke-linejoin:round; stroke-width:4; stroke-opacity:1; fill:none" points="186.274,87.8332 205.172,87.8332 "/>
<path clip-path="url(#clip840)" d="M62.9365 1436.78 Q59.3254 1436.78 57.4967 1440.35 Q55.6912 1443.89 55.6912 1451.02 Q55.6912 1458.13 57.4967 1461.69 Q59.3254 1465.23 62.9365 1465.23 Q66.5707 1465.23 68.3763 1461.69 Q70.205 1458.13 70.205 1451.02 Q70.205 1443.89 68.3763 1440.35 Q66.5707 1436.78 62.9365 1436.78 M62.9365 1433.08 Q68.7467 1433.08 71.8022 1437.69 Q74.8809 1442.27 74.8809 1451.02 Q74.8809 1459.75 71.8022 1464.35 Q68.7467 1468.94 62.9365 1468.94 Q57.1264 1468.94 54.0477 1464.35 Q50.9921 1459.75 50.9921 1451.02 Q50.9921 1442.27 54.0477 1437.69 Q57.1264 1433.08 62.9365 1433.08 Z" fill="#000000" fill-rule="nonzero" fill-opacity="1" /><path clip-path="url(#clip840)" d="M83.0984 1462.39 L87.9827 1462.39 L87.9827 1468.27 L83.0984 1468.27 L83.0984 1462.39 Z" fill="#000000" fill-rule="nonzero" fill-opacity="1" /><path clip-path="url(#clip840)" d="M108.168 1436.78 Q104.557 1436.78 102.728 1440.35 Q100.922 1443.89 100.922 1451.02 Q100.922 1458.13 102.728 1461.69 Q104.557 1465.23 108.168 1465.23 Q111.802 1465.23 113.608 1461.69 Q115.436 1458.13 115.436 1451.02 Q115.436 1443.89 113.608 1440.35 Q111.802 1436.78 108.168 1436.78 M108.168 1433.08 Q113.978 1433.08 117.033 1437.69 Q120.112 1442.27 120.112 1451.02 Q120.112 1459.75 117.033 1464.35 Q113.978 1468.94 108.168 1468.94 Q102.358 1468.94 99.2789 1464.35 Q96.2234 1459.75 96.2234 1451.02 Q96.2234 1442.27 99.2789 1437.69 Q102.358 1433.08 108.168 1433.08 Z" fill="#000000" fill-rule="nonzero" fill-opacity="1" /><path clip-path="url(#clip840)" d="M138.33 1436.78 Q134.719 1436.78 132.89 1440.35 Q131.084 1443.89 131.084 1451.02 Q131.084 1458.13 132.89 1461.69 Q134.719 1465.23 138.33 1465.23 Q141.964 1465.23 143.769 1461.69 Q145.598 1458.13 145.598 1451.02 Q145.598 1443.89 143.769 1440.35 Q141.964 1436.78 138.33 1436.78 M138.33 1433.08 Q144.14 1433.08 147.195 1437.69 Q150.274 1442.27 150.274 1451.02 Q150.274 1459.75 147.195 1464.35 Q144.14 1468.94 138.33 1468.94 Q132.519 1468.94 129.441 1464.35 Q126.385 1459.75 126.385 1451.02 Q126.385 1442.27 129.441 1437.69 Q132.519 1433.08 138.33 1433.08 Z" fill="#000000" fill-rule="nonzero" fill-opacity="1" /><path clip-path="url(#clip840)" d="M63.9319 1096 Q60.3208 1096 58.4921 1099.56 Q56.6865 1103.1 56.6865 1110.23 Q56.6865 1117.34 58.4921 1120.9 Q60.3208 1124.45 63.9319 1124.45 Q67.5661 1124.45 69.3717 1120.9 Q71.2004 1117.34 71.2004 1110.23 Q71.2004 1103.1 69.3717 1099.56 Q67.5661 1096 63.9319 1096 M63.9319 1092.29 Q69.742 1092.29 72.7976 1096.9 Q75.8763 1101.48 75.8763 1110.23 Q75.8763 1118.96 72.7976 1123.57 Q69.742 1128.15 63.9319 1128.15 Q58.1217 1128.15 55.043 1123.57 Q51.9875 1118.96 51.9875 1110.23 Q51.9875 1101.48 55.043 1096.9 Q58.1217 1092.29 63.9319 1092.29 Z" fill="#000000" fill-rule="nonzero" fill-opacity="1" /><path clip-path="url(#clip840)" d="M84.0938 1121.6 L88.978 1121.6 L88.978 1127.48 L84.0938 1127.48 L84.0938 1121.6 Z" fill="#000000" fill-rule="nonzero" fill-opacity="1" /><path clip-path="url(#clip840)" d="M103.191 1123.54 L119.51 1123.54 L119.51 1127.48 L97.566 1127.48 L97.566 1123.54 Q100.228 1120.79 104.811 1116.16 Q109.418 1111.51 110.598 1110.16 Q112.844 1107.64 113.723 1105.9 Q114.626 1104.14 114.626 1102.45 Q114.626 1099.7 112.682 1097.96 Q110.76 1096.23 107.658 1096.23 Q105.459 1096.23 103.006 1096.99 Q100.575 1097.76 97.7974 1099.31 L97.7974 1094.58 Q100.621 1093.45 103.075 1092.87 Q105.529 1092.29 107.566 1092.29 Q112.936 1092.29 116.131 1094.98 Q119.325 1097.66 119.325 1102.15 Q119.325 1104.28 118.515 1106.2 Q117.728 1108.1 115.621 1110.7 Q115.043 1111.37 111.941 1114.58 Q108.839 1117.78 103.191 1123.54 Z" fill="#000000" fill-rule="nonzero" fill-opacity="1" /><path clip-path="url(#clip840)" d="M129.371 1092.92 L147.728 1092.92 L147.728 1096.85 L133.654 1096.85 L133.654 1105.32 Q134.672 1104.98 135.691 1104.82 Q136.709 1104.63 137.728 1104.63 Q143.515 1104.63 146.894 1107.8 Q150.274 1110.97 150.274 1116.39 Q150.274 1121.97 146.802 1125.07 Q143.33 1128.15 137.01 1128.15 Q134.834 1128.15 132.566 1127.78 Q130.32 1127.41 127.913 1126.67 L127.913 1121.97 Q129.996 1123.1 132.219 1123.66 Q134.441 1124.21 136.918 1124.21 Q140.922 1124.21 143.26 1122.11 Q145.598 1120 145.598 1116.39 Q145.598 1112.78 143.26 1110.67 Q140.922 1108.57 136.918 1108.57 Q135.043 1108.57 133.168 1108.98 Q131.316 1109.4 129.371 1110.28 L129.371 1092.92 Z" fill="#000000" fill-rule="nonzero" fill-opacity="1" /><path clip-path="url(#clip840)" d="M62.9365 755.208 Q59.3254 755.208 57.4967 758.773 Q55.6912 762.315 55.6912 769.444 Q55.6912 776.551 57.4967 780.115 Q59.3254 783.657 62.9365 783.657 Q66.5707 783.657 68.3763 780.115 Q70.205 776.551 70.205 769.444 Q70.205 762.315 68.3763 758.773 Q66.5707 755.208 62.9365 755.208 M62.9365 751.504 Q68.7467 751.504 71.8022 756.111 Q74.8809 760.694 74.8809 769.444 Q74.8809 778.171 71.8022 782.777 Q68.7467 787.361 62.9365 787.361 Q57.1264 787.361 54.0477 782.777 Q50.9921 778.171 50.9921 769.444 Q50.9921 760.694 54.0477 756.111 Q57.1264 751.504 62.9365 751.504 Z" fill="#000000" fill-rule="nonzero" fill-opacity="1" /><path clip-path="url(#clip840)" d="M83.0984 780.81 L87.9827 780.81 L87.9827 786.689 L83.0984 786.689 L83.0984 780.81 Z" fill="#000000" fill-rule="nonzero" fill-opacity="1" /><path clip-path="url(#clip840)" d="M98.2141 752.129 L116.57 752.129 L116.57 756.065 L102.496 756.065 L102.496 764.537 Q103.515 764.19 104.534 764.027 Q105.552 763.842 106.571 763.842 Q112.358 763.842 115.737 767.014 Q119.117 770.185 119.117 775.601 Q119.117 781.18 115.645 784.282 Q112.172 787.361 105.853 787.361 Q103.677 787.361 101.409 786.99 Q99.1632 786.62 96.7558 785.879 L96.7558 781.18 Q98.8391 782.314 101.061 782.87 Q103.284 783.426 105.76 783.426 Q109.765 783.426 112.103 781.319 Q114.441 779.213 114.441 775.601 Q114.441 771.99 112.103 769.884 Q109.765 767.777 105.76 767.777 Q103.885 767.777 102.01 768.194 Q100.159 768.611 98.2141 769.49 L98.2141 752.129 Z" fill="#000000" fill-rule="nonzero" fill-opacity="1" /><path clip-path="url(#clip840)" d="M138.33 755.208 Q134.719 755.208 132.89 758.773 Q131.084 762.315 131.084 769.444 Q131.084 776.551 132.89 780.115 Q134.719 783.657 138.33 783.657 Q141.964 783.657 143.769 780.115 Q145.598 776.551 145.598 769.444 Q145.598 762.315 143.769 758.773 Q141.964 755.208 138.33 755.208 M138.33 751.504 Q144.14 751.504 147.195 756.111 Q150.274 760.694 150.274 769.444 Q150.274 778.171 147.195 782.777 Q144.14 787.361 138.33 787.361 Q132.519 787.361 129.441 782.777 Q126.385 778.171 126.385 769.444 Q126.385 760.694 129.441 756.111 Q132.519 751.504 138.33 751.504 Z" fill="#000000" fill-rule="nonzero" fill-opacity="1" /><path clip-path="url(#clip840)" d="M63.9319 414.42 Q60.3208 414.42 58.4921 417.985 Q56.6865 421.526 56.6865 428.656 Q56.6865 435.762 58.4921 439.327 Q60.3208 442.869 63.9319 442.869 Q67.5661 442.869 69.3717 439.327 Q71.2004 435.762 71.2004 428.656 Q71.2004 421.526 69.3717 417.985 Q67.5661 414.42 63.9319 414.42 M63.9319 410.716 Q69.742 410.716 72.7976 415.323 Q75.8763 419.906 75.8763 428.656 Q75.8763 437.383 72.7976 441.989 Q69.742 446.573 63.9319 446.573 Q58.1217 446.573 55.043 441.989 Q51.9875 437.383 51.9875 428.656 Q51.9875 419.906 55.043 415.323 Q58.1217 410.716 63.9319 410.716 Z" fill="#000000" fill-rule="nonzero" fill-opacity="1" /><path clip-path="url(#clip840)" d="M84.0938 440.022 L88.978 440.022 L88.978 445.901 L84.0938 445.901 L84.0938 440.022 Z" fill="#000000" fill-rule="nonzero" fill-opacity="1" /><path clip-path="url(#clip840)" d="M97.9826 411.341 L120.205 411.341 L120.205 413.332 L107.658 445.901 L102.774 445.901 L114.58 415.276 L97.9826 415.276 L97.9826 411.341 Z" fill="#000000" fill-rule="nonzero" fill-opacity="1" /><path clip-path="url(#clip840)" d="M129.371 411.341 L147.728 411.341 L147.728 415.276 L133.654 415.276 L133.654 423.749 Q134.672 423.401 135.691 423.239 Q136.709 423.054 137.728 423.054 Q143.515 423.054 146.894 426.225 Q150.274 429.397 150.274 434.813 Q150.274 440.392 146.802 443.494 Q143.33 446.573 137.01 446.573 Q134.834 446.573 132.566 446.202 Q130.32 445.832 127.913 445.091 L127.913 440.392 Q129.996 441.526 132.219 442.082 Q134.441 442.637 136.918 442.637 Q140.922 442.637 143.26 440.531 Q145.598 438.424 145.598 434.813 Q145.598 431.202 143.26 429.096 Q140.922 426.989 136.918 426.989 Q135.043 426.989 133.168 427.406 Q131.316 427.823 129.371 428.702 L129.371 411.341 Z" fill="#000000" fill-rule="nonzero" fill-opacity="1" /><path clip-path="url(#clip840)" d="M53.7467 101.178 L61.3856 101.178 L61.3856 74.8125 L53.0754 76.4791 L53.0754 72.2199 L61.3393 70.5532 L66.0152 70.5532 L66.0152 101.178 L73.654 101.178 L73.654 105.113 L53.7467 105.113 L53.7467 101.178 Z" fill="#000000" fill-rule="nonzero" fill-opacity="1" /><path clip-path="url(#clip840)" d="M83.0984 99.2336 L87.9827 99.2336 L87.9827 105.113 L83.0984 105.113 L83.0984 99.2336 Z" fill="#000000" fill-rule="nonzero" fill-opacity="1" /><path clip-path="url(#clip840)" d="M108.168 73.6319 Q104.557 73.6319 102.728 77.1967 Q100.922 80.7384 100.922 87.868 Q100.922 94.9744 102.728 98.5392 Q104.557 102.081 108.168 102.081 Q111.802 102.081 113.608 98.5392 Q115.436 94.9744 115.436 87.868 Q115.436 80.7384 113.608 77.1967 Q111.802 73.6319 108.168 73.6319 M108.168 69.9282 Q113.978 69.9282 117.033 74.5347 Q120.112 79.118 120.112 87.868 Q120.112 96.5948 117.033 101.201 Q113.978 105.785 108.168 105.785 Q102.358 105.785 99.2789 101.201 Q96.2234 96.5948 96.2234 87.868 Q96.2234 79.118 99.2789 74.5347 Q102.358 69.9282 108.168 69.9282 Z" fill="#000000" fill-rule="nonzero" fill-opacity="1" /><path clip-path="url(#clip840)" d="M138.33 73.6319 Q134.719 73.6319 132.89 77.1967 Q131.084 80.7384 131.084 87.868 Q131.084 94.9744 132.89 98.5392 Q134.719 102.081 138.33 102.081 Q141.964 102.081 143.769 98.5392 Q145.598 94.9744 145.598 87.868 Q145.598 80.7384 143.769 77.1967 Q141.964 73.6319 138.33 73.6319 M138.33 69.9282 Q144.14 69.9282 147.195 74.5347 Q150.274 79.118 150.274 87.868 Q150.274 96.5948 147.195 101.201 Q144.14 105.785 138.33 105.785 Q132.519 105.785 129.441 101.201 Q126.385 96.5948 126.385 87.868 Q126.385 79.118 129.441 74.5347 Q132.519 69.9282 138.33 69.9282 Z" fill="#000000" fill-rule="nonzero" fill-opacity="1" /><polyline clip-path="url(#clip842)" style="stroke:#009af9; stroke-linecap:round; stroke-linejoin:round; stroke-width:4; stroke-opacity:1; fill:none" points="247.59,1445.72 254.243,1445.32 260.896,1444.9 322.415,1439.45 383.935,1429.96 420.905,1421.42 457.876,1410 489.134,1397.58 520.392,1382.12 537.37,1372.26 554.347,1361.26 571.325,1349.05 588.302,1335.52 603.954,1321.82 619.606,1306.87 635.258,1290.61 650.909,1272.98 667.69,1252.49 684.47,1230.3 701.25,1206.37 718.031,1180.66 737.472,1148.6 756.914,1114.1 776.356,1077.17 795.798,1037.85 813.075,1000.98 830.353,962.371 847.63,922.131 864.908,880.391 895.209,804.057 925.511,724.641 958.548,636.029 991.585,547.164 1008.2,503.039 1024.82,459.675 1041.43,417.369 1058.05,376.418 1076.42,333.081 1094.79,292.164 1113.17,254.056 1131.54,219.126 1140.28,203.725 1149.02,189.158 1157.76,175.459 1166.5,162.658 1175.24,150.785 1183.98,139.869 1192.72,129.936 1201.46,121.009 1210.55,112.817 1219.63,105.756 1228.72,99.8468 1237.81,95.103 1246.9,91.5376 1255.99,89.1599 1265.07,87.9763 1274.16,87.9898 1289.46,90.7152 1304.76,96.812 1312.41,101.112 1320.06,106.235 1327.71,112.173 1335.36,118.914 1344.7,128.215 1354.04,138.67 1363.38,150.25 1372.72,162.924 1382.06,176.657 1391.4,191.414 1400.74,207.154 1410.08,223.838 1427.19,256.704 1444.3,292.306 1461.41,330.343 1478.52,370.502 1494.33,409.2 1510.13,449.178 1525.94,490.177 1541.74,531.945 1573.76,617.893 1605.77,703.996 1641.66,798.475 1677.54,888.759 1693.8,927.808 1710.06,965.512 1726.31,1001.76 1742.57,1036.48 1761.18,1074.24 1779.8,1109.82 1798.41,1143.18 1817.03,1174.3 1834.26,1201.13 1851.5,1226.06 1868.73,1249.15 1885.97,1270.44 1902.96,1289.73 1919.95,1307.4 1936.94,1323.52 1953.93,1338.18 1970.43,1351.1 1986.93,1362.79 2003.43,1373.33 2019.92,1382.82 2053.75,1399.27 2087.57,1412.22 2124.63,1423.11 2161.69,1431.23 2215.52,1439.32 2269.35,1444.3 2280.4,1445.05 2291.44,1445.72 "/>
</svg>
