<?xml version="1.0" encoding="utf-8"?>
<svg xmlns="http://www.w3.org/2000/svg" xmlns:xlink="http://www.w3.org/1999/xlink" width="600" height="400" viewBox="0 0 2400 1600">
<defs>
  <clipPath id="clip500">
    <rect x="0" y="0" width="2400" height="1600"/>
  </clipPath>
</defs>
<path clip-path="url(#clip500)" d="M0 1600 L2400 1600 L2400 0 L0 0  Z" fill="#ffffff" fill-rule="evenodd" fill-opacity="1"/>
<defs>
  <clipPath id="clip501">
    <rect x="480" y="0" width="1681" height="1600"/>
  </clipPath>
</defs>
<path clip-path="url(#clip500)" d="M186.274 1486.45 L2352.76 1486.45 L2352.76 47.2441 L186.274 47.2441  Z" fill="#ffffff" fill-rule="evenodd" fill-opacity="1"/>
<defs>
  <clipPath id="clip502">
    <rect x="186" y="47" width="2167" height="1440"/>
  </clipPath>
</defs>
<polyline clip-path="url(#clip502)" style="stroke:#000000; stroke-linecap:round; stroke-linejoin:round; stroke-width:2; stroke-opacity:0.1; fill:none" points="247.59,1486.45 247.59,47.2441 "/>
<polyline clip-path="url(#clip502)" style="stroke:#000000; stroke-linecap:round; stroke-linejoin:round; stroke-width:2; stroke-opacity:0.1; fill:none" points="758.552,1486.45 758.552,47.2441 "/>
<polyline clip-path="url(#clip502)" style="stroke:#000000; stroke-linecap:round; stroke-linejoin:round; stroke-width:2; stroke-opacity:0.1; fill:none" points="1269.51,1486.45 1269.51,47.2441 "/>
<polyline clip-path="url(#clip502)" style="stroke:#000000; stroke-linecap:round; stroke-linejoin:round; stroke-width:2; stroke-opacity:0.1; fill:none" points="1780.48,1486.45 1780.48,47.2441 "/>
<polyline clip-path="url(#clip502)" style="stroke:#000000; stroke-linecap:round; stroke-linejoin:round; stroke-width:2; stroke-opacity:0.1; fill:none" points="2291.44,1486.45 2291.44,47.2441 "/>
<polyline clip-path="url(#clip502)" style="stroke:#000000; stroke-linecap:round; stroke-linejoin:round; stroke-width:2; stroke-opacity:0.1; fill:none" points="186.274,1445.72 2352.76,1445.72 "/>
<polyline clip-path="url(#clip502)" style="stroke:#000000; stroke-linecap:round; stroke-linejoin:round; stroke-width:2; stroke-opacity:0.1; fill:none" points="186.274,1106.2 2352.76,1106.2 "/>
<polyline clip-path="url(#clip502)" style="stroke:#000000; stroke-linecap:round; stroke-linejoin:round; stroke-width:2; stroke-opacity:0.1; fill:none" points="186.274,766.676 2352.76,766.676 "/>
<polyline clip-path="url(#clip502)" style="stroke:#000000; stroke-linecap:round; stroke-linejoin:round; stroke-width:2; stroke-opacity:0.1; fill:none" points="186.274,427.156 2352.76,427.156 "/>
<polyline clip-path="url(#clip502)" style="stroke:#000000; stroke-linecap:round; stroke-linejoin:round; stroke-width:2; stroke-opacity:0.1; fill:none" points="186.274,87.636 2352.76,87.636 "/>
<polyline clip-path="url(#clip500)" style="stroke:#000000; stroke-linecap:round; stroke-linejoin:round; stroke-width:4; stroke-opacity:1; fill:none" points="186.274,1486.45 2352.76,1486.45 "/>
<polyline clip-path="url(#clip500)" style="stroke:#000000; stroke-linecap:round; stroke-linejoin:round; stroke-width:4; stroke-opacity:1; fill:none" points="247.59,1486.45 247.59,1467.55 "/>
<polyline clip-path="url(#clip500)" style="stroke:#000000; stroke-linecap:round; stroke-linejoin:round; stroke-width:4; stroke-opacity:1; fill:none" points="758.552,1486.45 758.552,1467.55 "/>
<polyline clip-path="url(#clip500)" style="stroke:#000000; stroke-linecap:round; stroke-linejoin:round; stroke-width:4; stroke-opacity:1; fill:none" points="1269.51,1486.45 1269.51,1467.55 "/>
<polyline clip-path="url(#clip500)" style="stroke:#000000; stroke-linecap:round; stroke-linejoin:round; stroke-width:4; stroke-opacity:1; fill:none" points="1780.48,1486.45 1780.48,1467.55 "/>
<polyline clip-path="url(#clip500)" style="stroke:#000000; stroke-linecap:round; stroke-linejoin:round; stroke-width:4; stroke-opacity:1; fill:none" points="2291.44,1486.45 2291.44,1467.55 "/>
<path clip-path="url(#clip500)" d="M224.974 1517.37 Q221.363 1517.37 219.534 1520.93 Q217.729 1524.47 217.729 1531.6 Q217.729 1538.71 219.534 1542.27 Q221.363 1545.82 224.974 1545.82 Q228.608 1545.82 230.414 1542.27 Q232.242 1538.71 232.242 1531.6 Q232.242 1524.47 230.414 1520.93 Q228.608 1517.37 224.974 1517.37 M224.974 1513.66 Q230.784 1513.66 233.84 1518.27 Q236.918 1522.85 236.918 1531.6 Q236.918 1540.33 233.84 1544.94 Q230.784 1549.52 224.974 1549.52 Q219.164 1549.52 216.085 1544.94 Q213.03 1540.33 213.03 1531.6 Q213.03 1522.85 216.085 1518.27 Q219.164 1513.66 224.974 1513.66 Z" fill="#000000" fill-rule="nonzero" fill-opacity="1" /><path clip-path="url(#clip500)" d="M245.136 1542.97 L250.02 1542.97 L250.02 1548.85 L245.136 1548.85 L245.136 1542.97 Z" fill="#000000" fill-rule="nonzero" fill-opacity="1" /><path clip-path="url(#clip500)" d="M270.205 1517.37 Q266.594 1517.37 264.765 1520.93 Q262.96 1524.47 262.96 1531.6 Q262.96 1538.71 264.765 1542.27 Q266.594 1545.82 270.205 1545.82 Q273.839 1545.82 275.645 1542.27 Q277.474 1538.71 277.474 1531.6 Q277.474 1524.47 275.645 1520.93 Q273.839 1517.37 270.205 1517.37 M270.205 1513.66 Q276.015 1513.66 279.071 1518.27 Q282.15 1522.85 282.15 1531.6 Q282.15 1540.33 279.071 1544.94 Q276.015 1549.52 270.205 1549.52 Q264.395 1549.52 261.316 1544.94 Q258.261 1540.33 258.261 1531.6 Q258.261 1522.85 261.316 1518.27 Q264.395 1513.66 270.205 1513.66 Z" fill="#000000" fill-rule="nonzero" fill-opacity="1" /><path clip-path="url(#clip500)" d="M730.289 1544.91 L746.608 1544.91 L746.608 1548.85 L724.664 1548.85 L724.664 1544.91 Q727.326 1542.16 731.909 1537.53 Q736.515 1532.88 737.696 1531.53 Q739.941 1529.01 740.821 1527.27 Q741.724 1525.51 741.724 1523.82 Q741.724 1521.07 739.779 1519.33 Q737.858 1517.6 734.756 1517.6 Q732.557 1517.6 730.103 1518.36 Q727.673 1519.13 724.895 1520.68 L724.895 1515.95 Q727.719 1514.82 730.173 1514.24 Q732.626 1513.66 734.663 1513.66 Q740.034 1513.66 743.228 1516.35 Q746.423 1519.03 746.423 1523.52 Q746.423 1525.65 745.612 1527.57 Q744.825 1529.47 742.719 1532.07 Q742.14 1532.74 739.038 1535.95 Q735.937 1539.15 730.289 1544.91 Z" fill="#000000" fill-rule="nonzero" fill-opacity="1" /><path clip-path="url(#clip500)" d="M756.423 1542.97 L761.307 1542.97 L761.307 1548.85 L756.423 1548.85 L756.423 1542.97 Z" fill="#000000" fill-rule="nonzero" fill-opacity="1" /><path clip-path="url(#clip500)" d="M771.538 1514.29 L789.895 1514.29 L789.895 1518.22 L775.821 1518.22 L775.821 1526.7 Q776.839 1526.35 777.858 1526.19 Q778.876 1526 779.895 1526 Q785.682 1526 789.061 1529.17 Q792.441 1532.34 792.441 1537.76 Q792.441 1543.34 788.969 1546.44 Q785.497 1549.52 779.177 1549.52 Q777.001 1549.52 774.733 1549.15 Q772.487 1548.78 770.08 1548.04 L770.08 1543.34 Q772.163 1544.47 774.385 1545.03 Q776.608 1545.58 779.085 1545.58 Q783.089 1545.58 785.427 1543.48 Q787.765 1541.37 787.765 1537.76 Q787.765 1534.15 785.427 1532.04 Q783.089 1529.94 779.085 1529.94 Q777.21 1529.94 775.335 1530.35 Q773.483 1530.77 771.538 1531.65 L771.538 1514.29 Z" fill="#000000" fill-rule="nonzero" fill-opacity="1" /><path clip-path="url(#clip500)" d="M1236.68 1514.29 L1255.04 1514.29 L1255.04 1518.22 L1240.96 1518.22 L1240.96 1526.7 Q1241.98 1526.35 1243 1526.19 Q1244.02 1526 1245.04 1526 Q1250.82 1526 1254.2 1529.17 Q1257.58 1532.34 1257.58 1537.76 Q1257.58 1543.34 1254.11 1546.44 Q1250.64 1549.52 1244.32 1549.52 Q1242.14 1549.52 1239.87 1549.15 Q1237.63 1548.78 1235.22 1548.04 L1235.22 1543.34 Q1237.3 1544.47 1239.53 1545.03 Q1241.75 1545.58 1244.23 1545.58 Q1248.23 1545.58 1250.57 1543.48 Q1252.91 1541.37 1252.91 1537.76 Q1252.91 1534.15 1250.57 1532.04 Q1248.23 1529.94 1244.23 1529.94 Q1242.35 1529.94 1240.48 1530.35 Q1238.62 1530.77 1236.68 1531.65 L1236.68 1514.29 Z" fill="#000000" fill-rule="nonzero" fill-opacity="1" /><path clip-path="url(#clip500)" d="M1266.8 1542.97 L1271.68 1542.97 L1271.68 1548.85 L1266.8 1548.85 L1266.8 1542.97 Z" fill="#000000" fill-rule="nonzero" fill-opacity="1" /><path clip-path="url(#clip500)" d="M1291.86 1517.37 Q1288.25 1517.37 1286.42 1520.93 Q1284.62 1524.47 1284.62 1531.6 Q1284.62 1538.71 1286.42 1542.27 Q1288.25 1545.82 1291.86 1545.82 Q1295.5 1545.82 1297.3 1542.27 Q1299.13 1538.71 1299.13 1531.6 Q1299.13 1524.47 1297.3 1520.93 Q1295.5 1517.37 1291.86 1517.37 M1291.86 1513.66 Q1297.67 1513.66 1300.73 1518.27 Q1303.81 1522.85 1303.81 1531.6 Q1303.81 1540.33 1300.73 1544.94 Q1297.67 1549.52 1291.86 1549.52 Q1286.05 1549.52 1282.98 1544.94 Q1279.92 1540.33 1279.92 1531.6 Q1279.92 1522.85 1282.98 1518.27 Q1286.05 1513.66 1291.86 1513.66 Z" fill="#000000" fill-rule="nonzero" fill-opacity="1" /><path clip-path="url(#clip500)" d="M1746.8 1514.29 L1769.02 1514.29 L1769.02 1516.28 L1756.47 1548.85 L1751.59 1548.85 L1763.39 1518.22 L1746.8 1518.22 L1746.8 1514.29 Z" fill="#000000" fill-rule="nonzero" fill-opacity="1" /><path clip-path="url(#clip500)" d="M1778.14 1542.97 L1783.02 1542.97 L1783.02 1548.85 L1778.14 1548.85 L1778.14 1542.97 Z" fill="#000000" fill-rule="nonzero" fill-opacity="1" /><path clip-path="url(#clip500)" d="M1793.26 1514.29 L1811.61 1514.29 L1811.61 1518.22 L1797.54 1518.22 L1797.54 1526.7 Q1798.56 1526.35 1799.57 1526.19 Q1800.59 1526 1801.61 1526 Q1807.4 1526 1810.78 1529.17 Q1814.16 1532.34 1814.16 1537.76 Q1814.16 1543.34 1810.69 1546.44 Q1807.21 1549.52 1800.89 1549.52 Q1798.72 1549.52 1796.45 1549.15 Q1794.2 1548.78 1791.8 1548.04 L1791.8 1543.34 Q1793.88 1544.47 1796.1 1545.03 Q1798.32 1545.58 1800.8 1545.58 Q1804.81 1545.58 1807.14 1543.48 Q1809.48 1541.37 1809.48 1537.76 Q1809.48 1534.15 1807.14 1532.04 Q1804.81 1529.94 1800.8 1529.94 Q1798.93 1529.94 1797.05 1530.35 Q1795.2 1530.77 1793.26 1531.65 L1793.26 1514.29 Z" fill="#000000" fill-rule="nonzero" fill-opacity="1" /><path clip-path="url(#clip500)" d="M2243.51 1544.91 L2251.15 1544.91 L2251.15 1518.55 L2242.84 1520.21 L2242.84 1515.95 L2251.1 1514.29 L2255.78 1514.29 L2255.78 1544.91 L2263.42 1544.91 L2263.42 1548.85 L2243.51 1548.85 L2243.51 1544.91 Z" fill="#000000" fill-rule="nonzero" fill-opacity="1" /><path clip-path="url(#clip500)" d="M2282.86 1517.37 Q2279.25 1517.37 2277.42 1520.93 Q2275.62 1524.47 2275.62 1531.6 Q2275.62 1538.71 2277.42 1542.27 Q2279.25 1545.82 2282.86 1545.82 Q2286.5 1545.82 2288.3 1542.27 Q2290.13 1538.71 2290.13 1531.6 Q2290.13 1524.47 2288.3 1520.93 Q2286.5 1517.37 2282.86 1517.37 M2282.86 1513.66 Q2288.67 1513.66 2291.73 1518.27 Q2294.81 1522.85 2294.81 1531.6 Q2294.81 1540.33 2291.73 1544.94 Q2288.67 1549.52 2282.86 1549.52 Q2277.05 1549.52 2273.98 1544.94 Q2270.92 1540.33 2270.92 1531.6 Q2270.92 1522.85 2273.98 1518.27 Q2277.05 1513.66 2282.86 1513.66 Z" fill="#000000" fill-rule="nonzero" fill-opacity="1" /><path clip-path="url(#clip500)" d="M2303.03 1542.97 L2307.91 1542.97 L2307.91 1548.85 L2303.03 1548.85 L2303.03 1542.97 Z" fill="#000000" fill-rule="nonzero" fill-opacity="1" /><path clip-path="url(#clip500)" d="M2328.1 1517.37 Q2324.48 1517.37 2322.66 1520.93 Q2320.85 1524.47 2320.85 1531.6 Q2320.85 1538.71 2322.66 1542.27 Q2324.48 1545.82 2328.1 1545.82 Q2331.73 1545.82 2333.54 1542.27 Q2335.36 1538.71 2335.36 1531.6 Q2335.36 1524.47 2333.54 1520.93 Q2331.73 1517.37 2328.1 1517.37 M2328.1 1513.66 Q2333.91 1513.66 2336.96 1518.27 Q2340.04 1522.85 2340.04 1531.6 Q2340.04 1540.33 2336.96 1544.94 Q2333.91 1549.52 2328.1 1549.52 Q2322.29 1549.52 2319.21 1544.94 Q2316.15 1540.33 2316.15 1531.6 Q2316.15 1522.85 2319.21 1518.27 Q2322.29 1513.66 2328.1 1513.66 Z" fill="#000000" fill-rule="nonzero" fill-opacity="1" /><polyline clip-path="url(#clip500)" style="stroke:#000000; stroke-linecap:round; stroke-linejoin:round; stroke-width:4; stroke-opacity:1; fill:none" points="186.274,1486.45 186.274,47.2441 "/>
<polyline clip-path="url(#clip500)" style="stroke:#000000; stroke-linecap:round; stroke-linejoin:round; stroke-width:4; stroke-opacity:1; fill:none" points="186.274,1445.72 205.172,1445.72 "/>
<polyline clip-path="url(#clip500)" style="stroke:#000000; stroke-linecap:round; stroke-linejoin:round; stroke-width:4; stroke-opacity:1; fill:none" points="186.274,1106.2 205.172,1106.2 "/>
<polyline clip-path="url(#clip500)" style="stroke:#000000; stroke-linecap:round; stroke-linejoin:round; stroke-width:4; stroke-opacity:1; fill:none" points="186.274,766.676 205.172,766.676 "/>
<polyline clip-path="url(#clip500)" style="stroke:#000000; stroke-linecap:round; stroke-linejoin:round; stroke-width:4; stroke-opacity:1; fill:none" points="186.274,427.156 205.172,427.156 "/>
<polyline clip-path="url(#clip500)" style="stroke:#000000; stroke-linecap:round; stroke-linejoin:round; stroke-width:4; stroke-opacity:1; fill:none" points="186.274,87.636 205.172,87.636 "/>
<path clip-path="url(#clip500)" d="M62.9365 1431.51 Q59.3254 1431.51 57.4967 1435.08 Q55.6912 1438.62 55.6912 1445.75 Q55.6912 1452.86 57.4967 1456.42 Q59.3254 1459.96 62.9365 1459.96 Q66.5707 1459.96 68.3763 1456.42 Q70.205 1452.86 70.205 1445.75 Q70.205 1438.62 68.3763 1435.08 Q66.5707 1431.51 62.9365 1431.51 M62.9365 1427.81 Q68.7467 1427.81 71.8022 1432.42 Q74.8809 1437 74.8809 1445.75 Q74.8809 1454.48 71.8022 1459.08 Q68.7467 1463.67 62.9365 1463.67 Q57.1264 1463.67 54.0477 1459.08 Q50.9921 1454.48 50.9921 1445.75 Q50.9921 1437 54.0477 1432.42 Q57.1264 1427.81 62.9365 1427.81 Z" fill="#000000" fill-rule="nonzero" fill-opacity="1" /><path clip-path="url(#clip500)" d="M83.0984 1457.12 L87.9827 1457.12 L87.9827 1463 L83.0984 1463 L83.0984 1457.12 Z" fill="#000000" fill-rule="nonzero" fill-opacity="1" /><path clip-path="url(#clip500)" d="M108.168 1431.51 Q104.557 1431.51 102.728 1435.08 Q100.922 1438.62 100.922 1445.75 Q100.922 1452.86 102.728 1456.42 Q104.557 1459.96 108.168 1459.96 Q111.802 1459.96 113.608 1456.42 Q115.436 1452.86 115.436 1445.75 Q115.436 1438.62 113.608 1435.08 Q111.802 1431.51 108.168 1431.51 M108.168 1427.81 Q113.978 1427.81 117.033 1432.42 Q120.112 1437 120.112 1445.75 Q120.112 1454.48 117.033 1459.08 Q113.978 1463.67 108.168 1463.67 Q102.358 1463.67 99.2789 1459.08 Q96.2234 1454.48 96.2234 1445.75 Q96.2234 1437 99.2789 1432.42 Q102.358 1427.81 108.168 1427.81 Z" fill="#000000" fill-rule="nonzero" fill-opacity="1" /><path clip-path="url(#clip500)" d="M138.33 1431.51 Q134.719 1431.51 132.89 1435.08 Q131.084 1438.62 131.084 1445.75 Q131.084 1452.86 132.89 1456.42 Q134.719 1459.96 138.33 1459.96 Q141.964 1459.96 143.769 1456.42 Q145.598 1452.86 145.598 1445.75 Q145.598 1438.62 143.769 1435.08 Q141.964 1431.51 138.33 1431.51 M138.33 1427.81 Q144.14 1427.81 147.195 1432.42 Q150.274 1437 150.274 1445.75 Q150.274 1454.48 147.195 1459.08 Q144.14 1463.67 138.33 1463.67 Q132.519 1463.67 129.441 1459.08 Q126.385 1454.48 126.385 1445.75 Q126.385 1437 129.441 1432.42 Q132.519 1427.81 138.33 1427.81 Z" fill="#000000" fill-rule="nonzero" fill-opacity="1" /><path clip-path="url(#clip500)" d="M63.9319 1091.99 Q60.3208 1091.99 58.4921 1095.56 Q56.6865 1099.1 56.6865 1106.23 Q56.6865 1113.34 58.4921 1116.9 Q60.3208 1120.44 63.9319 1120.44 Q67.5661 1120.44 69.3717 1116.9 Q71.2004 1113.34 71.2004 1106.23 Q71.2004 1099.1 69.3717 1095.56 Q67.5661 1091.99 63.9319 1091.99 M63.9319 1088.29 Q69.742 1088.29 72.7976 1092.9 Q75.8763 1097.48 75.8763 1106.23 Q75.8763 1114.96 72.7976 1119.56 Q69.742 1124.15 63.9319 1124.15 Q58.1217 1124.15 55.043 1119.56 Q51.9875 1114.96 51.9875 1106.23 Q51.9875 1097.48 55.043 1092.9 Q58.1217 1088.29 63.9319 1088.29 Z" fill="#000000" fill-rule="nonzero" fill-opacity="1" /><path clip-path="url(#clip500)" d="M84.0938 1117.6 L88.978 1117.6 L88.978 1123.48 L84.0938 1123.48 L84.0938 1117.6 Z" fill="#000000" fill-rule="nonzero" fill-opacity="1" /><path clip-path="url(#clip500)" d="M103.191 1119.54 L119.51 1119.54 L119.51 1123.48 L97.566 1123.48 L97.566 1119.54 Q100.228 1116.79 104.811 1112.16 Q109.418 1107.5 110.598 1106.16 Q112.844 1103.64 113.723 1101.9 Q114.626 1100.14 114.626 1098.45 Q114.626 1095.7 112.682 1093.96 Q110.76 1092.23 107.658 1092.23 Q105.459 1092.23 103.006 1092.99 Q100.575 1093.75 97.7974 1095.3 L97.7974 1090.58 Q100.621 1089.45 103.075 1088.87 Q105.529 1088.29 107.566 1088.29 Q112.936 1088.29 116.131 1090.98 Q119.325 1093.66 119.325 1098.15 Q119.325 1100.28 118.515 1102.2 Q117.728 1104.1 115.621 1106.69 Q115.043 1107.36 111.941 1110.58 Q108.839 1113.78 103.191 1119.54 Z" fill="#000000" fill-rule="nonzero" fill-opacity="1" /><path clip-path="url(#clip500)" d="M129.371 1088.92 L147.728 1088.92 L147.728 1092.85 L133.654 1092.85 L133.654 1101.32 Q134.672 1100.98 135.691 1100.81 Q136.709 1100.63 137.728 1100.63 Q143.515 1100.63 146.894 1103.8 Q150.274 1106.97 150.274 1112.39 Q150.274 1117.97 146.802 1121.07 Q143.33 1124.15 137.01 1124.15 Q134.834 1124.15 132.566 1123.78 Q130.32 1123.41 127.913 1122.67 L127.913 1117.97 Q129.996 1119.1 132.219 1119.66 Q134.441 1120.21 136.918 1120.21 Q140.922 1120.21 143.26 1118.11 Q145.598 1116 145.598 1112.39 Q145.598 1108.78 143.26 1106.67 Q140.922 1104.56 136.918 1104.56 Q135.043 1104.56 133.168 1104.98 Q131.316 1105.4 129.371 1106.28 L129.371 1088.92 Z" fill="#000000" fill-rule="nonzero" fill-opacity="1" /><path clip-path="url(#clip500)" d="M62.9365 752.475 Q59.3254 752.475 57.4967 756.039 Q55.6912 759.581 55.6912 766.711 Q55.6912 773.817 57.4967 777.382 Q59.3254 780.923 62.9365 780.923 Q66.5707 780.923 68.3763 777.382 Q70.205 773.817 70.205 766.711 Q70.205 759.581 68.3763 756.039 Q66.5707 752.475 62.9365 752.475 M62.9365 748.771 Q68.7467 748.771 71.8022 753.377 Q74.8809 757.961 74.8809 766.711 Q74.8809 775.437 71.8022 780.044 Q68.7467 784.627 62.9365 784.627 Q57.1264 784.627 54.0477 780.044 Q50.9921 775.437 50.9921 766.711 Q50.9921 757.961 54.0477 753.377 Q57.1264 748.771 62.9365 748.771 Z" fill="#000000" fill-rule="nonzero" fill-opacity="1" /><path clip-path="url(#clip500)" d="M83.0984 778.076 L87.9827 778.076 L87.9827 783.956 L83.0984 783.956 L83.0984 778.076 Z" fill="#000000" fill-rule="nonzero" fill-opacity="1" /><path clip-path="url(#clip500)" d="M98.2141 749.396 L116.57 749.396 L116.57 753.331 L102.496 753.331 L102.496 761.803 Q103.515 761.456 104.534 761.294 Q105.552 761.109 106.571 761.109 Q112.358 761.109 115.737 764.28 Q119.117 767.451 119.117 772.868 Q119.117 778.447 115.645 781.548 Q112.172 784.627 105.853 784.627 Q103.677 784.627 101.409 784.257 Q99.1632 783.886 96.7558 783.146 L96.7558 778.447 Q98.8391 779.581 101.061 780.136 Q103.284 780.692 105.76 780.692 Q109.765 780.692 112.103 778.586 Q114.441 776.479 114.441 772.868 Q114.441 769.257 112.103 767.15 Q109.765 765.044 105.76 765.044 Q103.885 765.044 102.01 765.461 Q100.159 765.877 98.2141 766.757 L98.2141 749.396 Z" fill="#000000" fill-rule="nonzero" fill-opacity="1" /><path clip-path="url(#clip500)" d="M138.33 752.475 Q134.719 752.475 132.89 756.039 Q131.084 759.581 131.084 766.711 Q131.084 773.817 132.89 777.382 Q134.719 780.923 138.33 780.923 Q141.964 780.923 143.769 777.382 Q145.598 773.817 145.598 766.711 Q145.598 759.581 143.769 756.039 Q141.964 752.475 138.33 752.475 M138.33 748.771 Q144.14 748.771 147.195 753.377 Q150.274 757.961 150.274 766.711 Q150.274 775.437 147.195 780.044 Q144.14 784.627 138.33 784.627 Q132.519 784.627 129.441 780.044 Q126.385 775.437 126.385 766.711 Q126.385 757.961 129.441 753.377 Q132.519 748.771 138.33 748.771 Z" fill="#000000" fill-rule="nonzero" fill-opacity="1" /><path clip-path="url(#clip500)" d="M63.9319 412.955 Q60.3208 412.955 58.4921 416.519 Q56.6865 420.061 56.6865 427.191 Q56.6865 434.297 58.4921 437.862 Q60.3208 441.404 63.9319 441.404 Q67.5661 441.404 69.3717 437.862 Q71.2004 434.297 71.2004 427.191 Q71.2004 420.061 69.3717 416.519 Q67.5661 412.955 63.9319 412.955 M63.9319 409.251 Q69.742 409.251 72.7976 413.857 Q75.8763 418.441 75.8763 427.191 Q75.8763 435.917 72.7976 440.524 Q69.742 445.107 63.9319 445.107 Q58.1217 445.107 55.043 440.524 Q51.9875 435.917 51.9875 427.191 Q51.9875 418.441 55.043 413.857 Q58.1217 409.251 63.9319 409.251 Z" fill="#000000" fill-rule="nonzero" fill-opacity="1" /><path clip-path="url(#clip500)" d="M84.0938 438.556 L88.978 438.556 L88.978 444.436 L84.0938 444.436 L84.0938 438.556 Z" fill="#000000" fill-rule="nonzero" fill-opacity="1" /><path clip-path="url(#clip500)" d="M97.9826 409.876 L120.205 409.876 L120.205 411.867 L107.658 444.436 L102.774 444.436 L114.58 413.811 L97.9826 413.811 L97.9826 409.876 Z" fill="#000000" fill-rule="nonzero" fill-opacity="1" /><path clip-path="url(#clip500)" d="M129.371 409.876 L147.728 409.876 L147.728 413.811 L133.654 413.811 L133.654 422.283 Q134.672 421.936 135.691 421.774 Q136.709 421.589 137.728 421.589 Q143.515 421.589 146.894 424.76 Q150.274 427.931 150.274 433.348 Q150.274 438.927 146.802 442.029 Q143.33 445.107 137.01 445.107 Q134.834 445.107 132.566 444.737 Q130.32 444.366 127.913 443.626 L127.913 438.927 Q129.996 440.061 132.219 440.617 Q134.441 441.172 136.918 441.172 Q140.922 441.172 143.26 439.066 Q145.598 436.959 145.598 433.348 Q145.598 429.737 143.26 427.63 Q140.922 425.524 136.918 425.524 Q135.043 425.524 133.168 425.941 Q131.316 426.357 129.371 427.237 L129.371 409.876 Z" fill="#000000" fill-rule="nonzero" fill-opacity="1" /><path clip-path="url(#clip500)" d="M53.7467 100.981 L61.3856 100.981 L61.3856 74.6153 L53.0754 76.2819 L53.0754 72.0227 L61.3393 70.356 L66.0152 70.356 L66.0152 100.981 L73.654 100.981 L73.654 104.916 L53.7467 104.916 L53.7467 100.981 Z" fill="#000000" fill-rule="nonzero" fill-opacity="1" /><path clip-path="url(#clip500)" d="M83.0984 99.0364 L87.9827 99.0364 L87.9827 104.916 L83.0984 104.916 L83.0984 99.0364 Z" fill="#000000" fill-rule="nonzero" fill-opacity="1" /><path clip-path="url(#clip500)" d="M108.168 73.4347 Q104.557 73.4347 102.728 76.9995 Q100.922 80.5412 100.922 87.6707 Q100.922 94.7772 102.728 98.342 Q104.557 101.884 108.168 101.884 Q111.802 101.884 113.608 98.342 Q115.436 94.7772 115.436 87.6707 Q115.436 80.5412 113.608 76.9995 Q111.802 73.4347 108.168 73.4347 M108.168 69.731 Q113.978 69.731 117.033 74.3375 Q120.112 78.9208 120.112 87.6707 Q120.112 96.3976 117.033 101.004 Q113.978 105.587 108.168 105.587 Q102.358 105.587 99.2789 101.004 Q96.2234 96.3976 96.2234 87.6707 Q96.2234 78.9208 99.2789 74.3375 Q102.358 69.731 108.168 69.731 Z" fill="#000000" fill-rule="nonzero" fill-opacity="1" /><path clip-path="url(#clip500)" d="M138.33 73.4347 Q134.719 73.4347 132.89 76.9995 Q131.084 80.5412 131.084 87.6707 Q131.084 94.7772 132.89 98.342 Q134.719 101.884 138.33 101.884 Q141.964 101.884 143.769 98.342 Q145.598 94.7772 145.598 87.6707 Q145.598 80.5412 143.769 76.9995 Q141.964 73.4347 138.33 73.4347 M138.33 69.731 Q144.14 69.731 147.195 74.3375 Q150.274 78.9208 150.274 87.6707 Q150.274 96.3976 147.195 101.004 Q144.14 105.587 138.33 105.587 Q132.519 105.587 129.441 101.004 Q126.385 96.3976 126.385 87.6707 Q126.385 78.9208 129.441 74.3375 Q132.519 69.731 138.33 69.731 Z" fill="#000000" fill-rule="nonzero" fill-opacity="1" /><polyline clip-path="url(#clip502)" style="stroke:#009af9; stroke-linecap:round; stroke-linejoin:round; stroke-width:4; stroke-opacity:1; fill:none" points="247.59,1445.72 260.896,1445.72 383.935,1445.72 457.876,1445.72 520.392,1445.72 588.302,1445.72 650.909,1445.72 684.47,1445.72 718.031,1445.72 756.914,1445.72 795.798,1445.72 813.075,1445.72 830.353,1445.72 838.991,1445.72 847.63,1445.72 851.949,1445.72 856.269,1445.72 858.429,1445.72 860.588,1445.72 862.748,1439.06 864.908,1431.89 868.695,1419.3 872.483,1406.72 876.271,1394.13 880.058,1381.55 887.634,1356.38 895.209,1331.21 910.36,1280.88 925.511,1230.54 991.585,1011.02 1058.05,790.194 1094.79,668.119 1131.54,546.044 1166.5,429.892 1201.46,313.741 1219.63,253.355 1237.81,192.97 1246.9,162.777 1255.99,132.585 1260.53,117.488 1265.07,102.392 1266.21,98.618 1267.35,94.8439 1268.48,91.0699 1269.62,87.9763 1270.75,91.7504 1271.89,95.5244 1273.03,99.2985 1274.16,103.073 1277.99,115.781 1281.81,128.488 1285.64,141.196 1289.46,153.904 1297.11,179.32 1304.76,204.736 1320.06,255.567 1335.36,306.399 1410.08,554.637 1478.52,782.039 1541.74,992.063 1605.77,1204.81 1623.72,1264.42 1641.66,1324.02 1650.63,1353.83 1659.6,1383.63 1664.08,1398.53 1668.57,1413.44 1673.05,1428.34 1677.54,1443.24 1679.57,1445.72 1681.6,1445.72 1683.64,1445.72 1685.67,1445.72 1689.73,1445.72 1693.8,1445.72 1701.93,1445.72 1710.06,1445.72 1726.31,1445.72 1742.57,1445.72 1817.03,1445.72 1885.97,1445.72 1953.93,1445.72 2019.92,1445.72 2087.57,1445.72 2161.69,1445.72 2269.35,1445.72 2291.44,1445.72 "/>
</svg>
