<?xml version="1.0" encoding="utf-8"?>
<svg xmlns="http://www.w3.org/2000/svg" xmlns:xlink="http://www.w3.org/1999/xlink" width="600" height="400" viewBox="0 0 2400 1600">
<defs>
  <clipPath id="clip800">
    <rect x="0" y="0" width="2400" height="1600"/>
  </clipPath>
</defs>
<path clip-path="url(#clip800)" d="M0 1600 L2400 1600 L2400 0 L0 0  Z" fill="#ffffff" fill-rule="evenodd" fill-opacity="1"/>
<defs>
  <clipPath id="clip801">
    <rect x="480" y="0" width="1681" height="1600"/>
  </clipPath>
</defs>
<path clip-path="url(#clip800)" d="M186.274 1486.45 L1152.76 1486.45 L1152.76 322.664 L186.274 322.664  Z" fill="#ffffff" fill-rule="evenodd" fill-opacity="1"/>
<defs>
  <clipPath id="clip802">
    <rect x="186" y="322" width="967" height="1165"/>
  </clipPath>
</defs>
<polyline clip-path="url(#clip802)" style="stroke:#000000; stroke-linecap:round; stroke-linejoin:round; stroke-width:2; stroke-opacity:0.1; fill:none" points="213.627,1486.45 213.627,322.664 "/>
<polyline clip-path="url(#clip802)" style="stroke:#000000; stroke-linecap:round; stroke-linejoin:round; stroke-width:2; stroke-opacity:0.1; fill:none" points="441.571,1486.45 441.571,322.664 "/>
<polyline clip-path="url(#clip802)" style="stroke:#000000; stroke-linecap:round; stroke-linejoin:round; stroke-width:2; stroke-opacity:0.1; fill:none" points="669.515,1486.45 669.515,322.664 "/>
<polyline clip-path="url(#clip802)" style="stroke:#000000; stroke-linecap:round; stroke-linejoin:round; stroke-width:2; stroke-opacity:0.1; fill:none" points="897.459,1486.45 897.459,322.664 "/>
<polyline clip-path="url(#clip802)" style="stroke:#000000; stroke-linecap:round; stroke-linejoin:round; stroke-width:2; stroke-opacity:0.1; fill:none" points="1125.4,1486.45 1125.4,322.664 "/>
<polyline clip-path="url(#clip802)" style="stroke:#000000; stroke-linecap:round; stroke-linejoin:round; stroke-width:2; stroke-opacity:0.1; fill:none" points="186.274,1453.51 1152.76,1453.51 "/>
<polyline clip-path="url(#clip802)" style="stroke:#000000; stroke-linecap:round; stroke-linejoin:round; stroke-width:2; stroke-opacity:0.1; fill:none" points="186.274,1179.03 1152.76,1179.03 "/>
<polyline clip-path="url(#clip802)" style="stroke:#000000; stroke-linecap:round; stroke-linejoin:round; stroke-width:2; stroke-opacity:0.1; fill:none" points="186.274,904.556 1152.76,904.556 "/>
<polyline clip-path="url(#clip802)" style="stroke:#000000; stroke-linecap:round; stroke-linejoin:round; stroke-width:2; stroke-opacity:0.1; fill:none" points="186.274,630.078 1152.76,630.078 "/>
<polyline clip-path="url(#clip802)" style="stroke:#000000; stroke-linecap:round; stroke-linejoin:round; stroke-width:2; stroke-opacity:0.1; fill:none" points="186.274,355.601 1152.76,355.601 "/>
<polyline clip-path="url(#clip800)" style="stroke:#000000; stroke-linecap:round; stroke-linejoin:round; stroke-width:4; stroke-opacity:1; fill:none" points="186.274,1486.45 1152.76,1486.45 "/>
<polyline clip-path="url(#clip800)" style="stroke:#000000; stroke-linecap:round; stroke-linejoin:round; stroke-width:4; stroke-opacity:1; fill:none" points="213.627,1486.45 213.627,1467.55 "/>
<polyline clip-path="url(#clip800)" style="stroke:#000000; stroke-linecap:round; stroke-linejoin:round; stroke-width:4; stroke-opacity:1; fill:none" points="441.571,1486.45 441.571,1467.55 "/>
<polyline clip-path="url(#clip800)" style="stroke:#000000; stroke-linecap:round; stroke-linejoin:round; stroke-width:4; stroke-opacity:1; fill:none" points="669.515,1486.45 669.515,1467.55 "/>
<polyline clip-path="url(#clip800)" style="stroke:#000000; stroke-linecap:round; stroke-linejoin:round; stroke-width:4; stroke-opacity:1; fill:none" points="897.459,1486.45 897.459,1467.55 "/>
<polyline clip-path="url(#clip800)" style="stroke:#000000; stroke-linecap:round; stroke-linejoin:round; stroke-width:4; stroke-opacity:1; fill:none" points="1125.4,1486.45 1125.4,1467.55 "/>
<path clip-path="url(#clip800)" d="M160.155 1532.02 L189.831 1532.02 L189.831 1535.95 L160.155 1535.95 L160.155 1532.02 Z" fill="#000000" fill-rule="nonzero" fill-opacity="1" /><path clip-path="url(#clip800)" d="M200.734 1544.91 L208.373 1544.91 L208.373 1518.55 L200.063 1520.21 L200.063 1515.95 L208.326 1514.29 L213.002 1514.29 L213.002 1544.91 L220.641 1544.91 L220.641 1548.85 L200.734 1548.85 L200.734 1544.91 Z" fill="#000000" fill-rule="nonzero" fill-opacity="1" /><path clip-path="url(#clip800)" d="M230.086 1542.97 L234.97 1542.97 L234.97 1548.85 L230.086 1548.85 L230.086 1542.97 Z" fill="#000000" fill-rule="nonzero" fill-opacity="1" /><path clip-path="url(#clip800)" d="M255.155 1517.37 Q251.544 1517.37 249.715 1520.93 Q247.909 1524.47 247.909 1531.6 Q247.909 1538.71 249.715 1542.27 Q251.544 1545.82 255.155 1545.82 Q258.789 1545.82 260.595 1542.27 Q262.423 1538.71 262.423 1531.6 Q262.423 1524.47 260.595 1520.93 Q258.789 1517.37 255.155 1517.37 M255.155 1513.66 Q260.965 1513.66 264.021 1518.27 Q267.099 1522.85 267.099 1531.6 Q267.099 1540.33 264.021 1544.94 Q260.965 1549.52 255.155 1549.52 Q249.345 1549.52 246.266 1544.94 Q243.21 1540.33 243.21 1531.6 Q243.21 1522.85 246.266 1518.27 Q249.345 1513.66 255.155 1513.66 Z" fill="#000000" fill-rule="nonzero" fill-opacity="1" /><path clip-path="url(#clip800)" d="M388.597 1532.02 L418.273 1532.02 L418.273 1535.95 L388.597 1535.95 L388.597 1532.02 Z" fill="#000000" fill-rule="nonzero" fill-opacity="1" /><path clip-path="url(#clip800)" d="M438.365 1517.37 Q434.754 1517.37 432.925 1520.93 Q431.12 1524.47 431.12 1531.6 Q431.12 1538.71 432.925 1542.27 Q434.754 1545.82 438.365 1545.82 Q441.999 1545.82 443.805 1542.27 Q445.634 1538.71 445.634 1531.6 Q445.634 1524.47 443.805 1520.93 Q441.999 1517.37 438.365 1517.37 M438.365 1513.66 Q444.175 1513.66 447.231 1518.27 Q450.309 1522.85 450.309 1531.6 Q450.309 1540.33 447.231 1544.94 Q444.175 1549.52 438.365 1549.52 Q432.555 1549.52 429.476 1544.94 Q426.421 1540.33 426.421 1531.6 Q426.421 1522.85 429.476 1518.27 Q432.555 1513.66 438.365 1513.66 Z" fill="#000000" fill-rule="nonzero" fill-opacity="1" /><path clip-path="url(#clip800)" d="M458.527 1542.97 L463.411 1542.97 L463.411 1548.85 L458.527 1548.85 L458.527 1542.97 Z" fill="#000000" fill-rule="nonzero" fill-opacity="1" /><path clip-path="url(#clip800)" d="M473.643 1514.29 L491.999 1514.29 L491.999 1518.22 L477.925 1518.22 L477.925 1526.7 Q478.944 1526.35 479.962 1526.19 Q480.981 1526 481.999 1526 Q487.786 1526 491.166 1529.17 Q494.545 1532.34 494.545 1537.76 Q494.545 1543.34 491.073 1546.44 Q487.601 1549.52 481.282 1549.52 Q479.106 1549.52 476.837 1549.15 Q474.592 1548.78 472.184 1548.04 L472.184 1543.34 Q474.268 1544.47 476.49 1545.03 Q478.712 1545.58 481.189 1545.58 Q485.194 1545.58 487.532 1543.48 Q489.869 1541.37 489.869 1537.76 Q489.869 1534.15 487.532 1532.04 Q485.194 1529.94 481.189 1529.94 Q479.314 1529.94 477.439 1530.35 Q475.587 1530.77 473.643 1531.65 L473.643 1514.29 Z" fill="#000000" fill-rule="nonzero" fill-opacity="1" /><path clip-path="url(#clip800)" d="M646.899 1517.37 Q643.288 1517.37 641.46 1520.93 Q639.654 1524.47 639.654 1531.6 Q639.654 1538.71 641.46 1542.27 Q643.288 1545.82 646.899 1545.82 Q650.534 1545.82 652.339 1542.27 Q654.168 1538.71 654.168 1531.6 Q654.168 1524.47 652.339 1520.93 Q650.534 1517.37 646.899 1517.37 M646.899 1513.66 Q652.709 1513.66 655.765 1518.27 Q658.844 1522.85 658.844 1531.6 Q658.844 1540.33 655.765 1544.94 Q652.709 1549.52 646.899 1549.52 Q641.089 1549.52 638.01 1544.94 Q634.955 1540.33 634.955 1531.6 Q634.955 1522.85 638.01 1518.27 Q641.089 1513.66 646.899 1513.66 Z" fill="#000000" fill-rule="nonzero" fill-opacity="1" /><path clip-path="url(#clip800)" d="M667.061 1542.97 L671.945 1542.97 L671.945 1548.85 L667.061 1548.85 L667.061 1542.97 Z" fill="#000000" fill-rule="nonzero" fill-opacity="1" /><path clip-path="url(#clip800)" d="M692.131 1517.37 Q688.519 1517.37 686.691 1520.93 Q684.885 1524.47 684.885 1531.6 Q684.885 1538.71 686.691 1542.27 Q688.519 1545.82 692.131 1545.82 Q695.765 1545.82 697.57 1542.27 Q699.399 1538.71 699.399 1531.6 Q699.399 1524.47 697.57 1520.93 Q695.765 1517.37 692.131 1517.37 M692.131 1513.66 Q697.941 1513.66 700.996 1518.27 Q704.075 1522.85 704.075 1531.6 Q704.075 1540.33 700.996 1544.94 Q697.941 1549.52 692.131 1549.52 Q686.32 1549.52 683.242 1544.94 Q680.186 1540.33 680.186 1531.6 Q680.186 1522.85 683.242 1518.27 Q686.32 1513.66 692.131 1513.66 Z" fill="#000000" fill-rule="nonzero" fill-opacity="1" /><path clip-path="url(#clip800)" d="M875.341 1517.37 Q871.73 1517.37 869.901 1520.93 Q868.096 1524.47 868.096 1531.6 Q868.096 1538.71 869.901 1542.27 Q871.73 1545.82 875.341 1545.82 Q878.975 1545.82 880.781 1542.27 Q882.609 1538.71 882.609 1531.6 Q882.609 1524.47 880.781 1520.93 Q878.975 1517.37 875.341 1517.37 M875.341 1513.66 Q881.151 1513.66 884.207 1518.27 Q887.285 1522.85 887.285 1531.6 Q887.285 1540.33 884.207 1544.94 Q881.151 1549.52 875.341 1549.52 Q869.531 1549.52 866.452 1544.94 Q863.396 1540.33 863.396 1531.6 Q863.396 1522.85 866.452 1518.27 Q869.531 1513.66 875.341 1513.66 Z" fill="#000000" fill-rule="nonzero" fill-opacity="1" /><path clip-path="url(#clip800)" d="M895.503 1542.97 L900.387 1542.97 L900.387 1548.85 L895.503 1548.85 L895.503 1542.97 Z" fill="#000000" fill-rule="nonzero" fill-opacity="1" /><path clip-path="url(#clip800)" d="M910.618 1514.29 L928.975 1514.29 L928.975 1518.22 L914.901 1518.22 L914.901 1526.7 Q915.919 1526.35 916.938 1526.19 Q917.956 1526 918.975 1526 Q924.762 1526 928.142 1529.17 Q931.521 1532.34 931.521 1537.76 Q931.521 1543.34 928.049 1546.44 Q924.577 1549.52 918.257 1549.52 Q916.081 1549.52 913.813 1549.15 Q911.568 1548.78 909.16 1548.04 L909.16 1543.34 Q911.243 1544.47 913.466 1545.03 Q915.688 1545.58 918.165 1545.58 Q922.169 1545.58 924.507 1543.48 Q926.845 1541.37 926.845 1537.76 Q926.845 1534.15 924.507 1532.04 Q922.169 1529.94 918.165 1529.94 Q916.29 1529.94 914.415 1530.35 Q912.563 1530.77 910.618 1531.65 L910.618 1514.29 Z" fill="#000000" fill-rule="nonzero" fill-opacity="1" /><path clip-path="url(#clip800)" d="M1092.56 1544.91 L1100.19 1544.91 L1100.19 1518.55 L1091.88 1520.21 L1091.88 1515.95 L1100.15 1514.29 L1104.82 1514.29 L1104.82 1544.91 L1112.46 1544.91 L1112.46 1548.85 L1092.56 1548.85 L1092.56 1544.91 Z" fill="#000000" fill-rule="nonzero" fill-opacity="1" /><path clip-path="url(#clip800)" d="M1121.91 1542.97 L1126.79 1542.97 L1126.79 1548.85 L1121.91 1548.85 L1121.91 1542.97 Z" fill="#000000" fill-rule="nonzero" fill-opacity="1" /><path clip-path="url(#clip800)" d="M1146.98 1517.37 Q1143.37 1517.37 1141.54 1520.93 Q1139.73 1524.47 1139.73 1531.6 Q1139.73 1538.71 1141.54 1542.27 Q1143.37 1545.82 1146.98 1545.82 Q1150.61 1545.82 1152.42 1542.27 Q1154.25 1538.71 1154.25 1531.6 Q1154.25 1524.47 1152.42 1520.93 Q1150.61 1517.37 1146.98 1517.37 M1146.98 1513.66 Q1152.79 1513.66 1155.84 1518.27 Q1158.92 1522.85 1158.92 1531.6 Q1158.92 1540.33 1155.84 1544.94 Q1152.79 1549.52 1146.98 1549.52 Q1141.17 1549.52 1138.09 1544.94 Q1135.03 1540.33 1135.03 1531.6 Q1135.03 1522.85 1138.09 1518.27 Q1141.17 1513.66 1146.98 1513.66 Z" fill="#000000" fill-rule="nonzero" fill-opacity="1" /><polyline clip-path="url(#clip800)" style="stroke:#000000; stroke-linecap:round; stroke-linejoin:round; stroke-width:4; stroke-opacity:1; fill:none" points="186.274,1486.45 186.274,322.664 "/>
<polyline clip-path="url(#clip800)" style="stroke:#000000; stroke-linecap:round; stroke-linejoin:round; stroke-width:4; stroke-opacity:1; fill:none" points="186.274,1453.51 205.172,1453.51 "/>
<polyline clip-path="url(#clip800)" style="stroke:#000000; stroke-linecap:round; stroke-linejoin:round; stroke-width:4; stroke-opacity:1; fill:none" points="186.274,1179.03 205.172,1179.03 "/>
<polyline clip-path="url(#clip800)" style="stroke:#000000; stroke-linecap:round; stroke-linejoin:round; stroke-width:4; stroke-opacity:1; fill:none" points="186.274,904.556 205.172,904.556 "/>
<polyline clip-path="url(#clip800)" style="stroke:#000000; stroke-linecap:round; stroke-linejoin:round; stroke-width:4; stroke-opacity:1; fill:none" points="186.274,630.078 205.172,630.078 "/>
<polyline clip-path="url(#clip800)" style="stroke:#000000; stroke-linecap:round; stroke-linejoin:round; stroke-width:4; stroke-opacity:1; fill:none" points="186.274,355.601 205.172,355.601 "/>
<path clip-path="url(#clip800)" d="M62.9365 1439.31 Q59.3254 1439.31 57.4967 1442.87 Q55.6912 1446.42 55.6912 1453.55 Q55.6912 1460.65 57.4967 1464.22 Q59.3254 1467.76 62.9365 1467.76 Q66.5707 1467.76 68.3763 1464.22 Q70.205 1460.65 70.205 1453.55 Q70.205 1446.42 68.3763 1442.87 Q66.5707 1439.31 62.9365 1439.31 M62.9365 1435.61 Q68.7467 1435.61 71.8022 1440.21 Q74.8809 1444.8 74.8809 1453.55 Q74.8809 1462.27 71.8022 1466.88 Q68.7467 1471.46 62.9365 1471.46 Q57.1264 1471.46 54.0477 1466.88 Q50.9921 1462.27 50.9921 1453.55 Q50.9921 1444.8 54.0477 1440.21 Q57.1264 1435.61 62.9365 1435.61 Z" fill="#000000" fill-rule="nonzero" fill-opacity="1" /><path clip-path="url(#clip800)" d="M83.0984 1464.91 L87.9827 1464.91 L87.9827 1470.79 L83.0984 1470.79 L83.0984 1464.91 Z" fill="#000000" fill-rule="nonzero" fill-opacity="1" /><path clip-path="url(#clip800)" d="M108.168 1439.31 Q104.557 1439.31 102.728 1442.87 Q100.922 1446.42 100.922 1453.55 Q100.922 1460.65 102.728 1464.22 Q104.557 1467.76 108.168 1467.76 Q111.802 1467.76 113.608 1464.22 Q115.436 1460.65 115.436 1453.55 Q115.436 1446.42 113.608 1442.87 Q111.802 1439.31 108.168 1439.31 M108.168 1435.61 Q113.978 1435.61 117.033 1440.21 Q120.112 1444.8 120.112 1453.55 Q120.112 1462.27 117.033 1466.88 Q113.978 1471.46 108.168 1471.46 Q102.358 1471.46 99.2789 1466.88 Q96.2234 1462.27 96.2234 1453.55 Q96.2234 1444.8 99.2789 1440.21 Q102.358 1435.61 108.168 1435.61 Z" fill="#000000" fill-rule="nonzero" fill-opacity="1" /><path clip-path="url(#clip800)" d="M138.33 1439.31 Q134.719 1439.31 132.89 1442.87 Q131.084 1446.42 131.084 1453.55 Q131.084 1460.65 132.89 1464.22 Q134.719 1467.76 138.33 1467.76 Q141.964 1467.76 143.769 1464.22 Q145.598 1460.65 145.598 1453.55 Q145.598 1446.42 143.769 1442.87 Q141.964 1439.31 138.33 1439.31 M138.33 1435.61 Q144.14 1435.61 147.195 1440.21 Q150.274 1444.8 150.274 1453.55 Q150.274 1462.27 147.195 1466.88 Q144.14 1471.46 138.33 1471.46 Q132.519 1471.46 129.441 1466.88 Q126.385 1462.27 126.385 1453.55 Q126.385 1444.8 129.441 1440.21 Q132.519 1435.61 138.33 1435.61 Z" fill="#000000" fill-rule="nonzero" fill-opacity="1" /><path clip-path="url(#clip800)" d="M63.9319 1164.83 Q60.3208 1164.83 58.4921 1168.4 Q56.6865 1171.94 56.6865 1179.07 Q56.6865 1186.17 58.4921 1189.74 Q60.3208 1193.28 63.9319 1193.28 Q67.5661 1193.28 69.3717 1189.74 Q71.2004 1186.17 71.2004 1179.07 Q71.2004 1171.94 69.3717 1168.4 Q67.5661 1164.83 63.9319 1164.83 M63.9319 1161.13 Q69.742 1161.13 72.7976 1165.73 Q75.8763 1170.32 75.8763 1179.07 Q75.8763 1187.79 72.7976 1192.4 Q69.742 1196.98 63.9319 1196.98 Q58.1217 1196.98 55.043 1192.4 Q51.9875 1187.79 51.9875 1179.07 Q51.9875 1170.32 55.043 1165.73 Q58.1217 1161.13 63.9319 1161.13 Z" fill="#000000" fill-rule="nonzero" fill-opacity="1" /><path clip-path="url(#clip800)" d="M84.0938 1190.43 L88.978 1190.43 L88.978 1196.31 L84.0938 1196.31 L84.0938 1190.43 Z" fill="#000000" fill-rule="nonzero" fill-opacity="1" /><path clip-path="url(#clip800)" d="M103.191 1192.38 L119.51 1192.38 L119.51 1196.31 L97.566 1196.31 L97.566 1192.38 Q100.228 1189.62 104.811 1184.99 Q109.418 1180.34 110.598 1179 Q112.844 1176.48 113.723 1174.74 Q114.626 1172.98 114.626 1171.29 Q114.626 1168.54 112.682 1166.8 Q110.76 1165.06 107.658 1165.06 Q105.459 1165.06 103.006 1165.83 Q100.575 1166.59 97.7974 1168.14 L97.7974 1163.42 Q100.621 1162.29 103.075 1161.71 Q105.529 1161.13 107.566 1161.13 Q112.936 1161.13 116.131 1163.81 Q119.325 1166.5 119.325 1170.99 Q119.325 1173.12 118.515 1175.04 Q117.728 1176.94 115.621 1179.53 Q115.043 1180.2 111.941 1183.42 Q108.839 1186.61 103.191 1192.38 Z" fill="#000000" fill-rule="nonzero" fill-opacity="1" /><path clip-path="url(#clip800)" d="M129.371 1161.75 L147.728 1161.75 L147.728 1165.69 L133.654 1165.69 L133.654 1174.16 Q134.672 1173.81 135.691 1173.65 Q136.709 1173.47 137.728 1173.47 Q143.515 1173.47 146.894 1176.64 Q150.274 1179.81 150.274 1185.23 Q150.274 1190.8 146.802 1193.91 Q143.33 1196.98 137.01 1196.98 Q134.834 1196.98 132.566 1196.61 Q130.32 1196.24 127.913 1195.5 L127.913 1190.8 Q129.996 1191.94 132.219 1192.49 Q134.441 1193.05 136.918 1193.05 Q140.922 1193.05 143.26 1190.94 Q145.598 1188.84 145.598 1185.23 Q145.598 1181.61 143.26 1179.51 Q140.922 1177.4 136.918 1177.4 Q135.043 1177.4 133.168 1177.82 Q131.316 1178.23 129.371 1179.11 L129.371 1161.75 Z" fill="#000000" fill-rule="nonzero" fill-opacity="1" /><path clip-path="url(#clip800)" d="M62.9365 890.354 Q59.3254 890.354 57.4967 893.919 Q55.6912 897.461 55.6912 904.59 Q55.6912 911.697 57.4967 915.262 Q59.3254 918.803 62.9365 918.803 Q66.5707 918.803 68.3763 915.262 Q70.205 911.697 70.205 904.59 Q70.205 897.461 68.3763 893.919 Q66.5707 890.354 62.9365 890.354 M62.9365 886.651 Q68.7467 886.651 71.8022 891.257 Q74.8809 895.84 74.8809 904.59 Q74.8809 913.317 71.8022 917.924 Q68.7467 922.507 62.9365 922.507 Q57.1264 922.507 54.0477 917.924 Q50.9921 913.317 50.9921 904.59 Q50.9921 895.84 54.0477 891.257 Q57.1264 886.651 62.9365 886.651 Z" fill="#000000" fill-rule="nonzero" fill-opacity="1" /><path clip-path="url(#clip800)" d="M83.0984 915.956 L87.9827 915.956 L87.9827 921.836 L83.0984 921.836 L83.0984 915.956 Z" fill="#000000" fill-rule="nonzero" fill-opacity="1" /><path clip-path="url(#clip800)" d="M98.2141 887.276 L116.57 887.276 L116.57 891.211 L102.496 891.211 L102.496 899.683 Q103.515 899.336 104.534 899.174 Q105.552 898.989 106.571 898.989 Q112.358 898.989 115.737 902.16 Q119.117 905.331 119.117 910.748 Q119.117 916.326 115.645 919.428 Q112.172 922.507 105.853 922.507 Q103.677 922.507 101.409 922.137 Q99.1632 921.766 96.7558 921.026 L96.7558 916.326 Q98.8391 917.461 101.061 918.016 Q103.284 918.572 105.76 918.572 Q109.765 918.572 112.103 916.465 Q114.441 914.359 114.441 910.748 Q114.441 907.137 112.103 905.03 Q109.765 902.924 105.76 902.924 Q103.885 902.924 102.01 903.34 Q100.159 903.757 98.2141 904.637 L98.2141 887.276 Z" fill="#000000" fill-rule="nonzero" fill-opacity="1" /><path clip-path="url(#clip800)" d="M138.33 890.354 Q134.719 890.354 132.89 893.919 Q131.084 897.461 131.084 904.59 Q131.084 911.697 132.89 915.262 Q134.719 918.803 138.33 918.803 Q141.964 918.803 143.769 915.262 Q145.598 911.697 145.598 904.59 Q145.598 897.461 143.769 893.919 Q141.964 890.354 138.33 890.354 M138.33 886.651 Q144.14 886.651 147.195 891.257 Q150.274 895.84 150.274 904.59 Q150.274 913.317 147.195 917.924 Q144.14 922.507 138.33 922.507 Q132.519 922.507 129.441 917.924 Q126.385 913.317 126.385 904.59 Q126.385 895.84 129.441 891.257 Q132.519 886.651 138.33 886.651 Z" fill="#000000" fill-rule="nonzero" fill-opacity="1" /><path clip-path="url(#clip800)" d="M63.9319 615.877 Q60.3208 615.877 58.4921 619.442 Q56.6865 622.983 56.6865 630.113 Q56.6865 637.219 58.4921 640.784 Q60.3208 644.326 63.9319 644.326 Q67.5661 644.326 69.3717 640.784 Q71.2004 637.219 71.2004 630.113 Q71.2004 622.983 69.3717 619.442 Q67.5661 615.877 63.9319 615.877 M63.9319 612.173 Q69.742 612.173 72.7976 616.78 Q75.8763 621.363 75.8763 630.113 Q75.8763 638.84 72.7976 643.446 Q69.742 648.03 63.9319 648.03 Q58.1217 648.03 55.043 643.446 Q51.9875 638.84 51.9875 630.113 Q51.9875 621.363 55.043 616.78 Q58.1217 612.173 63.9319 612.173 Z" fill="#000000" fill-rule="nonzero" fill-opacity="1" /><path clip-path="url(#clip800)" d="M84.0938 641.479 L88.978 641.479 L88.978 647.358 L84.0938 647.358 L84.0938 641.479 Z" fill="#000000" fill-rule="nonzero" fill-opacity="1" /><path clip-path="url(#clip800)" d="M97.9826 612.798 L120.205 612.798 L120.205 614.789 L107.658 647.358 L102.774 647.358 L114.58 616.733 L97.9826 616.733 L97.9826 612.798 Z" fill="#000000" fill-rule="nonzero" fill-opacity="1" /><path clip-path="url(#clip800)" d="M129.371 612.798 L147.728 612.798 L147.728 616.733 L133.654 616.733 L133.654 625.206 Q134.672 624.858 135.691 624.696 Q136.709 624.511 137.728 624.511 Q143.515 624.511 146.894 627.682 Q150.274 630.854 150.274 636.27 Q150.274 641.849 146.802 644.951 Q143.33 648.03 137.01 648.03 Q134.834 648.03 132.566 647.659 Q130.32 647.289 127.913 646.548 L127.913 641.849 Q129.996 642.983 132.219 643.539 Q134.441 644.094 136.918 644.094 Q140.922 644.094 143.26 641.988 Q145.598 639.881 145.598 636.27 Q145.598 632.659 143.26 630.553 Q140.922 628.446 136.918 628.446 Q135.043 628.446 133.168 628.863 Q131.316 629.28 129.371 630.159 L129.371 612.798 Z" fill="#000000" fill-rule="nonzero" fill-opacity="1" /><path clip-path="url(#clip800)" d="M53.7467 368.946 L61.3856 368.946 L61.3856 342.58 L53.0754 344.247 L53.0754 339.987 L61.3393 338.321 L66.0152 338.321 L66.0152 368.946 L73.654 368.946 L73.654 372.881 L53.7467 372.881 L53.7467 368.946 Z" fill="#000000" fill-rule="nonzero" fill-opacity="1" /><path clip-path="url(#clip800)" d="M83.0984 367.001 L87.9827 367.001 L87.9827 372.881 L83.0984 372.881 L83.0984 367.001 Z" fill="#000000" fill-rule="nonzero" fill-opacity="1" /><path clip-path="url(#clip800)" d="M108.168 341.399 Q104.557 341.399 102.728 344.964 Q100.922 348.506 100.922 355.636 Q100.922 362.742 102.728 366.307 Q104.557 369.848 108.168 369.848 Q111.802 369.848 113.608 366.307 Q115.436 362.742 115.436 355.636 Q115.436 348.506 113.608 344.964 Q111.802 341.399 108.168 341.399 M108.168 337.696 Q113.978 337.696 117.033 342.302 Q120.112 346.886 120.112 355.636 Q120.112 364.362 117.033 368.969 Q113.978 373.552 108.168 373.552 Q102.358 373.552 99.2789 368.969 Q96.2234 364.362 96.2234 355.636 Q96.2234 346.886 99.2789 342.302 Q102.358 337.696 108.168 337.696 Z" fill="#000000" fill-rule="nonzero" fill-opacity="1" /><path clip-path="url(#clip800)" d="M138.33 341.399 Q134.719 341.399 132.89 344.964 Q131.084 348.506 131.084 355.636 Q131.084 362.742 132.89 366.307 Q134.719 369.848 138.33 369.848 Q141.964 369.848 143.769 366.307 Q145.598 362.742 145.598 355.636 Q145.598 348.506 143.769 344.964 Q141.964 341.399 138.33 341.399 M138.33 337.696 Q144.14 337.696 147.195 342.302 Q150.274 346.886 150.274 355.636 Q150.274 364.362 147.195 368.969 Q144.14 373.552 138.33 373.552 Q132.519 373.552 129.441 368.969 Q126.385 364.362 126.385 355.636 Q126.385 346.886 129.441 342.302 Q132.519 337.696 138.33 337.696 Z" fill="#000000" fill-rule="nonzero" fill-opacity="1" /><polyline clip-path="url(#clip802)" style="stroke:#009af9; stroke-linecap:round; stroke-linejoin:round; stroke-width:4; stroke-opacity:1; fill:none" points="213.627,1453.51 219.563,1453.51 274.452,1453.51 307.437,1453.51 335.326,1453.51 365.621,1453.51 393.551,1453.51 423.494,1453.51 458.187,1453.49 473.602,1453.4 489.017,1453.08 502.535,1452.17 516.052,1449.71 523.421,1447.05 530.79,1442.8 534.475,1439.86 538.159,1436.22 541.844,1431.76 545.528,1426.32 549.235,1419.7 552.941,1411.75 556.648,1402.27 560.354,1391.06 564.06,1377.89 567.767,1362.54 571.473,1344.8 575.179,1324.46 577.228,1312.02 579.277,1298.7 581.326,1284.47 583.375,1269.3 585.424,1253.18 587.473,1236.08 589.522,1218 591.571,1198.94 593.62,1178.88 595.669,1157.84 597.718,1135.83 599.767,1112.88 601.816,1089 603.865,1064.23 605.914,1038.63 607.963,1012.23 611.862,960.018 615.761,905.655 619.66,849.737 623.559,792.961 627.458,736.113 631.357,680.051 635.256,625.685 639.155,573.956 641.182,548.417 643.209,523.976 645.236,500.761 647.263,478.895 649.29,458.496 651.317,439.677 653.344,422.541 655.371,407.187 657.398,393.702 659.425,382.163 661.452,372.637 663.479,365.18 665.507,359.836 667.534,356.637 669.561,355.601 671.588,356.735 673.294,359.366 675,363.52 676.707,369.177 678.413,376.316 680.119,384.905 681.826,394.91 683.532,406.29 685.238,418.997 686.945,432.981 688.651,448.186 690.357,464.55 692.064,482.01 693.77,500.498 695.476,519.942 697.183,540.27 698.889,561.406 700.972,588.194 703.056,615.929 705.139,644.465 707.222,673.66 711.389,733.451 715.555,794.189 719.722,854.825 723.888,914.406 728.055,972.095 732.221,1027.19 734.13,1051.39 736.038,1074.89 737.946,1097.64 739.855,1119.6 741.763,1140.76 743.672,1161.09 745.58,1180.58 747.488,1199.22 749.397,1216.99 751.305,1233.91 753.213,1249.98 755.122,1265.2 757.03,1279.59 758.939,1293.16 760.847,1305.93 762.755,1317.92 766.28,1338.1 769.806,1355.86 773.331,1371.38 776.856,1384.85 780.381,1396.45 783.906,1406.37 787.431,1414.8 790.956,1421.91 794.527,1427.94 798.098,1432.95 801.669,1437.07 805.239,1440.45 812.381,1445.42 819.523,1448.62 835.53,1452.06 851.538,1453.13 866.043,1453.41 880.548,1453.49 913.764,1453.51 944.518,1453.51 974.838,1453.51 1004.28,1453.51 1034.45,1453.51 1067.52,1453.51 1115.55,1453.51 1125.4,1453.51 "/>
<path clip-path="url(#clip800)" d="M927.017 465.137 L1120.54 465.137 L1120.54 361.457 L927.017 361.457  Z" fill="#ffffff" fill-rule="evenodd" fill-opacity="1"/>
<polyline clip-path="url(#clip800)" style="stroke:#000000; stroke-linecap:round; stroke-linejoin:round; stroke-width:4; stroke-opacity:1; fill:none" points="927.017,465.137 1120.54,465.137 1120.54,361.457 927.017,361.457 927.017,465.137 "/>
<polyline clip-path="url(#clip800)" style="stroke:#009af9; stroke-linecap:round; stroke-linejoin:round; stroke-width:4; stroke-opacity:1; fill:none" points="937.756,413.297 1002.19,413.297 "/>
<path clip-path="url(#clip800)" d="M1013.51 404.651 L1033.74 404.651 L1033.74 408.54 L1017.72 427.174 L1033.74 427.174 L1033.74 430.577 L1012.93 430.577 L1012.93 426.688 L1028.95 408.054 L1013.51 408.054 L1013.51 404.651 Z" fill="#000000" fill-rule="nonzero" fill-opacity="1" /><path clip-path="url(#clip800)" d="M1062.42 416.549 L1062.42 418.632 L1042.83 418.632 Q1043.11 423.031 1045.47 425.345 Q1047.86 427.637 1052.09 427.637 Q1054.55 427.637 1056.84 427.035 Q1059.15 426.433 1061.42 425.23 L1061.42 429.257 Q1059.13 430.23 1056.72 430.739 Q1054.32 431.248 1051.84 431.248 Q1045.63 431.248 1042 427.637 Q1038.39 424.026 1038.39 417.869 Q1038.39 411.503 1041.82 407.776 Q1045.26 404.026 1051.1 404.026 Q1056.33 404.026 1059.36 407.406 Q1062.42 410.762 1062.42 416.549 M1058.16 415.299 Q1058.11 411.804 1056.19 409.72 Q1054.29 407.637 1051.14 407.637 Q1047.58 407.637 1045.43 409.651 Q1043.3 411.665 1042.97 415.322 L1058.16 415.299 Z" fill="#000000" fill-rule="nonzero" fill-opacity="1" /><path clip-path="url(#clip800)" d="M1084.43 408.633 Q1083.71 408.216 1082.86 408.031 Q1082.02 407.822 1081.01 407.822 Q1077.39 407.822 1075.45 410.183 Q1073.53 412.521 1073.53 416.92 L1073.53 430.577 L1069.25 430.577 L1069.25 404.651 L1073.53 404.651 L1073.53 408.679 Q1074.87 406.318 1077.02 405.183 Q1079.18 404.026 1082.26 404.026 Q1082.69 404.026 1083.23 404.096 Q1083.76 404.142 1084.41 404.258 L1084.43 408.633 Z" fill="#000000" fill-rule="nonzero" fill-opacity="1" /><path clip-path="url(#clip800)" d="M1097.9 407.637 Q1094.48 407.637 1092.49 410.322 Q1090.5 412.984 1090.5 417.637 Q1090.5 422.29 1092.46 424.975 Q1094.45 427.637 1097.9 427.637 Q1101.31 427.637 1103.3 424.952 Q1105.29 422.267 1105.29 417.637 Q1105.29 413.031 1103.3 410.345 Q1101.31 407.637 1097.9 407.637 M1097.9 404.026 Q1103.46 404.026 1106.63 407.637 Q1109.8 411.248 1109.8 417.637 Q1109.8 424.003 1106.63 427.637 Q1103.46 431.248 1097.9 431.248 Q1092.32 431.248 1089.15 427.637 Q1086 424.003 1086 417.637 Q1086 411.248 1089.15 407.637 Q1092.32 404.026 1097.9 404.026 Z" fill="#000000" fill-rule="nonzero" fill-opacity="1" /><path clip-path="url(#clip800)" d="M186.274 177.616 L1152.76 177.616 L1152.76 116.364 L186.274 116.364  Z" fill="#ffffff" fill-rule="evenodd" fill-opacity="1"/>
<defs>
  <clipPath id="clip803">
    <rect x="186" y="116" width="967" height="62"/>
  </clipPath>
</defs>
<path clip-path="url(#clip800)" d="M653.358 38.9628 L653.358 10.9073 L661.876 10.9073 L661.876 82.944 L653.358 82.944 L653.358 75.1663 Q650.672 79.7959 646.552 82.0644 Q642.478 84.2866 636.737 84.2866 Q627.339 84.2866 621.413 76.7866 Q615.534 69.2867 615.534 57.0645 Q615.534 44.8424 621.413 37.3424 Q627.339 29.8424 636.737 29.8424 Q642.478 29.8424 646.552 32.1109 Q650.672 34.3331 653.358 38.9628 M624.33 57.0645 Q624.33 66.4626 628.173 71.8329 Q632.061 77.157 638.821 77.157 Q645.58 77.157 649.469 71.8329 Q653.358 66.4626 653.358 57.0645 Q653.358 47.6664 649.469 42.3424 Q645.58 36.972 638.821 36.972 Q632.061 36.972 628.173 42.3424 Q624.33 47.6664 624.33 57.0645 Z" fill="#000000" fill-rule="nonzero" fill-opacity="1" /><path clip-path="url(#clip800)" d="M722.524 31.0924 L703.774 56.3238 L723.496 82.944 L713.45 82.944 L698.357 62.5737 L683.265 82.944 L673.219 82.944 L693.357 55.8145 L674.932 31.0924 L684.978 31.0924 L698.728 49.5645 L712.478 31.0924 L722.524 31.0924 Z" fill="#000000" fill-rule="nonzero" fill-opacity="1" /><path clip-path="url(#clip800)" d="M1386.27 1486.45 L2352.76 1486.45 L2352.76 322.664 L1386.27 322.664  Z" fill="#ffffff" fill-rule="evenodd" fill-opacity="1"/>
<defs>
  <clipPath id="clip804">
    <rect x="1386" y="322" width="967" height="1165"/>
  </clipPath>
</defs>
<polyline clip-path="url(#clip804)" style="stroke:#000000; stroke-linecap:round; stroke-linejoin:round; stroke-width:2; stroke-opacity:0.1; fill:none" points="1413.63,1486.45 1413.63,322.664 "/>
<polyline clip-path="url(#clip804)" style="stroke:#000000; stroke-linecap:round; stroke-linejoin:round; stroke-width:2; stroke-opacity:0.1; fill:none" points="1641.57,1486.45 1641.57,322.664 "/>
<polyline clip-path="url(#clip804)" style="stroke:#000000; stroke-linecap:round; stroke-linejoin:round; stroke-width:2; stroke-opacity:0.1; fill:none" points="1869.51,1486.45 1869.51,322.664 "/>
<polyline clip-path="url(#clip804)" style="stroke:#000000; stroke-linecap:round; stroke-linejoin:round; stroke-width:2; stroke-opacity:0.1; fill:none" points="2097.46,1486.45 2097.46,322.664 "/>
<polyline clip-path="url(#clip804)" style="stroke:#000000; stroke-linecap:round; stroke-linejoin:round; stroke-width:2; stroke-opacity:0.1; fill:none" points="2325.4,1486.45 2325.4,322.664 "/>
<polyline clip-path="url(#clip804)" style="stroke:#000000; stroke-linecap:round; stroke-linejoin:round; stroke-width:2; stroke-opacity:0.1; fill:none" points="1386.27,1453.51 2352.76,1453.51 "/>
<polyline clip-path="url(#clip804)" style="stroke:#000000; stroke-linecap:round; stroke-linejoin:round; stroke-width:2; stroke-opacity:0.1; fill:none" points="1386.27,1179.03 2352.76,1179.03 "/>
<polyline clip-path="url(#clip804)" style="stroke:#000000; stroke-linecap:round; stroke-linejoin:round; stroke-width:2; stroke-opacity:0.1; fill:none" points="1386.27,904.556 2352.76,904.556 "/>
<polyline clip-path="url(#clip804)" style="stroke:#000000; stroke-linecap:round; stroke-linejoin:round; stroke-width:2; stroke-opacity:0.1; fill:none" points="1386.27,630.079 2352.76,630.079 "/>
<polyline clip-path="url(#clip804)" style="stroke:#000000; stroke-linecap:round; stroke-linejoin:round; stroke-width:2; stroke-opacity:0.1; fill:none" points="1386.27,355.601 2352.76,355.601 "/>
<polyline clip-path="url(#clip800)" style="stroke:#000000; stroke-linecap:round; stroke-linejoin:round; stroke-width:4; stroke-opacity:1; fill:none" points="1386.27,1486.45 2352.76,1486.45 "/>
<polyline clip-path="url(#clip800)" style="stroke:#000000; stroke-linecap:round; stroke-linejoin:round; stroke-width:4; stroke-opacity:1; fill:none" points="1413.63,1486.45 1413.63,1467.55 "/>
<polyline clip-path="url(#clip800)" style="stroke:#000000; stroke-linecap:round; stroke-linejoin:round; stroke-width:4; stroke-opacity:1; fill:none" points="1641.57,1486.45 1641.57,1467.55 "/>
<polyline clip-path="url(#clip800)" style="stroke:#000000; stroke-linecap:round; stroke-linejoin:round; stroke-width:4; stroke-opacity:1; fill:none" points="1869.51,1486.45 1869.51,1467.55 "/>
<polyline clip-path="url(#clip800)" style="stroke:#000000; stroke-linecap:round; stroke-linejoin:round; stroke-width:4; stroke-opacity:1; fill:none" points="2097.46,1486.45 2097.46,1467.55 "/>
<polyline clip-path="url(#clip800)" style="stroke:#000000; stroke-linecap:round; stroke-linejoin:round; stroke-width:4; stroke-opacity:1; fill:none" points="2325.4,1486.45 2325.4,1467.55 "/>
<path clip-path="url(#clip800)" d="M1375.93 1517.37 Q1372.32 1517.37 1370.49 1520.93 Q1368.69 1524.47 1368.69 1531.6 Q1368.69 1538.71 1370.49 1542.27 Q1372.32 1545.82 1375.93 1545.82 Q1379.56 1545.82 1381.37 1542.27 Q1383.2 1538.71 1383.2 1531.6 Q1383.2 1524.47 1381.37 1520.93 Q1379.56 1517.37 1375.93 1517.37 M1375.93 1513.66 Q1381.74 1513.66 1384.8 1518.27 Q1387.88 1522.85 1387.88 1531.6 Q1387.88 1540.33 1384.8 1544.94 Q1381.74 1549.52 1375.93 1549.52 Q1370.12 1549.52 1367.04 1544.94 Q1363.99 1540.33 1363.99 1531.6 Q1363.99 1522.85 1367.04 1518.27 Q1370.12 1513.66 1375.93 1513.66 Z" fill="#000000" fill-rule="nonzero" fill-opacity="1" /><path clip-path="url(#clip800)" d="M1396.09 1542.97 L1400.98 1542.97 L1400.98 1548.85 L1396.09 1548.85 L1396.09 1542.97 Z" fill="#000000" fill-rule="nonzero" fill-opacity="1" /><path clip-path="url(#clip800)" d="M1421.16 1517.37 Q1417.55 1517.37 1415.72 1520.93 Q1413.92 1524.47 1413.92 1531.6 Q1413.92 1538.71 1415.72 1542.27 Q1417.55 1545.82 1421.16 1545.82 Q1424.8 1545.82 1426.6 1542.27 Q1428.43 1538.71 1428.43 1531.6 Q1428.43 1524.47 1426.6 1520.93 Q1424.8 1517.37 1421.16 1517.37 M1421.16 1513.66 Q1426.97 1513.66 1430.03 1518.27 Q1433.11 1522.85 1433.11 1531.6 Q1433.11 1540.33 1430.03 1544.94 Q1426.97 1549.52 1421.16 1549.52 Q1415.35 1549.52 1412.27 1544.94 Q1409.22 1540.33 1409.22 1531.6 Q1409.22 1522.85 1412.27 1518.27 Q1415.35 1513.66 1421.16 1513.66 Z" fill="#000000" fill-rule="nonzero" fill-opacity="1" /><path clip-path="url(#clip800)" d="M1451.32 1517.37 Q1447.71 1517.37 1445.88 1520.93 Q1444.08 1524.47 1444.08 1531.6 Q1444.08 1538.71 1445.88 1542.27 Q1447.71 1545.82 1451.32 1545.82 Q1454.96 1545.82 1456.76 1542.27 Q1458.59 1538.71 1458.59 1531.6 Q1458.59 1524.47 1456.76 1520.93 Q1454.96 1517.37 1451.32 1517.37 M1451.32 1513.66 Q1457.13 1513.66 1460.19 1518.27 Q1463.27 1522.85 1463.27 1531.6 Q1463.27 1540.33 1460.19 1544.94 Q1457.13 1549.52 1451.32 1549.52 Q1445.51 1549.52 1442.43 1544.94 Q1439.38 1540.33 1439.38 1531.6 Q1439.38 1522.85 1442.43 1518.27 Q1445.51 1513.66 1451.32 1513.66 Z" fill="#000000" fill-rule="nonzero" fill-opacity="1" /><path clip-path="url(#clip800)" d="M1604.37 1517.37 Q1600.76 1517.37 1598.93 1520.93 Q1597.13 1524.47 1597.13 1531.6 Q1597.13 1538.71 1598.93 1542.27 Q1600.76 1545.82 1604.37 1545.82 Q1608.01 1545.82 1609.81 1542.27 Q1611.64 1538.71 1611.64 1531.6 Q1611.64 1524.47 1609.81 1520.93 Q1608.01 1517.37 1604.37 1517.37 M1604.37 1513.66 Q1610.18 1513.66 1613.24 1518.27 Q1616.32 1522.85 1616.32 1531.6 Q1616.32 1540.33 1613.24 1544.94 Q1610.18 1549.52 1604.37 1549.52 Q1598.56 1549.52 1595.48 1544.94 Q1592.43 1540.33 1592.43 1531.6 Q1592.43 1522.85 1595.48 1518.27 Q1598.56 1513.66 1604.37 1513.66 Z" fill="#000000" fill-rule="nonzero" fill-opacity="1" /><path clip-path="url(#clip800)" d="M1624.53 1542.97 L1629.42 1542.97 L1629.42 1548.85 L1624.53 1548.85 L1624.53 1542.97 Z" fill="#000000" fill-rule="nonzero" fill-opacity="1" /><path clip-path="url(#clip800)" d="M1643.63 1544.91 L1659.95 1544.91 L1659.95 1548.85 L1638.01 1548.85 L1638.01 1544.91 Q1640.67 1542.16 1645.25 1537.53 Q1649.86 1532.88 1651.04 1531.53 Q1653.28 1529.01 1654.16 1527.27 Q1655.07 1525.51 1655.07 1523.82 Q1655.07 1521.07 1653.12 1519.33 Q1651.2 1517.6 1648.1 1517.6 Q1645.9 1517.6 1643.45 1518.36 Q1641.02 1519.13 1638.24 1520.68 L1638.24 1515.95 Q1641.06 1514.82 1643.52 1514.24 Q1645.97 1513.66 1648.01 1513.66 Q1653.38 1513.66 1656.57 1516.35 Q1659.77 1519.03 1659.77 1523.52 Q1659.77 1525.65 1658.96 1527.57 Q1658.17 1529.47 1656.06 1532.07 Q1655.48 1532.74 1652.38 1535.95 Q1649.28 1539.15 1643.63 1544.91 Z" fill="#000000" fill-rule="nonzero" fill-opacity="1" /><path clip-path="url(#clip800)" d="M1669.81 1514.29 L1688.17 1514.29 L1688.17 1518.22 L1674.09 1518.22 L1674.09 1526.7 Q1675.11 1526.35 1676.13 1526.19 Q1677.15 1526 1678.17 1526 Q1683.96 1526 1687.33 1529.17 Q1690.71 1532.34 1690.71 1537.76 Q1690.71 1543.34 1687.24 1546.44 Q1683.77 1549.52 1677.45 1549.52 Q1675.27 1549.52 1673.01 1549.15 Q1670.76 1548.78 1668.35 1548.04 L1668.35 1543.34 Q1670.44 1544.47 1672.66 1545.03 Q1674.88 1545.58 1677.36 1545.58 Q1681.36 1545.58 1683.7 1543.48 Q1686.04 1541.37 1686.04 1537.76 Q1686.04 1534.15 1683.7 1532.04 Q1681.36 1529.94 1677.36 1529.94 Q1675.48 1529.94 1673.61 1530.35 Q1671.76 1530.77 1669.81 1531.65 L1669.81 1514.29 Z" fill="#000000" fill-rule="nonzero" fill-opacity="1" /><path clip-path="url(#clip800)" d="M1831.82 1517.37 Q1828.21 1517.37 1826.38 1520.93 Q1824.57 1524.47 1824.57 1531.6 Q1824.57 1538.71 1826.38 1542.27 Q1828.21 1545.82 1831.82 1545.82 Q1835.45 1545.82 1837.26 1542.27 Q1839.09 1538.71 1839.09 1531.6 Q1839.09 1524.47 1837.26 1520.93 Q1835.45 1517.37 1831.82 1517.37 M1831.82 1513.66 Q1837.63 1513.66 1840.68 1518.27 Q1843.76 1522.85 1843.76 1531.6 Q1843.76 1540.33 1840.68 1544.94 Q1837.63 1549.52 1831.82 1549.52 Q1826.01 1549.52 1822.93 1544.94 Q1819.87 1540.33 1819.87 1531.6 Q1819.87 1522.85 1822.93 1518.27 Q1826.01 1513.66 1831.82 1513.66 Z" fill="#000000" fill-rule="nonzero" fill-opacity="1" /><path clip-path="url(#clip800)" d="M1851.98 1542.97 L1856.86 1542.97 L1856.86 1548.85 L1851.98 1548.85 L1851.98 1542.97 Z" fill="#000000" fill-rule="nonzero" fill-opacity="1" /><path clip-path="url(#clip800)" d="M1867.1 1514.29 L1885.45 1514.29 L1885.45 1518.22 L1871.38 1518.22 L1871.38 1526.7 Q1872.4 1526.35 1873.42 1526.19 Q1874.43 1526 1875.45 1526 Q1881.24 1526 1884.62 1529.17 Q1888 1532.34 1888 1537.76 Q1888 1543.34 1884.53 1546.44 Q1881.05 1549.52 1874.73 1549.52 Q1872.56 1549.52 1870.29 1549.15 Q1868.05 1548.78 1865.64 1548.04 L1865.64 1543.34 Q1867.72 1544.47 1869.94 1545.03 Q1872.17 1545.58 1874.64 1545.58 Q1878.65 1545.58 1880.98 1543.48 Q1883.32 1541.37 1883.32 1537.76 Q1883.32 1534.15 1880.98 1532.04 Q1878.65 1529.94 1874.64 1529.94 Q1872.77 1529.94 1870.89 1530.35 Q1869.04 1530.77 1867.1 1531.65 L1867.1 1514.29 Z" fill="#000000" fill-rule="nonzero" fill-opacity="1" /><path clip-path="url(#clip800)" d="M1907.21 1517.37 Q1903.6 1517.37 1901.77 1520.93 Q1899.97 1524.47 1899.97 1531.6 Q1899.97 1538.71 1901.77 1542.27 Q1903.6 1545.82 1907.21 1545.82 Q1910.85 1545.82 1912.65 1542.27 Q1914.48 1538.71 1914.48 1531.6 Q1914.48 1524.47 1912.65 1520.93 Q1910.85 1517.37 1907.21 1517.37 M1907.21 1513.66 Q1913.02 1513.66 1916.08 1518.27 Q1919.16 1522.85 1919.16 1531.6 Q1919.16 1540.33 1916.08 1544.94 Q1913.02 1549.52 1907.21 1549.52 Q1901.4 1549.52 1898.32 1544.94 Q1895.27 1540.33 1895.27 1531.6 Q1895.27 1522.85 1898.32 1518.27 Q1901.4 1513.66 1907.21 1513.66 Z" fill="#000000" fill-rule="nonzero" fill-opacity="1" /><path clip-path="url(#clip800)" d="M2060.26 1517.37 Q2056.65 1517.37 2054.82 1520.93 Q2053.01 1524.47 2053.01 1531.6 Q2053.01 1538.71 2054.82 1542.27 Q2056.65 1545.82 2060.26 1545.82 Q2063.89 1545.82 2065.7 1542.27 Q2067.53 1538.71 2067.53 1531.6 Q2067.53 1524.47 2065.7 1520.93 Q2063.89 1517.37 2060.26 1517.37 M2060.26 1513.66 Q2066.07 1513.66 2069.13 1518.27 Q2072.2 1522.85 2072.2 1531.6 Q2072.2 1540.33 2069.13 1544.94 Q2066.07 1549.52 2060.26 1549.52 Q2054.45 1549.52 2051.37 1544.94 Q2048.32 1540.33 2048.32 1531.6 Q2048.32 1522.85 2051.37 1518.27 Q2054.45 1513.66 2060.26 1513.66 Z" fill="#000000" fill-rule="nonzero" fill-opacity="1" /><path clip-path="url(#clip800)" d="M2080.42 1542.97 L2085.31 1542.97 L2085.31 1548.85 L2080.42 1548.85 L2080.42 1542.97 Z" fill="#000000" fill-rule="nonzero" fill-opacity="1" /><path clip-path="url(#clip800)" d="M2094.31 1514.29 L2116.53 1514.29 L2116.53 1516.28 L2103.99 1548.85 L2099.1 1548.85 L2110.91 1518.22 L2094.31 1518.22 L2094.31 1514.29 Z" fill="#000000" fill-rule="nonzero" fill-opacity="1" /><path clip-path="url(#clip800)" d="M2125.7 1514.29 L2144.06 1514.29 L2144.06 1518.22 L2129.98 1518.22 L2129.98 1526.7 Q2131 1526.35 2132.02 1526.19 Q2133.04 1526 2134.06 1526 Q2139.84 1526 2143.22 1529.17 Q2146.6 1532.34 2146.6 1537.76 Q2146.6 1543.34 2143.13 1546.44 Q2139.66 1549.52 2133.34 1549.52 Q2131.16 1549.52 2128.89 1549.15 Q2126.65 1548.78 2124.24 1548.04 L2124.24 1543.34 Q2126.32 1544.47 2128.55 1545.03 Q2130.77 1545.58 2133.25 1545.58 Q2137.25 1545.58 2139.59 1543.48 Q2141.93 1541.37 2141.93 1537.76 Q2141.93 1534.15 2139.59 1532.04 Q2137.25 1529.94 2133.25 1529.94 Q2131.37 1529.94 2129.5 1530.35 Q2127.64 1530.77 2125.7 1531.65 L2125.7 1514.29 Z" fill="#000000" fill-rule="nonzero" fill-opacity="1" /><path clip-path="url(#clip800)" d="M2277.47 1544.91 L2285.11 1544.91 L2285.11 1518.55 L2276.8 1520.21 L2276.8 1515.95 L2285.07 1514.29 L2289.74 1514.29 L2289.74 1544.91 L2297.38 1544.91 L2297.38 1548.85 L2277.47 1548.85 L2277.47 1544.91 Z" fill="#000000" fill-rule="nonzero" fill-opacity="1" /><path clip-path="url(#clip800)" d="M2306.83 1542.97 L2311.71 1542.97 L2311.71 1548.85 L2306.83 1548.85 L2306.83 1542.97 Z" fill="#000000" fill-rule="nonzero" fill-opacity="1" /><path clip-path="url(#clip800)" d="M2331.9 1517.37 Q2328.28 1517.37 2326.46 1520.93 Q2324.65 1524.47 2324.65 1531.6 Q2324.65 1538.71 2326.46 1542.27 Q2328.28 1545.82 2331.9 1545.82 Q2335.53 1545.82 2337.34 1542.27 Q2339.16 1538.71 2339.16 1531.6 Q2339.16 1524.47 2337.34 1520.93 Q2335.53 1517.37 2331.9 1517.37 M2331.9 1513.66 Q2337.71 1513.66 2340.76 1518.27 Q2343.84 1522.85 2343.84 1531.6 Q2343.84 1540.33 2340.76 1544.94 Q2337.71 1549.52 2331.9 1549.52 Q2326.09 1549.52 2323.01 1544.94 Q2319.95 1540.33 2319.95 1531.6 Q2319.95 1522.85 2323.01 1518.27 Q2326.09 1513.66 2331.9 1513.66 Z" fill="#000000" fill-rule="nonzero" fill-opacity="1" /><path clip-path="url(#clip800)" d="M2362.06 1517.37 Q2358.45 1517.37 2356.62 1520.93 Q2354.81 1524.47 2354.81 1531.6 Q2354.81 1538.71 2356.62 1542.27 Q2358.45 1545.82 2362.06 1545.82 Q2365.69 1545.82 2367.5 1542.27 Q2369.33 1538.71 2369.33 1531.6 Q2369.33 1524.47 2367.5 1520.93 Q2365.69 1517.37 2362.06 1517.37 M2362.06 1513.66 Q2367.87 1513.66 2370.92 1518.27 Q2374 1522.85 2374 1531.6 Q2374 1540.33 2370.92 1544.94 Q2367.87 1549.52 2362.06 1549.52 Q2356.25 1549.52 2353.17 1544.94 Q2350.11 1540.33 2350.11 1531.6 Q2350.11 1522.85 2353.17 1518.27 Q2356.25 1513.66 2362.06 1513.66 Z" fill="#000000" fill-rule="nonzero" fill-opacity="1" /><polyline clip-path="url(#clip800)" style="stroke:#000000; stroke-linecap:round; stroke-linejoin:round; stroke-width:4; stroke-opacity:1; fill:none" points="1386.27,1486.45 1386.27,322.664 "/>
<polyline clip-path="url(#clip800)" style="stroke:#000000; stroke-linecap:round; stroke-linejoin:round; stroke-width:4; stroke-opacity:1; fill:none" points="1386.27,1453.51 1405.17,1453.51 "/>
<polyline clip-path="url(#clip800)" style="stroke:#000000; stroke-linecap:round; stroke-linejoin:round; stroke-width:4; stroke-opacity:1; fill:none" points="1386.27,1179.03 1405.17,1179.03 "/>
<polyline clip-path="url(#clip800)" style="stroke:#000000; stroke-linecap:round; stroke-linejoin:round; stroke-width:4; stroke-opacity:1; fill:none" points="1386.27,904.556 1405.17,904.556 "/>
<polyline clip-path="url(#clip800)" style="stroke:#000000; stroke-linecap:round; stroke-linejoin:round; stroke-width:4; stroke-opacity:1; fill:none" points="1386.27,630.079 1405.17,630.079 "/>
<polyline clip-path="url(#clip800)" style="stroke:#000000; stroke-linecap:round; stroke-linejoin:round; stroke-width:4; stroke-opacity:1; fill:none" points="1386.27,355.601 1405.17,355.601 "/>
<path clip-path="url(#clip800)" d="M1262.94 1439.31 Q1259.33 1439.31 1257.5 1442.87 Q1255.69 1446.42 1255.69 1453.55 Q1255.69 1460.65 1257.5 1464.22 Q1259.33 1467.76 1262.94 1467.76 Q1266.57 1467.76 1268.38 1464.22 Q1270.2 1460.65 1270.2 1453.55 Q1270.2 1446.42 1268.38 1442.87 Q1266.57 1439.31 1262.94 1439.31 M1262.94 1435.61 Q1268.75 1435.61 1271.8 1440.21 Q1274.88 1444.8 1274.88 1453.55 Q1274.88 1462.27 1271.8 1466.88 Q1268.75 1471.46 1262.94 1471.46 Q1257.13 1471.46 1254.05 1466.88 Q1250.99 1462.27 1250.99 1453.55 Q1250.99 1444.8 1254.05 1440.21 Q1257.13 1435.61 1262.94 1435.61 Z" fill="#000000" fill-rule="nonzero" fill-opacity="1" /><path clip-path="url(#clip800)" d="M1283.1 1464.91 L1287.98 1464.91 L1287.98 1470.79 L1283.1 1470.79 L1283.1 1464.91 Z" fill="#000000" fill-rule="nonzero" fill-opacity="1" /><path clip-path="url(#clip800)" d="M1308.17 1439.31 Q1304.56 1439.31 1302.73 1442.87 Q1300.92 1446.42 1300.92 1453.55 Q1300.92 1460.65 1302.73 1464.22 Q1304.56 1467.76 1308.17 1467.76 Q1311.8 1467.76 1313.61 1464.22 Q1315.44 1460.65 1315.44 1453.55 Q1315.44 1446.42 1313.61 1442.87 Q1311.8 1439.31 1308.17 1439.31 M1308.17 1435.61 Q1313.98 1435.61 1317.03 1440.21 Q1320.11 1444.8 1320.11 1453.55 Q1320.11 1462.27 1317.03 1466.88 Q1313.98 1471.46 1308.17 1471.46 Q1302.36 1471.46 1299.28 1466.88 Q1296.22 1462.27 1296.22 1453.55 Q1296.22 1444.8 1299.28 1440.21 Q1302.36 1435.61 1308.17 1435.61 Z" fill="#000000" fill-rule="nonzero" fill-opacity="1" /><path clip-path="url(#clip800)" d="M1338.33 1439.31 Q1334.72 1439.31 1332.89 1442.87 Q1331.08 1446.42 1331.08 1453.55 Q1331.08 1460.65 1332.89 1464.22 Q1334.72 1467.76 1338.33 1467.76 Q1341.96 1467.76 1343.77 1464.22 Q1345.6 1460.65 1345.6 1453.55 Q1345.6 1446.42 1343.77 1442.87 Q1341.96 1439.31 1338.33 1439.31 M1338.33 1435.61 Q1344.14 1435.61 1347.2 1440.21 Q1350.27 1444.8 1350.27 1453.55 Q1350.27 1462.27 1347.2 1466.88 Q1344.14 1471.46 1338.33 1471.46 Q1332.52 1471.46 1329.44 1466.88 Q1326.39 1462.27 1326.39 1453.55 Q1326.39 1444.8 1329.44 1440.21 Q1332.52 1435.61 1338.33 1435.61 Z" fill="#000000" fill-rule="nonzero" fill-opacity="1" /><path clip-path="url(#clip800)" d="M1263.93 1164.83 Q1260.32 1164.83 1258.49 1168.4 Q1256.69 1171.94 1256.69 1179.07 Q1256.69 1186.17 1258.49 1189.74 Q1260.32 1193.28 1263.93 1193.28 Q1267.57 1193.28 1269.37 1189.74 Q1271.2 1186.17 1271.2 1179.07 Q1271.2 1171.94 1269.37 1168.4 Q1267.57 1164.83 1263.93 1164.83 M1263.93 1161.13 Q1269.74 1161.13 1272.8 1165.73 Q1275.88 1170.32 1275.88 1179.07 Q1275.88 1187.79 1272.8 1192.4 Q1269.74 1196.98 1263.93 1196.98 Q1258.12 1196.98 1255.04 1192.4 Q1251.99 1187.79 1251.99 1179.07 Q1251.99 1170.32 1255.04 1165.73 Q1258.12 1161.13 1263.93 1161.13 Z" fill="#000000" fill-rule="nonzero" fill-opacity="1" /><path clip-path="url(#clip800)" d="M1284.09 1190.43 L1288.98 1190.43 L1288.98 1196.31 L1284.09 1196.31 L1284.09 1190.43 Z" fill="#000000" fill-rule="nonzero" fill-opacity="1" /><path clip-path="url(#clip800)" d="M1303.19 1192.38 L1319.51 1192.38 L1319.51 1196.31 L1297.57 1196.31 L1297.57 1192.38 Q1300.23 1189.62 1304.81 1184.99 Q1309.42 1180.34 1310.6 1179 Q1312.84 1176.48 1313.72 1174.74 Q1314.63 1172.98 1314.63 1171.29 Q1314.63 1168.54 1312.68 1166.8 Q1310.76 1165.06 1307.66 1165.06 Q1305.46 1165.06 1303.01 1165.83 Q1300.58 1166.59 1297.8 1168.14 L1297.8 1163.42 Q1300.62 1162.29 1303.08 1161.71 Q1305.53 1161.13 1307.57 1161.13 Q1312.94 1161.13 1316.13 1163.81 Q1319.33 1166.5 1319.33 1170.99 Q1319.33 1173.12 1318.51 1175.04 Q1317.73 1176.94 1315.62 1179.53 Q1315.04 1180.2 1311.94 1183.42 Q1308.84 1186.61 1303.19 1192.38 Z" fill="#000000" fill-rule="nonzero" fill-opacity="1" /><path clip-path="url(#clip800)" d="M1329.37 1161.75 L1347.73 1161.75 L1347.73 1165.69 L1333.65 1165.69 L1333.65 1174.16 Q1334.67 1173.81 1335.69 1173.65 Q1336.71 1173.47 1337.73 1173.47 Q1343.51 1173.47 1346.89 1176.64 Q1350.27 1179.81 1350.27 1185.23 Q1350.27 1190.8 1346.8 1193.91 Q1343.33 1196.98 1337.01 1196.98 Q1334.83 1196.98 1332.57 1196.61 Q1330.32 1196.24 1327.91 1195.5 L1327.91 1190.8 Q1330 1191.94 1332.22 1192.49 Q1334.44 1193.05 1336.92 1193.05 Q1340.92 1193.05 1343.26 1190.94 Q1345.6 1188.84 1345.6 1185.23 Q1345.6 1181.61 1343.26 1179.51 Q1340.92 1177.4 1336.92 1177.4 Q1335.04 1177.4 1333.17 1177.82 Q1331.32 1178.23 1329.37 1179.11 L1329.37 1161.75 Z" fill="#000000" fill-rule="nonzero" fill-opacity="1" /><path clip-path="url(#clip800)" d="M1262.94 890.355 Q1259.33 890.355 1257.5 893.919 Q1255.69 897.461 1255.69 904.591 Q1255.69 911.697 1257.5 915.262 Q1259.33 918.804 1262.94 918.804 Q1266.57 918.804 1268.38 915.262 Q1270.2 911.697 1270.2 904.591 Q1270.2 897.461 1268.38 893.919 Q1266.57 890.355 1262.94 890.355 M1262.94 886.651 Q1268.75 886.651 1271.8 891.257 Q1274.88 895.841 1274.88 904.591 Q1274.88 913.317 1271.8 917.924 Q1268.75 922.507 1262.94 922.507 Q1257.13 922.507 1254.05 917.924 Q1250.99 913.317 1250.99 904.591 Q1250.99 895.841 1254.05 891.257 Q1257.13 886.651 1262.94 886.651 Z" fill="#000000" fill-rule="nonzero" fill-opacity="1" /><path clip-path="url(#clip800)" d="M1283.1 915.956 L1287.98 915.956 L1287.98 921.836 L1283.1 921.836 L1283.1 915.956 Z" fill="#000000" fill-rule="nonzero" fill-opacity="1" /><path clip-path="url(#clip800)" d="M1298.21 887.276 L1316.57 887.276 L1316.57 891.211 L1302.5 891.211 L1302.5 899.683 Q1303.51 899.336 1304.53 899.174 Q1305.55 898.989 1306.57 898.989 Q1312.36 898.989 1315.74 902.16 Q1319.12 905.331 1319.12 910.748 Q1319.12 916.327 1315.64 919.429 Q1312.17 922.507 1305.85 922.507 Q1303.68 922.507 1301.41 922.137 Q1299.16 921.767 1296.76 921.026 L1296.76 916.327 Q1298.84 917.461 1301.06 918.017 Q1303.28 918.572 1305.76 918.572 Q1309.76 918.572 1312.1 916.466 Q1314.44 914.359 1314.44 910.748 Q1314.44 907.137 1312.1 905.031 Q1309.76 902.924 1305.76 902.924 Q1303.89 902.924 1302.01 903.341 Q1300.16 903.757 1298.21 904.637 L1298.21 887.276 Z" fill="#000000" fill-rule="nonzero" fill-opacity="1" /><path clip-path="url(#clip800)" d="M1338.33 890.355 Q1334.72 890.355 1332.89 893.919 Q1331.08 897.461 1331.08 904.591 Q1331.08 911.697 1332.89 915.262 Q1334.72 918.804 1338.33 918.804 Q1341.96 918.804 1343.77 915.262 Q1345.6 911.697 1345.6 904.591 Q1345.6 897.461 1343.77 893.919 Q1341.96 890.355 1338.33 890.355 M1338.33 886.651 Q1344.14 886.651 1347.2 891.257 Q1350.27 895.841 1350.27 904.591 Q1350.27 913.317 1347.2 917.924 Q1344.14 922.507 1338.33 922.507 Q1332.52 922.507 1329.44 917.924 Q1326.39 913.317 1326.39 904.591 Q1326.39 895.841 1329.44 891.257 Q1332.52 886.651 1338.33 886.651 Z" fill="#000000" fill-rule="nonzero" fill-opacity="1" /><path clip-path="url(#clip800)" d="M1263.93 615.877 Q1260.32 615.877 1258.49 619.442 Q1256.69 622.984 1256.69 630.113 Q1256.69 637.22 1258.49 640.785 Q1260.32 644.326 1263.93 644.326 Q1267.57 644.326 1269.37 640.785 Q1271.2 637.22 1271.2 630.113 Q1271.2 622.984 1269.37 619.442 Q1267.57 615.877 1263.93 615.877 M1263.93 612.174 Q1269.74 612.174 1272.8 616.78 Q1275.88 621.363 1275.88 630.113 Q1275.88 638.84 1272.8 643.447 Q1269.74 648.03 1263.93 648.03 Q1258.12 648.03 1255.04 643.447 Q1251.99 638.84 1251.99 630.113 Q1251.99 621.363 1255.04 616.78 Q1258.12 612.174 1263.93 612.174 Z" fill="#000000" fill-rule="nonzero" fill-opacity="1" /><path clip-path="url(#clip800)" d="M1284.09 641.479 L1288.98 641.479 L1288.98 647.359 L1284.09 647.359 L1284.09 641.479 Z" fill="#000000" fill-rule="nonzero" fill-opacity="1" /><path clip-path="url(#clip800)" d="M1297.98 612.799 L1320.2 612.799 L1320.2 614.789 L1307.66 647.359 L1302.77 647.359 L1314.58 616.734 L1297.98 616.734 L1297.98 612.799 Z" fill="#000000" fill-rule="nonzero" fill-opacity="1" /><path clip-path="url(#clip800)" d="M1329.37 612.799 L1347.73 612.799 L1347.73 616.734 L1333.65 616.734 L1333.65 625.206 Q1334.67 624.859 1335.69 624.697 Q1336.71 624.512 1337.73 624.512 Q1343.51 624.512 1346.89 627.683 Q1350.27 630.854 1350.27 636.271 Q1350.27 641.849 1346.8 644.951 Q1343.33 648.03 1337.01 648.03 Q1334.83 648.03 1332.57 647.66 Q1330.32 647.289 1327.91 646.548 L1327.91 641.849 Q1330 642.984 1332.22 643.539 Q1334.44 644.095 1336.92 644.095 Q1340.92 644.095 1343.26 641.988 Q1345.6 639.882 1345.6 636.271 Q1345.6 632.66 1343.26 630.553 Q1340.92 628.447 1336.92 628.447 Q1335.04 628.447 1333.17 628.863 Q1331.32 629.28 1329.37 630.16 L1329.37 612.799 Z" fill="#000000" fill-rule="nonzero" fill-opacity="1" /><path clip-path="url(#clip800)" d="M1253.75 368.946 L1261.39 368.946 L1261.39 342.581 L1253.08 344.247 L1253.08 339.988 L1261.34 338.321 L1266.02 338.321 L1266.02 368.946 L1273.65 368.946 L1273.65 372.881 L1253.75 372.881 L1253.75 368.946 Z" fill="#000000" fill-rule="nonzero" fill-opacity="1" /><path clip-path="url(#clip800)" d="M1283.1 367.002 L1287.98 367.002 L1287.98 372.881 L1283.1 372.881 L1283.1 367.002 Z" fill="#000000" fill-rule="nonzero" fill-opacity="1" /><path clip-path="url(#clip800)" d="M1308.17 341.4 Q1304.56 341.4 1302.73 344.965 Q1300.92 348.506 1300.92 355.636 Q1300.92 362.743 1302.73 366.307 Q1304.56 369.849 1308.17 369.849 Q1311.8 369.849 1313.61 366.307 Q1315.44 362.743 1315.44 355.636 Q1315.44 348.506 1313.61 344.965 Q1311.8 341.4 1308.17 341.4 M1308.17 337.696 Q1313.98 337.696 1317.03 342.303 Q1320.11 346.886 1320.11 355.636 Q1320.11 364.363 1317.03 368.969 Q1313.98 373.553 1308.17 373.553 Q1302.36 373.553 1299.28 368.969 Q1296.22 364.363 1296.22 355.636 Q1296.22 346.886 1299.28 342.303 Q1302.36 337.696 1308.17 337.696 Z" fill="#000000" fill-rule="nonzero" fill-opacity="1" /><path clip-path="url(#clip800)" d="M1338.33 341.4 Q1334.72 341.4 1332.89 344.965 Q1331.08 348.506 1331.08 355.636 Q1331.08 362.743 1332.89 366.307 Q1334.72 369.849 1338.33 369.849 Q1341.96 369.849 1343.77 366.307 Q1345.6 362.743 1345.6 355.636 Q1345.6 348.506 1343.77 344.965 Q1341.96 341.4 1338.33 341.4 M1338.33 337.696 Q1344.14 337.696 1347.2 342.303 Q1350.27 346.886 1350.27 355.636 Q1350.27 364.363 1347.2 368.969 Q1344.14 373.553 1338.33 373.553 Q1332.52 373.553 1329.44 368.969 Q1326.39 364.363 1326.39 355.636 Q1326.39 346.886 1329.44 342.303 Q1332.52 337.696 1338.33 337.696 Z" fill="#000000" fill-rule="nonzero" fill-opacity="1" /><polyline clip-path="url(#clip804)" style="stroke:#009af9; stroke-linecap:round; stroke-linejoin:round; stroke-width:4; stroke-opacity:1; fill:none" points="1413.63,355.601 1419.56,365.813 1474.45,460.232 1507.44,516.974 1535.33,564.949 1565.62,617.063 1593.55,665.107 1623.49,716.616 1658.19,776.294 1689.02,829.328 1716.05,875.835 1745.53,926.54 1775.18,977.546 1807.96,1033.94 1839.15,1087.6 1871.59,1143.39 1898.89,1190.35 1932.22,1247.69 1962.76,1300.22 1990.96,1348.73 2019.52,1397.87 2027.53,1411.63 2035.53,1425.4 2039.53,1432.29 2043.53,1439.17 2047.54,1446.05 2051.54,1452.94 2055.16,1453.51 2058.79,1453.51 2062.42,1453.51 2066.04,1453.51 2073.3,1453.51 2080.55,1453.51 2113.76,1453.51 2144.52,1453.51 2174.84,1453.51 2204.28,1453.51 2234.45,1453.51 2267.52,1453.51 2315.55,1453.51 2325.4,1453.51 "/>
<polyline clip-path="url(#clip804)" style="stroke:#e26f46; stroke-linecap:round; stroke-linejoin:round; stroke-width:4; stroke-opacity:1; fill:none" points="1413.63,1453.51 1416.6,1453.51 1419.56,1453.51 1447.01,1453.51 1474.45,1453.51 1482.7,1453.51 1490.94,1453.51 1495.07,1453.51 1499.19,1453.51 1503.31,1453.51 1507.44,1449.99 1514.41,1440.66 1521.38,1431.33 1528.35,1422 1535.33,1412.67 1565.62,1372.14 1593.55,1334.77 1623.49,1294.71 1658.19,1248.3 1689.02,1207.05 1716.05,1170.87 1745.53,1131.44 1775.18,1091.77 1807.96,1047.9 1839.15,1006.17 1871.59,962.778 1898.89,926.25 1932.22,881.654 1962.76,840.801 1990.96,803.07 2019.52,764.85 2051.54,722.016 2080.55,683.201 2113.76,638.761 2144.52,597.614 2174.84,557.047 2204.28,517.66 2234.45,477.284 2267.52,433.047 2315.55,368.785 2325.4,355.601 "/>
<path clip-path="url(#clip800)" d="M1418.49 516.977 L1640.37 516.977 L1640.37 361.457 L1418.49 361.457  Z" fill="#ffffff" fill-rule="evenodd" fill-opacity="1"/>
<polyline clip-path="url(#clip800)" style="stroke:#000000; stroke-linecap:round; stroke-linejoin:round; stroke-width:4; stroke-opacity:1; fill:none" points="1418.49,516.977 1640.37,516.977 1640.37,361.457 1418.49,361.457 1418.49,516.977 "/>
<polyline clip-path="url(#clip800)" style="stroke:#009af9; stroke-linecap:round; stroke-linejoin:round; stroke-width:4; stroke-opacity:1; fill:none" points="1429.23,413.297 1493.66,413.297 "/>
<path clip-path="url(#clip800)" d="M1523.17 417.637 Q1523.17 412.938 1521.23 410.276 Q1519.31 407.591 1515.93 407.591 Q1512.55 407.591 1510.6 410.276 Q1508.68 412.938 1508.68 417.637 Q1508.68 422.336 1510.6 425.021 Q1512.55 427.683 1515.93 427.683 Q1519.31 427.683 1521.23 425.021 Q1523.17 422.336 1523.17 417.637 M1508.68 408.586 Q1510.02 406.271 1512.06 405.16 Q1514.12 404.026 1516.97 404.026 Q1521.69 404.026 1524.63 407.776 Q1527.59 411.526 1527.59 417.637 Q1527.59 423.748 1524.63 427.498 Q1521.69 431.248 1516.97 431.248 Q1514.12 431.248 1512.06 430.137 Q1510.02 429.003 1508.68 426.688 L1508.68 430.577 L1504.4 430.577 L1504.4 394.559 L1508.68 394.559 L1508.68 408.586 Z" fill="#000000" fill-rule="nonzero" fill-opacity="1" /><path clip-path="url(#clip800)" d="M1534.65 394.559 L1538.91 394.559 L1538.91 430.577 L1534.65 430.577 L1534.65 394.559 Z" fill="#000000" fill-rule="nonzero" fill-opacity="1" /><path clip-path="url(#clip800)" d="M1559.61 417.545 Q1554.45 417.545 1552.45 418.725 Q1550.46 419.906 1550.46 422.753 Q1550.46 425.021 1551.95 426.364 Q1553.45 427.683 1556.02 427.683 Q1559.56 427.683 1561.69 425.183 Q1563.84 422.66 1563.84 418.494 L1563.84 417.545 L1559.61 417.545 M1568.1 415.785 L1568.1 430.577 L1563.84 430.577 L1563.84 426.642 Q1562.39 429.003 1560.21 430.137 Q1558.03 431.248 1554.89 431.248 Q1550.9 431.248 1548.54 429.026 Q1546.2 426.781 1546.2 423.031 Q1546.2 418.656 1549.12 416.433 Q1552.06 414.211 1557.87 414.211 L1563.84 414.211 L1563.84 413.795 Q1563.84 410.855 1561.9 409.258 Q1559.98 407.637 1556.48 407.637 Q1554.26 407.637 1552.15 408.17 Q1550.05 408.702 1548.1 409.767 L1548.1 405.832 Q1550.44 404.929 1552.64 404.489 Q1554.84 404.026 1556.92 404.026 Q1562.55 404.026 1565.33 406.943 Q1568.1 409.859 1568.1 415.785 Z" fill="#000000" fill-rule="nonzero" fill-opacity="1" /><path clip-path="url(#clip800)" d="M1595.53 405.646 L1595.53 409.628 Q1593.73 408.633 1591.9 408.146 Q1590.09 407.637 1588.24 407.637 Q1584.1 407.637 1581.81 410.276 Q1579.51 412.892 1579.51 417.637 Q1579.51 422.382 1581.81 425.021 Q1584.1 427.637 1588.24 427.637 Q1590.09 427.637 1591.9 427.151 Q1593.73 426.642 1595.53 425.646 L1595.53 429.581 Q1593.75 430.415 1591.83 430.831 Q1589.93 431.248 1587.78 431.248 Q1581.92 431.248 1578.47 427.568 Q1575.02 423.887 1575.02 417.637 Q1575.02 411.295 1578.5 407.66 Q1581.99 404.026 1588.06 404.026 Q1590.02 404.026 1591.9 404.443 Q1593.77 404.836 1595.53 405.646 Z" fill="#000000" fill-rule="nonzero" fill-opacity="1" /><path clip-path="url(#clip800)" d="M1602.78 394.559 L1607.06 394.559 L1607.06 415.832 L1619.77 404.651 L1625.21 404.651 L1611.46 416.781 L1625.79 430.577 L1620.23 430.577 L1607.06 417.915 L1607.06 430.577 L1602.78 430.577 L1602.78 394.559 Z" fill="#000000" fill-rule="nonzero" fill-opacity="1" /><polyline clip-path="url(#clip800)" style="stroke:#e26f46; stroke-linecap:round; stroke-linejoin:round; stroke-width:4; stroke-opacity:1; fill:none" points="1429.23,465.137 1493.66,465.137 "/>
<path clip-path="url(#clip800)" d="M1504.4 456.491 L1508.66 456.491 L1513.98 476.722 L1519.28 456.491 L1524.31 456.491 L1529.63 476.722 L1534.93 456.491 L1539.19 456.491 L1532.41 482.417 L1527.39 482.417 L1521.81 461.167 L1516.21 482.417 L1511.18 482.417 L1504.4 456.491 Z" fill="#000000" fill-rule="nonzero" fill-opacity="1" /><path clip-path="url(#clip800)" d="M1567.2 466.769 L1567.2 482.417 L1562.94 482.417 L1562.94 466.908 Q1562.94 463.227 1561.51 461.398 Q1560.07 459.57 1557.2 459.57 Q1553.75 459.57 1551.76 461.769 Q1549.77 463.968 1549.77 467.764 L1549.77 482.417 L1545.49 482.417 L1545.49 446.399 L1549.77 446.399 L1549.77 460.519 Q1551.3 458.181 1553.36 457.023 Q1555.44 455.866 1558.15 455.866 Q1562.62 455.866 1564.91 458.644 Q1567.2 461.398 1567.2 466.769 Z" fill="#000000" fill-rule="nonzero" fill-opacity="1" /><path clip-path="url(#clip800)" d="M1575.7 456.491 L1579.95 456.491 L1579.95 482.417 L1575.7 482.417 L1575.7 456.491 M1575.7 446.399 L1579.95 446.399 L1579.95 451.792 L1575.7 451.792 L1575.7 446.399 Z" fill="#000000" fill-rule="nonzero" fill-opacity="1" /><path clip-path="url(#clip800)" d="M1593.08 449.13 L1593.08 456.491 L1601.85 456.491 L1601.85 459.801 L1593.08 459.801 L1593.08 473.875 Q1593.08 477.047 1593.94 477.949 Q1594.82 478.852 1597.48 478.852 L1601.85 478.852 L1601.85 482.417 L1597.48 482.417 Q1592.55 482.417 1590.67 480.588 Q1588.8 478.736 1588.8 473.875 L1588.8 459.801 L1585.67 459.801 L1585.67 456.491 L1588.8 456.491 L1588.8 449.13 L1593.08 449.13 Z" fill="#000000" fill-rule="nonzero" fill-opacity="1" /><path clip-path="url(#clip800)" d="M1629.63 468.389 L1629.63 470.472 L1610.05 470.472 Q1610.32 474.871 1612.69 477.185 Q1615.07 479.477 1619.31 479.477 Q1621.76 479.477 1624.05 478.875 Q1626.37 478.273 1628.64 477.07 L1628.64 481.097 Q1626.34 482.07 1623.94 482.579 Q1621.53 483.088 1619.05 483.088 Q1612.85 483.088 1609.21 479.477 Q1605.6 475.866 1605.6 469.709 Q1605.6 463.343 1609.03 459.616 Q1612.48 455.866 1618.31 455.866 Q1623.54 455.866 1626.57 459.246 Q1629.63 462.602 1629.63 468.389 M1625.37 467.139 Q1625.32 463.644 1623.4 461.56 Q1621.51 459.477 1618.36 459.477 Q1614.79 459.477 1612.64 461.491 Q1610.51 463.505 1610.19 467.162 L1625.37 467.139 Z" fill="#000000" fill-rule="nonzero" fill-opacity="1" /><path clip-path="url(#clip800)" d="M1386.27 177.616 L2352.76 177.616 L2352.76 116.364 L1386.27 116.364  Z" fill="#ffffff" fill-rule="evenodd" fill-opacity="1"/>
<defs>
  <clipPath id="clip805">
    <rect x="1386" y="116" width="967" height="62"/>
  </clipPath>
</defs>
<path clip-path="url(#clip800)" d="M1783.68 13.824 L1793.03 13.824 L1793.03 82.944 L1783.68 82.944 L1783.68 13.824 Z" fill="#000000" fill-rule="nonzero" fill-opacity="1" /><path clip-path="url(#clip800)" d="M1831.37 37.0646 Q1824.52 37.0646 1820.53 42.435 Q1816.55 47.759 1816.55 57.0645 Q1816.55 66.37 1820.49 71.7404 Q1824.47 77.0644 1831.37 77.0644 Q1838.17 77.0644 1842.15 71.6941 Q1846.14 66.3237 1846.14 57.0645 Q1846.14 47.8516 1842.15 42.4813 Q1838.17 37.0646 1831.37 37.0646 M1831.37 29.8424 Q1842.48 29.8424 1848.82 37.0646 Q1855.16 44.2868 1855.16 57.0645 Q1855.16 69.7959 1848.82 77.0644 Q1842.48 84.2866 1831.37 84.2866 Q1820.21 84.2866 1813.87 77.0644 Q1807.57 69.7959 1807.57 57.0645 Q1807.57 44.2868 1813.87 37.0646 Q1820.21 29.8424 1831.37 29.8424 Z" fill="#000000" fill-rule="nonzero" fill-opacity="1" /><path clip-path="url(#clip800)" d="M1868.4 62.4811 L1868.4 31.0924 L1876.92 31.0924 L1876.92 62.1571 Q1876.92 69.5181 1879.79 73.2218 Q1882.66 76.8792 1888.4 76.8792 Q1895.3 76.8792 1899.28 72.4811 Q1903.31 68.083 1903.31 60.4904 L1903.31 31.0924 L1911.83 31.0924 L1911.83 82.944 L1903.31 82.944 L1903.31 74.9811 Q1900.21 79.7033 1896.09 82.0181 Q1892.01 84.2866 1886.6 84.2866 Q1877.66 84.2866 1873.03 78.7311 Q1868.4 73.1755 1868.4 62.4811 M1889.84 29.8424 L1889.84 29.8424 Z" fill="#000000" fill-rule="nonzero" fill-opacity="1" /><path clip-path="url(#clip800)" d="M1937.8 16.3703 L1937.8 31.0924 L1955.35 31.0924 L1955.35 37.7128 L1937.8 37.7128 L1937.8 65.8608 Q1937.8 72.2033 1939.51 74.0089 Q1941.27 75.8144 1946.6 75.8144 L1955.35 75.8144 L1955.35 82.944 L1946.6 82.944 Q1936.74 82.944 1932.99 79.2866 Q1929.24 75.5829 1929.24 65.8608 L1929.24 37.7128 L1922.99 37.7128 L1922.99 31.0924 L1929.24 31.0924 L1929.24 16.3703 L1937.8 16.3703 Z" fill="#000000" fill-rule="nonzero" fill-opacity="1" /></svg>
