<?xml version="1.0" encoding="utf-8"?>
<svg xmlns="http://www.w3.org/2000/svg" xmlns:xlink="http://www.w3.org/1999/xlink" width="600" height="400" viewBox="0 0 2400 1600">
<defs>
  <clipPath id="clip160">
    <rect x="0" y="0" width="2400" height="1600"/>
  </clipPath>
</defs>
<path clip-path="url(#clip160)" d="M0 1600 L2400 1600 L2400 0 L0 0  Z" fill="#ffffff" fill-rule="evenodd" fill-opacity="1"/>
<defs>
  <clipPath id="clip161">
    <rect x="480" y="0" width="1681" height="1600"/>
  </clipPath>
</defs>
<path clip-path="url(#clip160)" d="M186.274 1486.45 L2352.76 1486.45 L2352.76 47.2441 L186.274 47.2441  Z" fill="#ffffff" fill-rule="evenodd" fill-opacity="1"/>
<defs>
  <clipPath id="clip162">
    <rect x="186" y="47" width="2167" height="1440"/>
  </clipPath>
</defs>
<polyline clip-path="url(#clip162)" style="stroke:#000000; stroke-linecap:round; stroke-linejoin:round; stroke-width:2; stroke-opacity:0.1; fill:none" points="247.59,1486.45 247.59,47.2441 "/>
<polyline clip-path="url(#clip162)" style="stroke:#000000; stroke-linecap:round; stroke-linejoin:round; stroke-width:2; stroke-opacity:0.1; fill:none" points="588.231,1486.45 588.231,47.2441 "/>
<polyline clip-path="url(#clip162)" style="stroke:#000000; stroke-linecap:round; stroke-linejoin:round; stroke-width:2; stroke-opacity:0.1; fill:none" points="928.873,1486.45 928.873,47.2441 "/>
<polyline clip-path="url(#clip162)" style="stroke:#000000; stroke-linecap:round; stroke-linejoin:round; stroke-width:2; stroke-opacity:0.1; fill:none" points="1269.51,1486.45 1269.51,47.2441 "/>
<polyline clip-path="url(#clip162)" style="stroke:#000000; stroke-linecap:round; stroke-linejoin:round; stroke-width:2; stroke-opacity:0.1; fill:none" points="1610.16,1486.45 1610.16,47.2441 "/>
<polyline clip-path="url(#clip162)" style="stroke:#000000; stroke-linecap:round; stroke-linejoin:round; stroke-width:2; stroke-opacity:0.1; fill:none" points="1950.8,1486.45 1950.8,47.2441 "/>
<polyline clip-path="url(#clip162)" style="stroke:#000000; stroke-linecap:round; stroke-linejoin:round; stroke-width:2; stroke-opacity:0.1; fill:none" points="2291.44,1486.45 2291.44,47.2441 "/>
<polyline clip-path="url(#clip162)" style="stroke:#000000; stroke-linecap:round; stroke-linejoin:round; stroke-width:2; stroke-opacity:0.1; fill:none" points="186.274,1445.72 2352.76,1445.72 "/>
<polyline clip-path="url(#clip162)" style="stroke:#000000; stroke-linecap:round; stroke-linejoin:round; stroke-width:2; stroke-opacity:0.1; fill:none" points="186.274,1106.23 2352.76,1106.23 "/>
<polyline clip-path="url(#clip162)" style="stroke:#000000; stroke-linecap:round; stroke-linejoin:round; stroke-width:2; stroke-opacity:0.1; fill:none" points="186.274,766.744 2352.76,766.744 "/>
<polyline clip-path="url(#clip162)" style="stroke:#000000; stroke-linecap:round; stroke-linejoin:round; stroke-width:2; stroke-opacity:0.1; fill:none" points="186.274,427.258 2352.76,427.258 "/>
<polyline clip-path="url(#clip162)" style="stroke:#000000; stroke-linecap:round; stroke-linejoin:round; stroke-width:2; stroke-opacity:0.1; fill:none" points="186.274,87.7721 2352.76,87.7721 "/>
<polyline clip-path="url(#clip160)" style="stroke:#000000; stroke-linecap:round; stroke-linejoin:round; stroke-width:4; stroke-opacity:1; fill:none" points="186.274,1486.45 2352.76,1486.45 "/>
<polyline clip-path="url(#clip160)" style="stroke:#000000; stroke-linecap:round; stroke-linejoin:round; stroke-width:4; stroke-opacity:1; fill:none" points="247.59,1486.45 247.59,1467.55 "/>
<polyline clip-path="url(#clip160)" style="stroke:#000000; stroke-linecap:round; stroke-linejoin:round; stroke-width:4; stroke-opacity:1; fill:none" points="588.231,1486.45 588.231,1467.55 "/>
<polyline clip-path="url(#clip160)" style="stroke:#000000; stroke-linecap:round; stroke-linejoin:round; stroke-width:4; stroke-opacity:1; fill:none" points="928.873,1486.45 928.873,1467.55 "/>
<polyline clip-path="url(#clip160)" style="stroke:#000000; stroke-linecap:round; stroke-linejoin:round; stroke-width:4; stroke-opacity:1; fill:none" points="1269.51,1486.45 1269.51,1467.55 "/>
<polyline clip-path="url(#clip160)" style="stroke:#000000; stroke-linecap:round; stroke-linejoin:round; stroke-width:4; stroke-opacity:1; fill:none" points="1610.16,1486.45 1610.16,1467.55 "/>
<polyline clip-path="url(#clip160)" style="stroke:#000000; stroke-linecap:round; stroke-linejoin:round; stroke-width:4; stroke-opacity:1; fill:none" points="1950.8,1486.45 1950.8,1467.55 "/>
<polyline clip-path="url(#clip160)" style="stroke:#000000; stroke-linecap:round; stroke-linejoin:round; stroke-width:4; stroke-opacity:1; fill:none" points="2291.44,1486.45 2291.44,1467.55 "/>
<path clip-path="url(#clip160)" d="M217.347 1532.02 L247.022 1532.02 L247.022 1535.95 L217.347 1535.95 L217.347 1532.02 Z" fill="#000000" fill-rule="nonzero" fill-opacity="1" /><path clip-path="url(#clip160)" d="M257.925 1544.91 L265.564 1544.91 L265.564 1518.55 L257.254 1520.21 L257.254 1515.95 L265.518 1514.29 L270.194 1514.29 L270.194 1544.91 L277.832 1544.91 L277.832 1548.85 L257.925 1548.85 L257.925 1544.91 Z" fill="#000000" fill-rule="nonzero" fill-opacity="1" /><path clip-path="url(#clip160)" d="M588.231 1517.37 Q584.62 1517.37 582.792 1520.93 Q580.986 1524.47 580.986 1531.6 Q580.986 1538.71 582.792 1542.27 Q584.62 1545.82 588.231 1545.82 Q591.866 1545.82 593.671 1542.27 Q595.5 1538.71 595.5 1531.6 Q595.5 1524.47 593.671 1520.93 Q591.866 1517.37 588.231 1517.37 M588.231 1513.66 Q594.041 1513.66 597.097 1518.27 Q600.176 1522.85 600.176 1531.6 Q600.176 1540.33 597.097 1544.94 Q594.041 1549.52 588.231 1549.52 Q582.421 1549.52 579.342 1544.94 Q576.287 1540.33 576.287 1531.6 Q576.287 1522.85 579.342 1518.27 Q582.421 1513.66 588.231 1513.66 Z" fill="#000000" fill-rule="nonzero" fill-opacity="1" /><path clip-path="url(#clip160)" d="M919.255 1544.91 L926.894 1544.91 L926.894 1518.55 L918.584 1520.21 L918.584 1515.95 L926.848 1514.29 L931.524 1514.29 L931.524 1544.91 L939.162 1544.91 L939.162 1548.85 L919.255 1548.85 L919.255 1544.91 Z" fill="#000000" fill-rule="nonzero" fill-opacity="1" /><path clip-path="url(#clip160)" d="M1264.17 1544.91 L1280.49 1544.91 L1280.49 1548.85 L1258.54 1548.85 L1258.54 1544.91 Q1261.2 1542.16 1265.79 1537.53 Q1270.39 1532.88 1271.58 1531.53 Q1273.82 1529.01 1274.7 1527.27 Q1275.6 1525.51 1275.6 1523.82 Q1275.6 1521.07 1273.66 1519.33 Q1271.74 1517.6 1268.64 1517.6 Q1266.44 1517.6 1263.98 1518.36 Q1261.55 1519.13 1258.77 1520.68 L1258.77 1515.95 Q1261.6 1514.82 1264.05 1514.24 Q1266.51 1513.66 1268.54 1513.66 Q1273.91 1513.66 1277.11 1516.35 Q1280.3 1519.03 1280.3 1523.52 Q1280.3 1525.65 1279.49 1527.57 Q1278.7 1529.47 1276.6 1532.07 Q1276.02 1532.74 1272.92 1535.95 Q1269.82 1539.15 1264.17 1544.91 Z" fill="#000000" fill-rule="nonzero" fill-opacity="1" /><path clip-path="url(#clip160)" d="M1614.4 1530.21 Q1617.76 1530.93 1619.64 1533.2 Q1621.53 1535.47 1621.53 1538.8 Q1621.53 1543.92 1618.02 1546.72 Q1614.5 1549.52 1608.02 1549.52 Q1605.84 1549.52 1603.52 1549.08 Q1601.23 1548.66 1598.78 1547.81 L1598.78 1543.29 Q1600.72 1544.43 1603.04 1545.01 Q1605.35 1545.58 1607.88 1545.58 Q1612.27 1545.58 1614.57 1543.85 Q1616.88 1542.11 1616.88 1538.8 Q1616.88 1535.75 1614.73 1534.03 Q1612.6 1532.3 1608.78 1532.3 L1604.75 1532.3 L1604.75 1528.45 L1608.96 1528.45 Q1612.41 1528.45 1614.24 1527.09 Q1616.07 1525.7 1616.07 1523.11 Q1616.07 1520.45 1614.17 1519.03 Q1612.3 1517.6 1608.78 1517.6 Q1606.86 1517.6 1604.66 1518.01 Q1602.46 1518.43 1599.82 1519.31 L1599.82 1515.14 Q1602.48 1514.4 1604.8 1514.03 Q1607.14 1513.66 1609.2 1513.66 Q1614.52 1513.66 1617.62 1516.09 Q1620.72 1518.5 1620.72 1522.62 Q1620.72 1525.49 1619.08 1527.48 Q1617.44 1529.45 1614.4 1530.21 Z" fill="#000000" fill-rule="nonzero" fill-opacity="1" /><path clip-path="url(#clip160)" d="M1953.81 1518.36 L1942 1536.81 L1953.81 1536.81 L1953.81 1518.36 M1952.58 1514.29 L1958.46 1514.29 L1958.46 1536.81 L1963.39 1536.81 L1963.39 1540.7 L1958.46 1540.7 L1958.46 1548.85 L1953.81 1548.85 L1953.81 1540.7 L1938.21 1540.7 L1938.21 1536.19 L1952.58 1514.29 Z" fill="#000000" fill-rule="nonzero" fill-opacity="1" /><path clip-path="url(#clip160)" d="M2281.72 1514.29 L2300.07 1514.29 L2300.07 1518.22 L2286 1518.22 L2286 1526.7 Q2287.02 1526.35 2288.04 1526.19 Q2289.06 1526 2290.07 1526 Q2295.86 1526 2299.24 1529.17 Q2302.62 1532.34 2302.62 1537.76 Q2302.62 1543.34 2299.15 1546.44 Q2295.68 1549.52 2289.36 1549.52 Q2287.18 1549.52 2284.91 1549.15 Q2282.67 1548.78 2280.26 1548.04 L2280.26 1543.34 Q2282.34 1544.47 2284.57 1545.03 Q2286.79 1545.58 2289.26 1545.58 Q2293.27 1545.58 2295.61 1543.48 Q2297.94 1541.37 2297.94 1537.76 Q2297.94 1534.15 2295.61 1532.04 Q2293.27 1529.94 2289.26 1529.94 Q2287.39 1529.94 2285.51 1530.35 Q2283.66 1530.77 2281.72 1531.65 L2281.72 1514.29 Z" fill="#000000" fill-rule="nonzero" fill-opacity="1" /><polyline clip-path="url(#clip160)" style="stroke:#000000; stroke-linecap:round; stroke-linejoin:round; stroke-width:4; stroke-opacity:1; fill:none" points="186.274,1486.45 186.274,47.2441 "/>
<polyline clip-path="url(#clip160)" style="stroke:#000000; stroke-linecap:round; stroke-linejoin:round; stroke-width:4; stroke-opacity:1; fill:none" points="186.274,1445.72 205.172,1445.72 "/>
<polyline clip-path="url(#clip160)" style="stroke:#000000; stroke-linecap:round; stroke-linejoin:round; stroke-width:4; stroke-opacity:1; fill:none" points="186.274,1106.23 205.172,1106.23 "/>
<polyline clip-path="url(#clip160)" style="stroke:#000000; stroke-linecap:round; stroke-linejoin:round; stroke-width:4; stroke-opacity:1; fill:none" points="186.274,766.744 205.172,766.744 "/>
<polyline clip-path="url(#clip160)" style="stroke:#000000; stroke-linecap:round; stroke-linejoin:round; stroke-width:4; stroke-opacity:1; fill:none" points="186.274,427.258 205.172,427.258 "/>
<polyline clip-path="url(#clip160)" style="stroke:#000000; stroke-linecap:round; stroke-linejoin:round; stroke-width:4; stroke-opacity:1; fill:none" points="186.274,87.7721 205.172,87.7721 "/>
<path clip-path="url(#clip160)" d="M62.9365 1431.51 Q59.3254 1431.51 57.4967 1435.08 Q55.6912 1438.62 55.6912 1445.75 Q55.6912 1452.86 57.4967 1456.42 Q59.3254 1459.96 62.9365 1459.96 Q66.5707 1459.96 68.3763 1456.42 Q70.205 1452.86 70.205 1445.75 Q70.205 1438.62 68.3763 1435.08 Q66.5707 1431.51 62.9365 1431.51 M62.9365 1427.81 Q68.7467 1427.81 71.8022 1432.42 Q74.8809 1437 74.8809 1445.75 Q74.8809 1454.48 71.8022 1459.08 Q68.7467 1463.67 62.9365 1463.67 Q57.1264 1463.67 54.0477 1459.08 Q50.9921 1454.48 50.9921 1445.75 Q50.9921 1437 54.0477 1432.42 Q57.1264 1427.81 62.9365 1427.81 Z" fill="#000000" fill-rule="nonzero" fill-opacity="1" /><path clip-path="url(#clip160)" d="M83.0984 1457.12 L87.9827 1457.12 L87.9827 1463 L83.0984 1463 L83.0984 1457.12 Z" fill="#000000" fill-rule="nonzero" fill-opacity="1" /><path clip-path="url(#clip160)" d="M108.168 1431.51 Q104.557 1431.51 102.728 1435.08 Q100.922 1438.62 100.922 1445.75 Q100.922 1452.86 102.728 1456.42 Q104.557 1459.96 108.168 1459.96 Q111.802 1459.96 113.608 1456.42 Q115.436 1452.86 115.436 1445.75 Q115.436 1438.62 113.608 1435.08 Q111.802 1431.51 108.168 1431.51 M108.168 1427.81 Q113.978 1427.81 117.033 1432.42 Q120.112 1437 120.112 1445.75 Q120.112 1454.48 117.033 1459.08 Q113.978 1463.67 108.168 1463.67 Q102.358 1463.67 99.2789 1459.08 Q96.2234 1454.48 96.2234 1445.75 Q96.2234 1437 99.2789 1432.42 Q102.358 1427.81 108.168 1427.81 Z" fill="#000000" fill-rule="nonzero" fill-opacity="1" /><path clip-path="url(#clip160)" d="M138.33 1431.51 Q134.719 1431.51 132.89 1435.08 Q131.084 1438.62 131.084 1445.75 Q131.084 1452.86 132.89 1456.42 Q134.719 1459.96 138.33 1459.96 Q141.964 1459.96 143.769 1456.42 Q145.598 1452.86 145.598 1445.75 Q145.598 1438.62 143.769 1435.08 Q141.964 1431.51 138.33 1431.51 M138.33 1427.81 Q144.14 1427.81 147.195 1432.42 Q150.274 1437 150.274 1445.75 Q150.274 1454.48 147.195 1459.08 Q144.14 1463.67 138.33 1463.67 Q132.519 1463.67 129.441 1459.08 Q126.385 1454.48 126.385 1445.75 Q126.385 1437 129.441 1432.42 Q132.519 1427.81 138.33 1427.81 Z" fill="#000000" fill-rule="nonzero" fill-opacity="1" /><path clip-path="url(#clip160)" d="M63.9319 1092.03 Q60.3208 1092.03 58.4921 1095.59 Q56.6865 1099.13 56.6865 1106.26 Q56.6865 1113.37 58.4921 1116.94 Q60.3208 1120.48 63.9319 1120.48 Q67.5661 1120.48 69.3717 1116.94 Q71.2004 1113.37 71.2004 1106.26 Q71.2004 1099.13 69.3717 1095.59 Q67.5661 1092.03 63.9319 1092.03 M63.9319 1088.32 Q69.742 1088.32 72.7976 1092.93 Q75.8763 1097.51 75.8763 1106.26 Q75.8763 1114.99 72.7976 1119.6 Q69.742 1124.18 63.9319 1124.18 Q58.1217 1124.18 55.043 1119.6 Q51.9875 1114.99 51.9875 1106.26 Q51.9875 1097.51 55.043 1092.93 Q58.1217 1088.32 63.9319 1088.32 Z" fill="#000000" fill-rule="nonzero" fill-opacity="1" /><path clip-path="url(#clip160)" d="M84.0938 1117.63 L88.978 1117.63 L88.978 1123.51 L84.0938 1123.51 L84.0938 1117.63 Z" fill="#000000" fill-rule="nonzero" fill-opacity="1" /><path clip-path="url(#clip160)" d="M103.191 1119.57 L119.51 1119.57 L119.51 1123.51 L97.566 1123.51 L97.566 1119.57 Q100.228 1116.82 104.811 1112.19 Q109.418 1107.54 110.598 1106.2 Q112.844 1103.67 113.723 1101.94 Q114.626 1100.18 114.626 1098.49 Q114.626 1095.73 112.682 1094 Q110.76 1092.26 107.658 1092.26 Q105.459 1092.26 103.006 1093.02 Q100.575 1093.79 97.7974 1095.34 L97.7974 1090.62 Q100.621 1089.48 103.075 1088.9 Q105.529 1088.32 107.566 1088.32 Q112.936 1088.32 116.131 1091.01 Q119.325 1093.7 119.325 1098.19 Q119.325 1100.32 118.515 1102.24 Q117.728 1104.13 115.621 1106.73 Q115.043 1107.4 111.941 1110.62 Q108.839 1113.81 103.191 1119.57 Z" fill="#000000" fill-rule="nonzero" fill-opacity="1" /><path clip-path="url(#clip160)" d="M129.371 1088.95 L147.728 1088.95 L147.728 1092.88 L133.654 1092.88 L133.654 1101.36 Q134.672 1101.01 135.691 1100.85 Q136.709 1100.66 137.728 1100.66 Q143.515 1100.66 146.894 1103.83 Q150.274 1107.01 150.274 1112.42 Q150.274 1118 146.802 1121.1 Q143.33 1124.18 137.01 1124.18 Q134.834 1124.18 132.566 1123.81 Q130.32 1123.44 127.913 1122.7 L127.913 1118 Q129.996 1119.13 132.219 1119.69 Q134.441 1120.25 136.918 1120.25 Q140.922 1120.25 143.26 1118.14 Q145.598 1116.03 145.598 1112.42 Q145.598 1108.81 143.26 1106.7 Q140.922 1104.6 136.918 1104.6 Q135.043 1104.6 133.168 1105.01 Q131.316 1105.43 129.371 1106.31 L129.371 1088.95 Z" fill="#000000" fill-rule="nonzero" fill-opacity="1" /><path clip-path="url(#clip160)" d="M62.9365 752.543 Q59.3254 752.543 57.4967 756.107 Q55.6912 759.649 55.6912 766.779 Q55.6912 773.885 57.4967 777.45 Q59.3254 780.992 62.9365 780.992 Q66.5707 780.992 68.3763 777.45 Q70.205 773.885 70.205 766.779 Q70.205 759.649 68.3763 756.107 Q66.5707 752.543 62.9365 752.543 M62.9365 748.839 Q68.7467 748.839 71.8022 753.445 Q74.8809 758.029 74.8809 766.779 Q74.8809 775.505 71.8022 780.112 Q68.7467 784.695 62.9365 784.695 Q57.1264 784.695 54.0477 780.112 Q50.9921 775.505 50.9921 766.779 Q50.9921 758.029 54.0477 753.445 Q57.1264 748.839 62.9365 748.839 Z" fill="#000000" fill-rule="nonzero" fill-opacity="1" /><path clip-path="url(#clip160)" d="M83.0984 778.144 L87.9827 778.144 L87.9827 784.024 L83.0984 784.024 L83.0984 778.144 Z" fill="#000000" fill-rule="nonzero" fill-opacity="1" /><path clip-path="url(#clip160)" d="M98.2141 749.464 L116.57 749.464 L116.57 753.399 L102.496 753.399 L102.496 761.871 Q103.515 761.524 104.534 761.362 Q105.552 761.177 106.571 761.177 Q112.358 761.177 115.737 764.348 Q119.117 767.519 119.117 772.936 Q119.117 778.515 115.645 781.617 Q112.172 784.695 105.853 784.695 Q103.677 784.695 101.409 784.325 Q99.1632 783.954 96.7558 783.214 L96.7558 778.515 Q98.8391 779.649 101.061 780.204 Q103.284 780.76 105.76 780.76 Q109.765 780.76 112.103 778.654 Q114.441 776.547 114.441 772.936 Q114.441 769.325 112.103 767.218 Q109.765 765.112 105.76 765.112 Q103.885 765.112 102.01 765.529 Q100.159 765.945 98.2141 766.825 L98.2141 749.464 Z" fill="#000000" fill-rule="nonzero" fill-opacity="1" /><path clip-path="url(#clip160)" d="M138.33 752.543 Q134.719 752.543 132.89 756.107 Q131.084 759.649 131.084 766.779 Q131.084 773.885 132.89 777.45 Q134.719 780.992 138.33 780.992 Q141.964 780.992 143.769 777.45 Q145.598 773.885 145.598 766.779 Q145.598 759.649 143.769 756.107 Q141.964 752.543 138.33 752.543 M138.33 748.839 Q144.14 748.839 147.195 753.445 Q150.274 758.029 150.274 766.779 Q150.274 775.505 147.195 780.112 Q144.14 784.695 138.33 784.695 Q132.519 784.695 129.441 780.112 Q126.385 775.505 126.385 766.779 Q126.385 758.029 129.441 753.445 Q132.519 748.839 138.33 748.839 Z" fill="#000000" fill-rule="nonzero" fill-opacity="1" /><path clip-path="url(#clip160)" d="M63.9319 413.057 Q60.3208 413.057 58.4921 416.622 Q56.6865 420.163 56.6865 427.293 Q56.6865 434.399 58.4921 437.964 Q60.3208 441.506 63.9319 441.506 Q67.5661 441.506 69.3717 437.964 Q71.2004 434.399 71.2004 427.293 Q71.2004 420.163 69.3717 416.622 Q67.5661 413.057 63.9319 413.057 M63.9319 409.353 Q69.742 409.353 72.7976 413.959 Q75.8763 418.543 75.8763 427.293 Q75.8763 436.02 72.7976 440.626 Q69.742 445.209 63.9319 445.209 Q58.1217 445.209 55.043 440.626 Q51.9875 436.02 51.9875 427.293 Q51.9875 418.543 55.043 413.959 Q58.1217 409.353 63.9319 409.353 Z" fill="#000000" fill-rule="nonzero" fill-opacity="1" /><path clip-path="url(#clip160)" d="M84.0938 438.658 L88.978 438.658 L88.978 444.538 L84.0938 444.538 L84.0938 438.658 Z" fill="#000000" fill-rule="nonzero" fill-opacity="1" /><path clip-path="url(#clip160)" d="M97.9826 409.978 L120.205 409.978 L120.205 411.969 L107.658 444.538 L102.774 444.538 L114.58 413.913 L97.9826 413.913 L97.9826 409.978 Z" fill="#000000" fill-rule="nonzero" fill-opacity="1" /><path clip-path="url(#clip160)" d="M129.371 409.978 L147.728 409.978 L147.728 413.913 L133.654 413.913 L133.654 422.385 Q134.672 422.038 135.691 421.876 Q136.709 421.691 137.728 421.691 Q143.515 421.691 146.894 424.862 Q150.274 428.033 150.274 433.45 Q150.274 439.029 146.802 442.131 Q143.33 445.209 137.01 445.209 Q134.834 445.209 132.566 444.839 Q130.32 444.469 127.913 443.728 L127.913 439.029 Q129.996 440.163 132.219 440.719 Q134.441 441.274 136.918 441.274 Q140.922 441.274 143.26 439.168 Q145.598 437.061 145.598 433.45 Q145.598 429.839 143.26 427.733 Q140.922 425.626 136.918 425.626 Q135.043 425.626 133.168 426.043 Q131.316 426.459 129.371 427.339 L129.371 409.978 Z" fill="#000000" fill-rule="nonzero" fill-opacity="1" /><path clip-path="url(#clip160)" d="M53.7467 101.117 L61.3856 101.117 L61.3856 74.7514 L53.0754 76.418 L53.0754 72.1588 L61.3393 70.4921 L66.0152 70.4921 L66.0152 101.117 L73.654 101.117 L73.654 105.052 L53.7467 105.052 L53.7467 101.117 Z" fill="#000000" fill-rule="nonzero" fill-opacity="1" /><path clip-path="url(#clip160)" d="M83.0984 99.1725 L87.9827 99.1725 L87.9827 105.052 L83.0984 105.052 L83.0984 99.1725 Z" fill="#000000" fill-rule="nonzero" fill-opacity="1" /><path clip-path="url(#clip160)" d="M108.168 73.5708 Q104.557 73.5708 102.728 77.1356 Q100.922 80.6773 100.922 87.8069 Q100.922 94.9133 102.728 98.4781 Q104.557 102.02 108.168 102.02 Q111.802 102.02 113.608 98.4781 Q115.436 94.9133 115.436 87.8069 Q115.436 80.6773 113.608 77.1356 Q111.802 73.5708 108.168 73.5708 M108.168 69.8671 Q113.978 69.8671 117.033 74.4736 Q120.112 79.0569 120.112 87.8069 Q120.112 96.5337 117.033 101.14 Q113.978 105.723 108.168 105.723 Q102.358 105.723 99.2789 101.14 Q96.2234 96.5337 96.2234 87.8069 Q96.2234 79.0569 99.2789 74.4736 Q102.358 69.8671 108.168 69.8671 Z" fill="#000000" fill-rule="nonzero" fill-opacity="1" /><path clip-path="url(#clip160)" d="M138.33 73.5708 Q134.719 73.5708 132.89 77.1356 Q131.084 80.6773 131.084 87.8069 Q131.084 94.9133 132.89 98.4781 Q134.719 102.02 138.33 102.02 Q141.964 102.02 143.769 98.4781 Q145.598 94.9133 145.598 87.8069 Q145.598 80.6773 143.769 77.1356 Q141.964 73.5708 138.33 73.5708 M138.33 69.8671 Q144.14 69.8671 147.195 74.4736 Q150.274 79.0569 150.274 87.8069 Q150.274 96.5337 147.195 101.14 Q144.14 105.723 138.33 105.723 Q132.519 105.723 129.441 101.14 Q126.385 96.5337 126.385 87.8069 Q126.385 79.0569 129.441 74.4736 Q132.519 69.8671 138.33 69.8671 Z" fill="#000000" fill-rule="nonzero" fill-opacity="1" /><path clip-path="url(#clip162)" d="M247.59 1445.72 L260.896 1445.72 L383.935 1445.72 L457.876 1445.72 L520.392 1445.72 L588.302 1445.72 L650.909 1445.72 L718.031 1445.72 L795.798 1445.72 L830.353 1445.72 L864.908 1445.72 L880.058 1445.72 L895.209 1445.72 L902.785 1445.72 L910.36 1445.72 L914.148 1445.72 L917.935 1445.72 L921.723 1445.72 L925.511 1445.72 L927.576 1445.72 L929.64 1443.57 L931.705 1437.81 L933.77 1432.05 L937.9 1420.53 L942.029 1409 L950.288 1385.96 L958.548 1362.91 L975.066 1316.81 L991.585 1270.72 L1024.82 1177.98 L1058.05 1085.24 L1094.79 982.712 L1131.54 880.179 L1166.5 782.622 L1201.46 685.064 L1219.63 634.346 L1237.81 583.627 L1246.9 558.268 L1255.99 532.908 L1260.53 520.229 L1265.07 507.549 L1266.21 504.379 L1267.35 501.209 L1268.48 498.039 L1269.62 495.441 L1270.75 498.611 L1271.89 501.781 L1273.03 504.951 L1274.16 508.121 L1277.99 518.794 L1281.81 529.468 L1285.64 540.141 L1289.46 550.815 L1297.11 572.162 L1304.76 593.509 L1320.06 636.203 L1335.36 678.898 L1410.08 887.397 L1478.52 1078.4 L1510.13 1166.6 L1541.74 1254.8 L1557.75 1299.47 L1573.76 1344.14 L1581.76 1366.48 L1589.77 1388.81 L1593.77 1399.98 L1597.77 1411.15 L1601.77 1422.32 L1605.77 1433.49 L1608.02 1439.75 L1610.26 1445.72 L1612.5 1445.72 L1614.75 1445.72 L1619.23 1445.72 L1623.72 1445.72 L1632.69 1445.72 L1641.66 1445.72 L1659.6 1445.72 L1677.54 1445.72 L1710.06 1445.72 L1742.57 1445.72 L1817.03 1445.72 L1885.97 1445.72 L1953.93 1445.72 L2019.92 1445.72 L2087.57 1445.72 L2161.69 1445.72 L2269.35 1445.72 L2291.44 1445.72 L2291.44 1445.72 L2269.35 1445.72 L2161.69 1445.72 L2087.57 1445.72 L2019.92 1445.72 L1953.93 1445.72 L1885.97 1316.49 L1817.03 1179.08 L1742.57 1030.67 L1710.06 965.863 L1677.54 901.053 L1659.6 865.292 L1641.66 829.531 L1632.69 811.651 L1623.72 793.77 L1619.23 784.83 L1614.75 775.89 L1612.5 771.42 L1610.26 766.949 L1608.02 762.479 L1605.77 758.009 L1601.77 750.032 L1597.77 742.055 L1593.77 734.078 L1589.77 726.1 L1581.76 710.146 L1573.76 694.191 L1557.75 662.283 L1541.74 630.374 L1510.13 567.373 L1478.52 504.372 L1410.08 367.945 L1335.36 219.017 L1320.06 188.521 L1304.76 158.025 L1297.11 142.777 L1289.46 127.529 L1285.64 119.905 L1281.81 112.281 L1277.99 104.657 L1274.16 97.0332 L1273.03 94.7689 L1271.89 92.5047 L1270.75 90.2405 L1269.62 87.9763 L1268.48 89.8322 L1267.35 92.0965 L1266.21 94.3607 L1265.07 96.6249 L1260.53 105.682 L1255.99 114.739 L1246.9 132.852 L1237.81 150.966 L1219.63 187.194 L1201.46 223.421 L1166.5 293.105 L1131.54 362.789 L1094.79 436.027 L1058.05 509.265 L1024.82 575.506 L991.585 641.747 L975.066 674.671 L958.548 707.596 L950.288 724.059 L942.029 740.521 L937.9 748.752 L933.77 756.983 L931.705 761.099 L929.64 765.215 L927.576 769.33 L925.511 773.446 L921.723 780.996 L917.935 788.545 L914.148 796.095 L910.36 803.645 L902.785 818.744 L895.209 833.843 L880.058 864.042 L864.908 894.241 L830.353 963.116 L795.798 1031.99 L718.031 1187 L650.909 1320.79 L588.302 1445.57 L520.392 1445.72 L457.876 1445.72 L383.935 1445.72 L260.896 1445.72 L247.59 1445.72  Z" fill="#009af9" fill-rule="evenodd" fill-opacity="0.5"/>
<polyline clip-path="url(#clip162)" style="stroke:#009af9; stroke-linecap:round; stroke-linejoin:round; stroke-width:8; stroke-opacity:1; fill:none" points="247.59,1445.72 260.896,1445.72 383.935,1445.72 457.876,1445.72 520.392,1445.72 588.302,1445.72 650.909,1445.72 718.031,1445.72 795.798,1445.72 830.353,1445.72 864.908,1445.72 880.058,1445.72 895.209,1445.72 902.785,1445.72 910.36,1445.72 914.148,1445.72 917.935,1445.72 921.723,1445.72 925.511,1445.72 927.576,1445.72 929.64,1443.57 931.705,1437.81 933.77,1432.05 937.9,1420.53 942.029,1409 950.288,1385.96 958.548,1362.91 975.066,1316.81 991.585,1270.72 1024.82,1177.98 1058.05,1085.24 1094.79,982.712 1131.54,880.179 1166.5,782.622 1201.46,685.064 1219.63,634.346 1237.81,583.627 1246.9,558.268 1255.99,532.908 1260.53,520.229 1265.07,507.549 1266.21,504.379 1267.35,501.209 1268.48,498.039 1269.62,495.441 1270.75,498.611 1271.89,501.781 1273.03,504.951 1274.16,508.121 1277.99,518.794 1281.81,529.468 1285.64,540.141 1289.46,550.815 1297.11,572.162 1304.76,593.509 1320.06,636.203 1335.36,678.898 1410.08,887.397 1478.52,1078.4 1510.13,1166.6 1541.74,1254.8 1557.75,1299.47 1573.76,1344.14 1581.76,1366.48 1589.77,1388.81 1593.77,1399.98 1597.77,1411.15 1601.77,1422.32 1605.77,1433.49 1608.02,1439.75 1610.26,1445.72 1612.5,1445.72 1614.75,1445.72 1619.23,1445.72 1623.72,1445.72 1632.69,1445.72 1641.66,1445.72 1659.6,1445.72 1677.54,1445.72 1710.06,1445.72 1742.57,1445.72 1817.03,1445.72 1885.97,1445.72 1953.93,1445.72 2019.92,1445.72 2087.57,1445.72 2161.69,1445.72 2269.35,1445.72 2291.44,1445.72 "/>
<polyline clip-path="url(#clip162)" style="stroke:#009af9; stroke-linecap:round; stroke-linejoin:round; stroke-width:8; stroke-opacity:1; fill:none" points="247.59,1445.72 260.896,1445.72 383.935,1445.72 457.876,1445.72 520.392,1445.72 537.37,1445.72 554.347,1445.72 562.836,1445.72 571.325,1445.72 575.569,1445.72 579.813,1445.72 584.058,1445.72 588.302,1445.57 592.215,1437.78 596.128,1429.98 600.041,1422.18 603.954,1414.38 611.78,1398.78 619.606,1383.18 635.258,1351.98 650.909,1320.79 718.031,1187 795.798,1031.99 864.908,894.241 925.511,773.446 991.585,641.747 1058.05,509.265 1094.79,436.027 1131.54,362.789 1166.5,293.105 1201.46,223.421 1219.63,187.194 1237.81,150.966 1246.9,132.852 1255.99,114.739 1260.53,105.682 1265.07,96.6249 1267.35,92.0965 1269.62,87.9763 1271.89,92.5047 1274.16,97.0332 1277.99,104.657 1281.81,112.281 1285.64,119.905 1289.46,127.529 1297.11,142.777 1304.76,158.025 1320.06,188.521 1335.36,219.017 1410.08,367.945 1478.52,504.372 1541.74,630.374 1605.77,758.009 1677.54,901.053 1742.57,1030.67 1817.03,1179.08 1885.97,1316.49 1902.96,1350.36 1919.95,1384.23 1928.45,1401.16 1936.94,1418.1 1941.19,1426.56 1945.44,1435.03 1947.56,1439.26 1949.68,1443.5 1951.81,1445.72 1953.93,1445.72 1962.18,1445.72 1970.43,1445.72 1978.68,1445.72 1986.93,1445.72 2003.43,1445.72 2019.92,1445.72 2087.57,1445.72 2161.69,1445.72 2269.35,1445.72 2291.44,1445.72 "/>
</svg>
